<svg xmlns="http://www.w3.org/2000/svg" width="89.842" height="30.467" viewBox="0 0 89.842 30.467">
  <g id="Logo" transform="translate(-443.686 -365.223)">
    <g id="Groupe_2" data-name="Groupe 2" transform="translate(472.598 365.223)">
      <g id="Groupe_1" data-name="Groupe 1" transform="translate(0 0)">
        <path id="Tracé_43" data-name="Tracé 43" d="M639.758,365.223a1.088,1.088,0,0,1,.739.273.872.872,0,0,1,.313.671v4.2h4.819v-4.2a.872.872,0,0,1,.313-.671,1.088,1.088,0,0,1,.739-.273h.026a1.088,1.088,0,0,1,.739.273.872.872,0,0,1,.313.671v10.3a.834.834,0,0,1-.313.663,1.071,1.071,0,0,1-.739.281h-.026a1.071,1.071,0,0,1-.739-.281.835.835,0,0,1-.313-.663v-4.2H640.81v4.2a.834.834,0,0,1-.313.663,1.071,1.071,0,0,1-.739.281h-.026a1.07,1.07,0,0,1-.739-.281.834.834,0,0,1-.313-.663v-10.3a.872.872,0,0,1,.313-.671,1.088,1.088,0,0,1,.739-.273Z" transform="translate(-638.679 -365.223)" fill="#828186"/>
        <path id="Tracé_44" data-name="Tracé 44" d="M720.791,388.117a4.119,4.119,0,0,1,1.47,3.176v3.55a.834.834,0,0,1-.313.663,1.071,1.071,0,0,1-.739.281h-.026a1.071,1.071,0,0,1-.739-.281.834.834,0,0,1-.313-.663,4.019,4.019,0,0,1-2.879.944,5.117,5.117,0,0,1-3.54-1.319,4.165,4.165,0,0,1,0-6.351,5.411,5.411,0,0,1,7.08,0Zm-5.584,1.35a2.422,2.422,0,0,0,0,3.659,2.972,2.972,0,0,0,2.044.749,2.94,2.94,0,0,0,2.036-.749,2.406,2.406,0,0,0,0-3.659,3.127,3.127,0,0,0-4.079,0Z" transform="translate(-701.334 -383.599)" fill="#828186"/>
        <path id="Tracé_45" data-name="Tracé 45" d="M794.978,365.223a1.088,1.088,0,0,1,.739.273.872.872,0,0,1,.313.671v10.3a.834.834,0,0,1-.313.663,1.071,1.071,0,0,1-.739.281h-.026a1.071,1.071,0,0,1-.739-.281.834.834,0,0,1-.313-.663v-10.3a.872.872,0,0,1,.313-.671,1.088,1.088,0,0,1,.739-.273Z" transform="translate(-770.884 -365.223)" fill="#828186"/>
        <path id="Tracé_46" data-name="Tracé 46" d="M830.9,388.117a4.119,4.119,0,0,1,1.47,3.176v3.55a.834.834,0,0,1-.313.663,1.071,1.071,0,0,1-.739.281h-.026a1.071,1.071,0,0,1-.739-.281.834.834,0,0,1-.313-.663,4.019,4.019,0,0,1-2.879.944,5.116,5.116,0,0,1-3.54-1.319,4.165,4.165,0,0,1,0-6.351,5.411,5.411,0,0,1,7.08,0Zm-5.584,1.35a2.422,2.422,0,0,0,0,3.659,2.971,2.971,0,0,0,2.044.749,2.94,2.94,0,0,0,2.035-.749,2.406,2.406,0,0,0,0-3.659,3.127,3.127,0,0,0-4.079,0Z" transform="translate(-795.117 -383.599)" fill="#828186"/>
        <path id="Tracé_47" data-name="Tracé 47" d="M905.088,365.223a1.089,1.089,0,0,1,.739.273.872.872,0,0,1,.313.671v10.3a.834.834,0,0,1-.313.663,1.071,1.071,0,0,1-.739.281h-.026a1.071,1.071,0,0,1-.739-.281.834.834,0,0,1-.313-.663v-10.3a.872.872,0,0,1,.313-.671,1.088,1.088,0,0,1,.739-.273Z" transform="translate(-864.667 -365.223)" fill="#828186"/>
        <path id="Tracé_48" data-name="Tracé 48" d="M640.81,472.02h4.149a1.089,1.089,0,0,1,.739.273.872.872,0,0,1,.313.671v.016a.872.872,0,0,1-.313.671,1.088,1.088,0,0,1-.739.273H640.81v2.294a.858.858,0,0,0,.3.663,1.068,1.068,0,0,0,.739.273h3.105a1.071,1.071,0,0,1,.739.281.872.872,0,0,1,.313.671v.016a.834.834,0,0,1-.313.663,1.071,1.071,0,0,1-.739.281h-3.105a3.243,3.243,0,0,1-2.244-.835,2.609,2.609,0,0,1-.931-2.013v-6.492a2.61,2.61,0,0,1,.931-2.013,3.244,3.244,0,0,1,2.244-.835h3.105a1.071,1.071,0,0,1,.739.281.834.834,0,0,1,.313.663v.016a.872.872,0,0,1-.313.671,1.07,1.07,0,0,1-.739.281h-3.105a1.068,1.068,0,0,0-.739.273.858.858,0,0,0-.3.663Z" transform="translate(-638.679 -451.805)" fill="#d81d26"/>
        <path id="Tracé_49" data-name="Tracé 49" d="M698.475,490.091a1.719,1.719,0,0,0,.6,1.319,2.263,2.263,0,0,0,2.949,0,1.719,1.719,0,0,0,.6-1.319V489.4a.872.872,0,0,1,.313-.671,1.082,1.082,0,0,1,.748-.281h.017a1.031,1.031,0,0,1,.739.281.864.864,0,0,1,.313.663v.694a3.18,3.18,0,0,1-1.392,2.817,3.192,3.192,0,0,1,1.392,2.817v.772a.834.834,0,0,1-.313.663,1.032,1.032,0,0,1-.739.281h-.017a1.082,1.082,0,0,1-.748-.281.834.834,0,0,1-.313-.663v-.772a1.719,1.719,0,0,0-.6-1.318,2.288,2.288,0,0,0-2.949,0,1.719,1.719,0,0,0-.6,1.318v.772a.834.834,0,0,1-.313.663,1.072,1.072,0,0,1-.739.281H697.4a1.071,1.071,0,0,1-.739-.281.834.834,0,0,1-.313-.663v-.772a3.191,3.191,0,0,1,1.392-2.817,3.179,3.179,0,0,1-1.392-2.817V489.4a.872.872,0,0,1,.313-.671,1.071,1.071,0,0,1,.739-.281h.026a1.071,1.071,0,0,1,.739.281.872.872,0,0,1,.313.671Z" transform="translate(-687.794 -470.181)" fill="#d81d26"/>
        <path id="Tracé_50" data-name="Tracé 50" d="M764.975,500.648a1.071,1.071,0,0,1-.739-.281.864.864,0,0,1-.313-.663v-6.773a4.106,4.106,0,0,1,1.479-3.168,5.412,5.412,0,0,1,7.071.008,4.165,4.165,0,0,1,0,6.351,5.117,5.117,0,0,1-3.54,1.319,4.555,4.555,0,0,1-2.879-.78V499.7a.865.865,0,0,1-.313.663,1.072,1.072,0,0,1-.739.281Zm5.993-5.891a2.406,2.406,0,0,0,0-3.659,2.94,2.94,0,0,0-2.035-.749,2.972,2.972,0,0,0-2.044.749,2.422,2.422,0,0,0,0,3.659,3.127,3.127,0,0,0,4.079,0Z" transform="translate(-745.353 -470.181)" fill="#d81d26"/>
        <path id="Tracé_51" data-name="Tracé 51" d="M845.807,488.453a1.082,1.082,0,0,1,.748.281.882.882,0,0,1,.3.671v.016a.859.859,0,0,1-.3.663,1.082,1.082,0,0,1-.748.281h-.5a1.746,1.746,0,0,0-1.209.445,1.442,1.442,0,0,0-.5,1.084v4.6a.834.834,0,0,1-.313.663,1.072,1.072,0,0,1-.739.281h-.026a1.071,1.071,0,0,1-.739-.281.834.834,0,0,1-.313-.663v-4.6a3.232,3.232,0,0,1,1.122-2.434,3.922,3.922,0,0,1,2.714-1.006Z" transform="translate(-811.406 -470.181)" fill="#d81d26"/>
        <path id="Tracé_52" data-name="Tracé 52" d="M892.038,491.075a.809.809,0,0,1,.035.726.944.944,0,0,1-.557.531l-3.2,1.3q-2.462,1-2.888,1.178a2.612,2.612,0,0,0,2.061.749,3.032,3.032,0,0,0,1.687-.492,2.589,2.589,0,0,0,1.035-1.248.981.981,0,0,1,1.009-.64,1.043,1.043,0,0,1,.861.406.825.825,0,0,1,.2.523.885.885,0,0,1-.07.335,4.377,4.377,0,0,1-1.8,2.154,5.235,5.235,0,0,1-2.922.85,5.116,5.116,0,0,1-3.54-1.319,4.165,4.165,0,0,1,0-6.351,5.117,5.117,0,0,1,3.54-1.319,5.25,5.25,0,0,1,2.731.733A4.549,4.549,0,0,1,892.038,491.075Zm-4.549-.694a2.953,2.953,0,0,0-2.044.757,2.385,2.385,0,0,0-.835,1.834v.055l4.862-1.958A2.6,2.6,0,0,0,887.489,490.38Z" transform="translate(-846.33 -470.181)" fill="#d81d26"/>
        <path id="Tracé_53" data-name="Tracé 53" d="M959.849,490.365a.928.928,0,0,0-.644.234.761.761,0,0,0-.261.577.751.751,0,0,0,.5.7,12.909,12.909,0,0,0,1.453.39,3.87,3.87,0,0,1,1.539.694,2.182,2.182,0,0,1,.722,1.756,2.512,2.512,0,0,1-.887,1.927,3.124,3.124,0,0,1-2.148.8h-2.27a1.071,1.071,0,0,1-.739-.281.834.834,0,0,1-.313-.663v-.016a.872.872,0,0,1,.313-.671,1.071,1.071,0,0,1,.739-.281h2.357a.929.929,0,0,0,.644-.234.746.746,0,0,0,.261-.577.7.7,0,0,0-.5-.647q-.131-.054-1.461-.39a3.793,3.793,0,0,1-1.54-.718,2.248,2.248,0,0,1-.722-1.787,2.488,2.488,0,0,1,.887-1.919,3.107,3.107,0,0,1,2.148-.8h1.6a1.082,1.082,0,0,1,.748.281.872.872,0,0,1,.313.671v.016a.834.834,0,0,1-.313.663,1.082,1.082,0,0,1-.748.281Z" transform="translate(-909.635 -470.181)" fill="#d81d26"/>
        <path id="Tracé_54" data-name="Tracé 54" d="M1009.77,490.365a.928.928,0,0,0-.644.234.761.761,0,0,0-.261.577.751.751,0,0,0,.5.7,12.888,12.888,0,0,0,1.452.39,3.869,3.869,0,0,1,1.54.694,2.182,2.182,0,0,1,.722,1.756,2.512,2.512,0,0,1-.887,1.927,3.125,3.125,0,0,1-2.148.8h-2.27a1.071,1.071,0,0,1-.739-.281.834.834,0,0,1-.313-.663v-.016a.872.872,0,0,1,.313-.671,1.071,1.071,0,0,1,.739-.281h2.357a.929.929,0,0,0,.644-.234.745.745,0,0,0,.261-.577.7.7,0,0,0-.5-.647q-.131-.054-1.461-.39a3.794,3.794,0,0,1-1.54-.718,2.248,2.248,0,0,1-.722-1.787,2.488,2.488,0,0,1,.887-1.919,3.107,3.107,0,0,1,2.148-.8h1.6a1.082,1.082,0,0,1,.748.281.872.872,0,0,1,.313.671v.016a.834.834,0,0,1-.313.663,1.082,1.082,0,0,1-.748.281Z" transform="translate(-952.154 -470.181)" fill="#d81d26"/>
      </g>
    </g>
    <path id="Tracé_55" data-name="Tracé 55" d="M444.706,407.4l1.864,3.125a1.251,1.251,0,0,1,0,1.694l-2.711,4.82s-.81,1.939,1.073,2.128h3.6s.725.071,1.3-1.257l3.347-5.9a1.2,1.2,0,0,0,0-1.384l-2.57-4.222s-.24-.8-1.5-.749l-3.205,0S444.226,405.959,444.706,407.4Z" transform="translate(0 -34.437)" fill="#828186"/>
    <path id="Tracé_56" data-name="Tracé 56" d="M507.767,400.958,502.95,392.4a1.506,1.506,0,0,1,.007-1.489l7.885-13.721a1.507,1.507,0,0,1,1.317-.756l2.99.019a1.506,1.506,0,0,1,1.3,2.256l-7.029,12.23a1.506,1.506,0,0,0-.007,1.488l3.92,6.856A1.528,1.528,0,0,1,512,401.575h-3.18A1.21,1.21,0,0,1,507.767,400.958Z" transform="translate(-50.312 -9.552)" fill="#d32333"/>
  </g>
</svg>
