<svg xmlns="http://www.w3.org/2000/svg" width="110.941" height="35" viewBox="0 0 110.941 35">
  <g id="logo" transform="translate(0.041)">
    <g id="XMLID_1_">
      <g id="Groupe_1" data-name="Groupe 1">
        <path id="XMLID_256_" d="M42.1,0a1.136,1.136,0,0,1,.8.3,1.234,1.234,0,0,1,.4.8V5.9h5.5V1.1a.909.909,0,0,1,.4-.8,1.222,1.222,0,0,1,.9-.3h0a1.136,1.136,0,0,1,.8.3,1.234,1.234,0,0,1,.4.8V12.9a.909.909,0,0,1-.4.8,1.136,1.136,0,0,1-.8.3h0a1.136,1.136,0,0,1-.8-.3,1.234,1.234,0,0,1-.4-.8V8.1H43.4v4.8a.909.909,0,0,1-.4.8,1.136,1.136,0,0,1-.8.3h0a1.136,1.136,0,0,1-.8-.3,1.234,1.234,0,0,1-.4-.8V1.1a.909.909,0,0,1,.4-.8c.1-.2.3-.3.7-.3Z" fill="#fff"/>
        <path id="XMLID_253_" d="M63.2,5.2a4.75,4.75,0,0,1,1.7,3.6v4.1a.909.909,0,0,1-.4.8,1.135,1.135,0,0,1-.8.3h0a1.136,1.136,0,0,1-.8-.3,1.234,1.234,0,0,1-.4-.8A4.859,4.859,0,0,1,59.2,14a6.1,6.1,0,0,1-4.1-1.5,4.662,4.662,0,0,1,0-7.2,5.925,5.925,0,0,1,4.1-1.5A5.335,5.335,0,0,1,63.2,5.2ZM56.8,6.7a2.989,2.989,0,0,0-1,2.1,2.643,2.643,0,0,0,1,2.1,3.389,3.389,0,0,0,4.6,0,2.989,2.989,0,0,0,1-2.1,2.643,2.643,0,0,0-1-2.1,3.168,3.168,0,0,0-2.3-.9A4.3,4.3,0,0,0,56.8,6.7Z" fill="#fff"/>
        <path id="XMLID_251_" d="M68.5,0a1.136,1.136,0,0,1,.8.3,1.235,1.235,0,0,1,.4.8V12.9a.909.909,0,0,1-.4.8,1.135,1.135,0,0,1-.8.3h0a1.136,1.136,0,0,1-.8-.3,1.235,1.235,0,0,1-.4-.8V1.1a.909.909,0,0,1,.4-.8,1.136,1.136,0,0,1,.8-.3Z" fill="#fff"/>
        <path id="XMLID_248_" d="M82,5.2a4.75,4.75,0,0,1,1.7,3.6v4.1a.909.909,0,0,1-.4.8,1.135,1.135,0,0,1-.8.3h0a1.136,1.136,0,0,1-.8-.3,1.235,1.235,0,0,1-.4-.8A4.859,4.859,0,0,1,78,14a6.1,6.1,0,0,1-4.1-1.5,4.662,4.662,0,0,1,0-7.2A5.925,5.925,0,0,1,78,3.8,5.476,5.476,0,0,1,82,5.2ZM75.6,6.7a2.989,2.989,0,0,0-1,2.1,2.643,2.643,0,0,0,1,2.1,3.389,3.389,0,0,0,4.6,0,2.989,2.989,0,0,0,1-2.1,2.643,2.643,0,0,0-1-2.1,3.168,3.168,0,0,0-2.3-.9A4.3,4.3,0,0,0,75.6,6.7Z" fill="#fff"/>
        <path id="XMLID_246_" d="M87.3,0a1.136,1.136,0,0,1,.8.3,1.235,1.235,0,0,1,.4.8V12.9a.909.909,0,0,1-.4.8,1.135,1.135,0,0,1-.8.3h0a1.136,1.136,0,0,1-.8-.3,1.235,1.235,0,0,1-.4-.8V1.1a.909.909,0,0,1,.4-.8.984.984,0,0,1,.8-.3Z" fill="#fff"/>
        <path id="XMLID_244_" d="M43.3,23.2h4.8a1.136,1.136,0,0,1,.8.3,1.234,1.234,0,0,1,.4.8h0a.909.909,0,0,1-.4.8,1.135,1.135,0,0,1-.8.3H43.3V28a1.032,1.032,0,0,0,1.1,1.1H48a1.136,1.136,0,0,1,.8.3,1.234,1.234,0,0,1,.4.8h0a.909.909,0,0,1-.4.8,1.135,1.135,0,0,1-.8.3H44.4a3.541,3.541,0,0,1-2.6-1A2.99,2.99,0,0,1,40.7,28V20.5a2.99,2.99,0,0,1,1.1-2.3,4,4,0,0,1,2.6-1H48a1.136,1.136,0,0,1,.8.3,1.234,1.234,0,0,1,.4.8h0a.909.909,0,0,1-.4.8,1.135,1.135,0,0,1-.8.3H44.4a1.032,1.032,0,0,0-1.1,1.1Z" fill="#fff"/>
        <path id="XMLID_242_" d="M53.1,22.9a1.8,1.8,0,0,0,.7,1.5,2.708,2.708,0,0,0,3.4,0,1.8,1.8,0,0,0,.7-1.5v-.8a.909.909,0,0,1,.4-.8,1.222,1.222,0,0,1,.9-.3h0a1.136,1.136,0,0,1,.8.3,1.234,1.234,0,0,1,.4.8v.8a3.531,3.531,0,0,1-1.6,3.2,3.531,3.531,0,0,1,1.6,3.2v.9a.909.909,0,0,1-.4.8,1.135,1.135,0,0,1-.8.3h0a1.613,1.613,0,0,1-.9-.3,1.234,1.234,0,0,1-.4-.8v-.9a1.8,1.8,0,0,0-.7-1.5,2.708,2.708,0,0,0-3.4,0,1.8,1.8,0,0,0-.7,1.5v.9a.909.909,0,0,1-.4.8,1.135,1.135,0,0,1-.8.3h0a1.136,1.136,0,0,1-.8-.3,1.234,1.234,0,0,1-.4-.8v-.9a3.531,3.531,0,0,1,1.6-3.2,3.531,3.531,0,0,1-1.6-3.2v-.8a.909.909,0,0,1,.4-.8,1.135,1.135,0,0,1,.8-.3h0a1.136,1.136,0,0,1,.8.3,1.234,1.234,0,0,1,.4.8Z" fill="#fff"/>
        <path id="XMLID_239_" d="M63.4,35a1.135,1.135,0,0,1-.8-.3,1.234,1.234,0,0,1-.4-.8V26.1a4.75,4.75,0,0,1,1.7-3.6A5.925,5.925,0,0,1,68,21a6.1,6.1,0,0,1,4.1,1.5,4.662,4.662,0,0,1,0,7.2A5.925,5.925,0,0,1,68,31.2a5,5,0,0,1-3.3-.9v3.5a1.033,1.033,0,0,1-.4.8,1.086,1.086,0,0,1-.9.4Zm6.9-6.8a2.989,2.989,0,0,0,1-2.1,2.643,2.643,0,0,0-1-2.1,3.389,3.389,0,0,0-4.6,0,2.989,2.989,0,0,0-1,2.1,2.643,2.643,0,0,0,1,2.1,3.168,3.168,0,0,0,2.3.9A3.337,3.337,0,0,0,70.3,28.2Z" fill="#fff"/>
        <path id="XMLID_237_" d="M80.4,21a1.613,1.613,0,0,1,.9.3,1.136,1.136,0,0,1,.3.8h0a1.135,1.135,0,0,1-.3.8,1.222,1.222,0,0,1-.9.3h-.6a2.389,2.389,0,0,0-1.4.5,1.563,1.563,0,0,0-.6,1.2v5.3a.909.909,0,0,1-.4.8,1.135,1.135,0,0,1-.8.3h0a1.136,1.136,0,0,1-.8-.3,1.235,1.235,0,0,1-.4-.8V24.9a3.545,3.545,0,0,1,1.3-2.8,4.471,4.471,0,0,1,3.1-1.2h.6Z" fill="#fff"/>
        <path id="XMLID_234_" d="M93.4,24a.749.749,0,0,1,.1.5.6.6,0,0,1-.1.4.9.9,0,0,1-.6.6c-.9.4-2.2.9-3.7,1.5-1.9.8-3,1.2-3.3,1.4a2.953,2.953,0,0,0,2.4.9,3.077,3.077,0,0,0,1.9-.6,2.689,2.689,0,0,0,1.2-1.4,1.132,1.132,0,0,1,1.2-.7,1.389,1.389,0,0,1,1,.5.735.735,0,0,1,.2.6.6.6,0,0,1-.1.4,5.562,5.562,0,0,1-2.1,2.5,5.676,5.676,0,0,1-3.4,1A6.1,6.1,0,0,1,84,30.1a4.662,4.662,0,0,1,0-7.2,5.925,5.925,0,0,1,4.1-1.5,6.5,6.5,0,0,1,3.1.8A3.3,3.3,0,0,1,93.4,24Zm-5.3-.8a3.168,3.168,0,0,0-2.3.9,2.989,2.989,0,0,0-1,2.1v.1l5.6-2.2A2.736,2.736,0,0,0,88.1,23.2Z" fill="#fff"/>
        <path id="XMLID_232_" d="M98.5,23.2a1.025,1.025,0,0,0-1,1c0,.4.2.6.6.8a7.979,7.979,0,0,0,1.7.4,5.066,5.066,0,0,1,1.8.8,2.319,2.319,0,0,1,.8,2,2.7,2.7,0,0,1-1,2.2,3.656,3.656,0,0,1-2.5.9H96.3a1.136,1.136,0,0,1-.8-.3,1.235,1.235,0,0,1-.4-.8h0a.909.909,0,0,1,.4-.8,1.135,1.135,0,0,1,.8-.3H99a1.025,1.025,0,0,0,1-1,.73.73,0,0,0-.6-.7c-.1,0-.7-.2-1.7-.4a5.066,5.066,0,0,1-1.8-.8,2.52,2.52,0,0,1-.8-2.1,2.7,2.7,0,0,1,1-2.2,3.656,3.656,0,0,1,2.5-.9h1.8a1.613,1.613,0,0,1,.9.3,1.235,1.235,0,0,1,.4.8h0a.909.909,0,0,1-.4.8,1.222,1.222,0,0,1-.9.3H98.5Z" fill="#fff"/>
        <path id="XMLID_230_" d="M107,23.2a1.025,1.025,0,0,0-1,1c0,.4.2.6.6.8a7.979,7.979,0,0,0,1.7.4,5.066,5.066,0,0,1,1.8.8,2.319,2.319,0,0,1,.8,2,2.7,2.7,0,0,1-1,2.2,3.656,3.656,0,0,1-2.5.9h-2.6a1.136,1.136,0,0,1-.8-.3,1.235,1.235,0,0,1-.4-.8h0a.909.909,0,0,1,.4-.8,1.135,1.135,0,0,1,.8-.3h2.7a1.025,1.025,0,0,0,1-1,.73.73,0,0,0-.6-.7c-.1,0-.7-.2-1.7-.4a5.066,5.066,0,0,1-1.8-.8,2.52,2.52,0,0,1-.8-2.1,2.7,2.7,0,0,1,1-2.2,3.656,3.656,0,0,1,2.5-.9h1.8a1.613,1.613,0,0,1,.9.3,1.235,1.235,0,0,1,.4.8h0a.909.909,0,0,1-.4.8,1.222,1.222,0,0,1-.9.3H107Z" fill="#fff"/>
      </g>
    </g>
    <path id="XMLID_17_" d="M1.3,9.1l2.4,4.1a1.562,1.562,0,0,1,0,2.2L.2,21.7s-1.1,2.5,1.4,2.8H6.3s.9.1,1.7-1.6l4.4-7.7a1.589,1.589,0,0,0,0-1.8L9,7.8s-.3-1-2-1H2.8C2.9,6.8.7,7.2,1.3,9.1Z" fill="#fff"/>
    <path id="XMLID_41_" d="M18,33.1,11.7,22a2.118,2.118,0,0,1,0-1.9L22,2.1a2.062,2.062,0,0,1,1.7-1h3.9A1.953,1.953,0,0,1,29.3,4L20.1,20a2.118,2.118,0,0,0,0,1.9l5.1,8.9a2,2,0,0,1-1.7,3H19.4A1.274,1.274,0,0,1,18,33.1Z" fill="#fff"/>
  </g>
</svg>
