<svg xmlns="http://www.w3.org/2000/svg" width="135.914" height="131.364" viewBox="0 0 135.914 131.364">
  <path id="Tracé_663" data-name="Tracé 663" d="M-25.894,312.219V209.425a79.235,79.235,0,0,0-56.429-23.57,79.576,79.576,0,0,0-79.485,79.485c0,15.246,6.1,33.479,14.914,51.879h116A5,5,0,0,0-25.894,312.219Zm-32.447-23.606a33.812,33.812,0,0,1-23.982,9.918,33.806,33.806,0,0,1-23.981-9.918,33.952,33.952,0,0,1,0-47.963,33.685,33.685,0,0,1,23.981-9.934,33.7,33.7,0,0,1,23.982,9.934A33.952,33.952,0,0,1-58.341,288.613Z" transform="translate(161.808 -185.855)" fill="#f2f2f2"/>
</svg>
