<?xml version="1.0" encoding="utf-8"?>
<!-- Generator: Adobe Illustrator 25.1.0, SVG Export Plug-In . SVG Version: 6.00 Build 0)  -->
<!DOCTYPE svg PUBLIC "-//W3C//DTD SVG 1.1//EN" "http://www.w3.org/Graphics/SVG/1.1/DTD/svg11.dtd" [
	<!ENTITY ns_extend "http://ns.adobe.com/Extensibility/1.0/">
	<!ENTITY ns_ai "http://ns.adobe.com/AdobeIllustrator/10.0/">
	<!ENTITY ns_graphs "http://ns.adobe.com/Graphs/1.0/">
	<!ENTITY ns_vars "http://ns.adobe.com/Variables/1.0/">
	<!ENTITY ns_imrep "http://ns.adobe.com/ImageReplacement/1.0/">
	<!ENTITY ns_sfw "http://ns.adobe.com/SaveForWeb/1.0/">
	<!ENTITY ns_custom "http://ns.adobe.com/GenericCustomNamespace/1.0/">
	<!ENTITY ns_adobe_xpath "http://ns.adobe.com/XPath/1.0/">
]>
<svg version="1.1" id="Laag_1" xmlns:x="&ns_extend;" xmlns:i="&ns_ai;" xmlns:graph="&ns_graphs;"
	 xmlns="http://www.w3.org/2000/svg" xmlns:xlink="http://www.w3.org/1999/xlink" x="0px" y="0px" width="77.1px" height="46.2px"
	 viewBox="0 0 77.1 46.2" enable-background="new 0 0 77.1 46.2" xml:space="preserve">
<metadata>
	<sfw  xmlns="&ns_sfw;">
		<slices></slices>
		<sliceSourceBounds  bottomLeftOrigin="true" height="16385.5" width="16383" x="-8141" y="-8203.8"></sliceSourceBounds>
	</sfw>
</metadata>
<path opacity="0.5" fill="#FFFFFF" d="M72.5,46.2H4.6c-2.5,0-4.6-2.1-4.6-4.6V4.6C0,2.1,2.1,0,4.6,0h67.9c2.5,0,4.6,2.1,4.6,4.6
	v37.1C77.1,44.2,75,46.2,72.5,46.2z"/>
<g>
	<g>
		<path fill="#044F91" d="M53.1,14.1h-1.7h-8.1h-1.7l-1.2,1.3l-3.8,4.3l0,0l-1.2,1.3h-1.7h-7.9H24l1.2-1.3l0.5-0.6l1.2-1.3h-1.7
			h-2.2h-1.3c-1,0-1.7,0.8-1.7,1.8l0,0V23v0.3c0,1,0.8,1.8,1.7,1.8h0.5h18.3h1.3c1,0,2.3-0.6,2.9-1.3l3-3.5L53.1,14.1z"/>
		<path fill="#FFDD08" d="M55.4,10.1c1,0,1.7,0.8,1.7,1.8v3.8c0,1-0.8,1.8-1.7,1.8h-0.9h-2.6h-1.7l1.2-1.3l0,0l0.6-0.7l1.2-1.3H41.6
			l-6.2,6.9H24l8.2-9.3l0.3-0.4c0.6-0.7,2-1.3,2.9-1.3h0.4L55.4,10.1L55.4,10.1z"/>
	</g>
	<path fill="#044F91" d="M64,35.9v-0.7c0-0.1-0.1-0.2-0.2-0.2h-0.5c-0.1,0-0.2,0-0.3-0.1c0-0.1,0-0.2,0-0.4v-2.8h0.8
		c0.1,0,0.1,0,0.1-0.1c0,0,0.1-0.1,0.1-0.1v-0.8c0-0.1,0-0.1-0.1-0.1c0,0-0.1-0.1-0.1-0.1H63v-1c0-0.1,0-0.1,0-0.1c0,0-0.1,0-0.1,0
		h0l-1.2,0.2c-0.1,0-0.1,0-0.1,0.1c0,0-0.1,0.1-0.1,0.1v0.8h-0.8c-0.1,0-0.1,0-0.1,0.1s-0.1,0.1-0.1,0.1v0.6c0,0.1,0,0.1,0.1,0.1
		c0,0,0.1,0.1,0.1,0.1l0.8,0.1v2.8c0,0.3,0,0.6,0.1,0.8c0.1,0.2,0.2,0.4,0.3,0.5c0.1,0.1,0.3,0.2,0.5,0.2c0.2,0,0.4,0.1,0.7,0.1
		c0.1,0,0.3,0,0.4,0c0.1,0,0.2,0,0.4-0.1C64,36.1,64,36,64,35.9 M59.8,35.8v-0.9c0-0.1,0-0.1-0.1-0.1c0,0-0.1,0-0.1,0h0
		c-0.2,0-0.4,0-0.5,0c-0.2,0-0.4,0-0.7,0c-0.1,0-0.2,0-0.3-0.1c-0.1,0-0.2-0.1-0.3-0.2c-0.1-0.1-0.1-0.2-0.2-0.3
		c0-0.1-0.1-0.3-0.1-0.5v-0.8c0-0.2,0-0.4,0.1-0.5c0-0.1,0.1-0.3,0.2-0.3c0.1-0.1,0.2-0.1,0.3-0.2c0.1,0,0.2-0.1,0.3-0.1
		c0.3,0,0.5,0,0.7,0c0.2,0,0.3,0,0.5,0h0c0.1,0,0.1,0,0.1,0c0,0,0.1-0.1,0.1-0.1v-0.9c0-0.1,0-0.1,0-0.1c0,0-0.1-0.1-0.2-0.1
		c-0.1,0-0.3-0.1-0.5-0.1c-0.2,0-0.5,0-0.8,0c-0.7,0-1.2,0.2-1.7,0.6c-0.4,0.4-0.6,1-0.6,1.8v0.8c0,0.8,0.2,1.4,0.6,1.8
		c0.4,0.4,1,0.6,1.7,0.6c0.3,0,0.5,0,0.8,0c0.2,0,0.4-0.1,0.5-0.1c0.1,0,0.1,0,0.2-0.1C59.8,35.9,59.8,35.9,59.8,35.8 M53.5,34.8
		c-0.1,0.1-0.2,0.1-0.4,0.1C53,35,52.9,35,52.7,35c-0.2,0-0.4,0-0.5-0.1c-0.1-0.1-0.1-0.2-0.1-0.4v-0.1c0-0.1,0-0.2,0-0.3
		c0-0.1,0.1-0.2,0.1-0.2s0.2-0.1,0.3-0.1c0.1,0,0.2,0,0.4,0h0.5V34.8z M55.1,32.4c0-0.4-0.1-0.7-0.2-0.9c-0.1-0.2-0.3-0.4-0.4-0.6
		c-0.2-0.2-0.4-0.3-0.7-0.3c-0.3-0.1-0.6-0.1-0.9-0.1c-0.3,0-0.6,0-0.9,0.1s-0.5,0.1-0.7,0.1c-0.1,0-0.2,0.1-0.2,0.2v0.8
		c0,0.1,0,0.1,0,0.1c0,0,0.1,0,0.1,0h0c0.1,0,0.2,0,0.3,0c0.1,0,0.2,0,0.4,0c0.1,0,0.3,0,0.5,0c0.2,0,0.3,0,0.5,0
		c0.2,0,0.4,0,0.5,0.1c0.1,0.1,0.2,0.3,0.2,0.5v0.3h-0.5c-0.8,0-1.5,0.1-1.8,0.4c-0.4,0.3-0.6,0.7-0.6,1.3v0.1c0,0.3,0,0.6,0.1,0.8
		c0.1,0.2,0.2,0.4,0.4,0.5c0.2,0.1,0.3,0.2,0.5,0.3c0.2,0.1,0.4,0.1,0.6,0.1c0.3,0,0.5,0,0.7-0.1c0.2-0.1,0.4-0.2,0.6-0.3v0.2
		c0,0.1,0,0.1,0.1,0.1c0,0,0.1,0.1,0.1,0.1h1.1c0.1,0,0.1,0,0.1-0.1c0,0,0.1-0.1,0.1-0.1L55.1,32.4L55.1,32.4z M49.9,35.9v-0.7
		c0-0.1-0.1-0.2-0.2-0.2h-0.5c-0.1,0-0.2,0-0.3-0.1c0-0.1,0-0.2,0-0.4v-2.8h0.8c0.1,0,0.1,0,0.1-0.1c0,0,0.1-0.1,0.1-0.1v-0.8
		c0-0.1,0-0.1-0.1-0.1c0,0-0.1-0.1-0.1-0.1h-0.8v-1c0-0.1,0-0.1,0-0.1c0,0-0.1,0-0.1,0h0l-1.2,0.2c-0.1,0-0.1,0-0.1,0.1
		c0,0-0.1,0.1-0.1,0.1v0.8h-0.8c-0.1,0-0.1,0-0.1,0.1c0,0-0.1,0.1-0.1,0.1v0.6c0,0.1,0,0.1,0.1,0.1c0,0,0.1,0.1,0.1,0.1l0.8,0.1v2.8
		c0,0.3,0,0.6,0.1,0.8c0.1,0.2,0.2,0.4,0.3,0.5c0.1,0.1,0.3,0.2,0.5,0.2s0.4,0.1,0.7,0.1c0.1,0,0.3,0,0.4,0c0.1,0,0.2,0,0.4-0.1
		C49.8,36.1,49.9,36,49.9,35.9 M45.6,35.9v-3.2c0-0.3,0-0.6-0.1-0.9c0-0.3-0.1-0.5-0.3-0.7s-0.3-0.4-0.5-0.5
		c-0.2-0.1-0.5-0.2-0.9-0.2c-0.3,0-0.6,0-0.8,0.1c-0.2,0.1-0.5,0.2-0.8,0.4v-0.2c0-0.1,0-0.1-0.1-0.1c0,0-0.1-0.1-0.1-0.1H41
		c-0.1,0-0.1,0-0.1,0.1c0,0-0.1,0.1-0.1,0.1v5.2c0,0.1,0,0.1,0.1,0.1c0,0,0.1,0.1,0.1,0.1h1.2c0.1,0,0.1,0,0.1-0.1
		c0,0,0.1-0.1,0.1-0.1v-3.8c0.2-0.1,0.3-0.2,0.5-0.2c0.1-0.1,0.3-0.1,0.4-0.1c0.1,0,0.3,0,0.4,0c0.1,0,0.2,0.1,0.2,0.1
		C44,32,44,32.1,44,32.2c0,0.1,0,0.3,0,0.4v3.2c0,0.1,0,0.1,0.1,0.1c0,0,0.1,0.1,0.1,0.1h1.2c0.1,0,0.1,0,0.1-0.1
		C45.6,36,45.6,35.9,45.6,35.9 M38.3,33.7c0,0.8-0.3,1.2-0.9,1.2c-0.3,0-0.5-0.1-0.6-0.3c-0.1-0.2-0.2-0.5-0.2-0.9V33
		c0-0.4,0.1-0.7,0.2-0.9c0.1-0.2,0.4-0.3,0.6-0.3c0.6,0,0.9,0.4,0.9,1.2V33.7z M39.9,33c0-0.4-0.1-0.7-0.2-1s-0.3-0.6-0.5-0.8
		c-0.2-0.2-0.5-0.4-0.8-0.5c-0.3-0.1-0.6-0.2-1-0.2c-0.4,0-0.7,0.1-1,0.2c-0.3,0.1-0.6,0.3-0.8,0.5c-0.2,0.2-0.4,0.5-0.5,0.8
		C35,32.2,35,32.6,35,33v0.7c0,0.4,0.1,0.7,0.2,1c0.1,0.3,0.3,0.6,0.5,0.8c0.2,0.2,0.5,0.4,0.8,0.5s0.6,0.2,1,0.2
		c0.4,0,0.7-0.1,1-0.2c0.3-0.1,0.6-0.3,0.8-0.5c0.2-0.2,0.4-0.5,0.5-0.8s0.2-0.7,0.2-1V33z M34.4,35.8v-0.9c0-0.1,0-0.1-0.1-0.1
		c0,0-0.1,0-0.1,0h0c-0.2,0-0.4,0-0.5,0s-0.4,0-0.7,0c-0.1,0-0.2,0-0.3-0.1c-0.1,0-0.2-0.1-0.3-0.2c-0.1-0.1-0.1-0.2-0.2-0.3
		c0-0.1-0.1-0.3-0.1-0.5v-0.8c0-0.2,0-0.4,0.1-0.5c0-0.1,0.1-0.3,0.2-0.3c0.1-0.1,0.2-0.1,0.3-0.2s0.2-0.1,0.3-0.1
		c0.3,0,0.5,0,0.7,0c0.2,0,0.3,0,0.5,0h0c0.1,0,0.1,0,0.1,0c0,0,0.1-0.1,0.1-0.1v-0.9c0-0.1,0-0.1,0-0.1c0,0-0.1-0.1-0.2-0.1
		c-0.1,0-0.3-0.1-0.5-0.1c-0.2,0-0.5,0-0.8,0c-0.7,0-1.2,0.2-1.7,0.6c-0.4,0.4-0.6,1-0.6,1.8v0.8c0,0.8,0.2,1.4,0.6,1.8
		c0.4,0.4,1,0.6,1.7,0.6c0.3,0,0.5,0,0.8,0c0.2,0,0.4-0.1,0.5-0.1c0.1,0,0.1,0,0.2-0.1C34.4,35.9,34.4,35.9,34.4,35.8 M29.7,35.9
		v-3.2c0-0.3,0-0.6-0.1-0.9c0-0.3-0.1-0.5-0.3-0.7c-0.1-0.2-0.3-0.4-0.5-0.5c-0.2-0.1-0.5-0.2-0.9-0.2c-0.3,0-0.6,0-0.8,0.1
		c-0.2,0.1-0.5,0.2-0.8,0.4v-0.2c0-0.1,0-0.1-0.1-0.1c0,0-0.1-0.1-0.1-0.1h-1.1c-0.1,0-0.1,0-0.1,0.1c0,0-0.1,0.1-0.1,0.1v5.2
		c0,0.1,0,0.1,0.1,0.1c0,0,0.1,0.1,0.1,0.1h1.2c0.1,0,0.1,0,0.1-0.1c0,0,0.1-0.1,0.1-0.1v-3.8c0.2-0.1,0.3-0.2,0.5-0.2
		c0.1-0.1,0.3-0.1,0.4-0.1c0.1,0,0.3,0,0.4,0c0.1,0,0.2,0.1,0.2,0.1C28,32,28,32.1,28,32.2c0,0.1,0,0.3,0,0.4v3.2
		c0,0.1,0,0.1,0.1,0.1c0,0,0.1,0.1,0.1,0.1h1.2c0.1,0,0.1,0,0.1-0.1C29.6,36,29.7,35.9,29.7,35.9 M22.2,34.8
		c-0.1,0.1-0.2,0.1-0.4,0.1c-0.1,0-0.3,0.1-0.4,0.1c-0.2,0-0.4,0-0.5-0.1c-0.1-0.1-0.1-0.2-0.1-0.4v-0.1c0-0.1,0-0.2,0-0.3
		c0-0.1,0.1-0.2,0.1-0.2c0.1-0.1,0.2-0.1,0.3-0.1c0.1,0,0.2,0,0.4,0h0.5C22.2,33.7,22.2,34.8,22.2,34.8z M23.7,32.4
		c0-0.4-0.1-0.7-0.2-0.9c-0.1-0.2-0.3-0.4-0.4-0.6c-0.2-0.2-0.4-0.3-0.7-0.3c-0.3-0.1-0.6-0.1-0.9-0.1c-0.3,0-0.6,0-0.9,0.1
		s-0.5,0.1-0.7,0.1c-0.1,0-0.2,0.1-0.2,0.2v0.8c0,0.1,0,0.1,0,0.1c0,0,0.1,0,0.1,0h0c0.1,0,0.2,0,0.3,0c0.1,0,0.2,0,0.4,0
		c0.1,0,0.3,0,0.5,0c0.2,0,0.3,0,0.5,0c0.2,0,0.4,0,0.5,0.1c0.1,0.1,0.2,0.3,0.2,0.5v0.3h-0.5c-0.8,0-1.5,0.1-1.8,0.4
		c-0.4,0.3-0.6,0.7-0.6,1.3v0.1c0,0.3,0,0.6,0.1,0.8c0.1,0.2,0.2,0.4,0.4,0.5c0.2,0.1,0.3,0.2,0.5,0.3c0.2,0.1,0.4,0.1,0.6,0.1
		c0.3,0,0.5,0,0.7-0.1c0.2-0.1,0.4-0.2,0.6-0.3v0.2c0,0.1,0,0.1,0.1,0.1c0,0,0.1,0.1,0.1,0.1h1.1c0.1,0,0.1,0,0.1-0.1
		c0,0,0.1-0.1,0.1-0.1L23.7,32.4L23.7,32.4z M16.8,34c0,0.3-0.1,0.5-0.3,0.6c-0.2,0.1-0.5,0.2-1,0.2h-0.2c-0.1,0-0.2,0-0.2,0
		c-0.1,0-0.2,0-0.2,0h-0.2V33h1.1c0.4,0,0.7,0.1,0.8,0.3c0.1,0.2,0.2,0.4,0.2,0.6V34z M16.7,31.1c0,0.1,0,0.2,0,0.3
		c0,0.1-0.1,0.2-0.2,0.2s-0.2,0.1-0.3,0.2c-0.1,0-0.3,0.1-0.5,0.1h-1.1v-1.7c0,0,0.1,0,0.1,0s0.1,0,0.2,0h0.2h0.2
		c0.5,0,0.8,0.1,1,0.2c0.2,0.1,0.3,0.3,0.3,0.6L16.7,31.1L16.7,31.1z M18.4,33.9c0-0.3-0.1-0.6-0.2-0.9c-0.2-0.2-0.4-0.4-0.6-0.6
		c0.3-0.1,0.5-0.3,0.6-0.6c0.1-0.3,0.2-0.5,0.2-0.8v-0.2c0-0.4-0.1-0.7-0.2-1s-0.4-0.5-0.6-0.6c-0.3-0.2-0.6-0.3-1-0.3
		c-0.4-0.1-0.8-0.1-1.3-0.1c-0.2,0-0.3,0-0.5,0c-0.2,0-0.3,0-0.5,0c-0.2,0-0.3,0-0.4,0c-0.1,0-0.2,0-0.3,0c-0.2,0-0.3,0.1-0.4,0.2
		c-0.1,0.1-0.1,0.2-0.1,0.5v5.9c0,0.2,0,0.4,0.1,0.5c0.1,0.1,0.2,0.1,0.4,0.2c0.1,0,0.2,0,0.3,0c0.1,0,0.3,0,0.4,0
		c0.2,0,0.3,0,0.5,0c0.2,0,0.3,0,0.5,0c0.4,0,0.8,0,1.2-0.1c0.4-0.1,0.7-0.2,1-0.3c0.3-0.2,0.5-0.4,0.7-0.7c0.2-0.3,0.2-0.6,0.2-1.1
		C18.4,34,18.4,33.9,18.4,33.9z"/>
</g>
</svg>
