<svg xmlns="http://www.w3.org/2000/svg" width="31.03" height="29.479" viewBox="0 0 31.03 29.479">
  <g id="butchers_icon2" transform="translate(-20.338 -22.571)">
    <g id="Groupe_271" data-name="Groupe 271" transform="translate(39.939 37.74)">
      <path id="Tracé_552" data-name="Tracé 552" d="M81.464,66.955a6.744,6.744,0,0,1,6.726.354c-3.262,2.508-8.463,3.575-11.429,1.945a16,16,0,0,1,4.7-2.3" transform="translate(-76.76 -66.234)" fill="#d8e0f3"/>
    </g>
    <g id="Groupe_272" data-name="Groupe 272" transform="translate(42.406 40.17)">
      <path id="Tracé_553" data-name="Tracé 553" d="M85.333,73.23s4.839.9,4.03,9.373a10.439,10.439,0,0,1-5.5-6.111" transform="translate(-83.86 -73.23)" fill="#7c97ce"/>
    </g>
    <g id="Groupe_273" data-name="Groupe 273" transform="translate(20.338 22.571)">
      <path id="Tracé_554" data-name="Tracé 554" d="M39.289,25.17a24.645,24.645,0,0,1-9.943,4.572c-.2.042-.41.08-.622.118a9.786,9.786,0,0,0-8.306,10.9c.7,5.68,6.788,9.31,13.458,8.723S42.3,39.468,45.23,34.761s4.5-8.636,3.335-10.38C47.016,22.053,43.976,21.626,39.289,25.17Z" transform="translate(-20.338 -22.571)" fill="#fff1dc"/>
    </g>
    <g id="Groupe_274" data-name="Groupe 274" transform="translate(22.077 24.367)">
      <path id="Tracé_555" data-name="Tracé 555" d="M35.739,51.179c-5.465,0-9.811-3.054-10.328-7.261-.615-4.978,3-8.282,6.889-8.973.226-.038.445-.083.664-.125a26.542,26.542,0,0,0,10.644-4.891c1.949-1.473,3.411-2.189,4.474-2.189.073,0,.146,0,.215.01a2.211,2.211,0,0,1,1.862,2.79,26.139,26.139,0,0,1-3.137,6.677A37.93,37.93,0,0,0,44.681,42c-1.886,4.318-3.839,8.786-7.688,9.123-.417.035-.841.056-1.254.056Z" transform="translate(-25.342 -27.74)" fill="#ca1f33"/>
    </g>
    <g id="Groupe_275" data-name="Groupe 275" transform="translate(20.832 24.381)">
      <path id="Tracé_556" data-name="Tracé 556" d="M51.053,30.118l-1.133-1.7-.427-.639c1,1.7-.688,6.121-3.335,10.38C43.233,42.868,41.475,52.3,34.8,52.88c-5.947.521-11.429-2.307-13.045-6.955h0a11.736,11.736,0,0,0,4.068,6.149,13.831,13.831,0,0,0,10.651,3.314c6.67-.587,8.428-10.012,11.353-14.719C50.577,36.257,52.289,31.667,51.053,30.118Z" transform="translate(-21.76 -27.78)" fill="#ca1f33"/>
    </g>
    <g id="Groupe_276" data-name="Groupe 276" transform="translate(24.935 36.514)">
      <ellipse id="Ellipse_52" data-name="Ellipse 52" cx="2.696" cy="2.335" rx="2.696" ry="2.335" transform="translate(0 3.812) rotate(-45)" fill="#fff1dc"/>
    </g>
  </g>
</svg>
