<svg id="english-language" xmlns="http://www.w3.org/2000/svg" width="17.204" height="13.476" viewBox="0 0 17.204 13.476">
  <path id="Tracé_674" data-name="Tracé 674" d="M13.676,0H3.528A3.532,3.532,0,0,0,0,3.528V9.205a3.532,3.532,0,0,0,3.528,3.528h.524a30.728,30.728,0,0,0,3.246,0h6.378A3.532,3.532,0,0,0,17.2,9.205V3.528A3.532,3.532,0,0,0,13.676,0Zm0,0" fill="#6787f5"/>
  <path id="Tracé_675" data-name="Tracé 675" d="M261.074,0H256V12.733h5.074A3.532,3.532,0,0,0,264.6,9.205V3.528A3.532,3.532,0,0,0,261.074,0Zm0,0" transform="translate(-247.398)" fill="#38478a"/>
  <path id="Tracé_676" data-name="Tracé 676" d="M199.758,379.688l.586-.743Zm0,0" transform="translate(-193.046 -366.212)" fill="#fff"/>
  <path id="Tracé_677" data-name="Tracé 677" d="M17.2,4.142H12.966L16.121.987A3.516,3.516,0,0,0,13.676,0h-.845l-2,2V0H6.376V2l-2-2H3.528A3.516,3.516,0,0,0,1.083.987L4.238,4.142H0V8.593H4.238L1.2,11.629l-.118.118a3.516,3.516,0,0,0,2.444.986h.524l.142.18,2.128-2.128-.035,1.948h4.54v-2l1.99,2h.859a3.516,3.516,0,0,0,2.436-.978l-.119-.119L12.961,8.593H17.2Zm0,0" fill="#fff"/>
  <path id="Tracé_678" data-name="Tracé 678" d="M264.6,4.142h-4.238L263.519.987A3.516,3.516,0,0,0,261.074,0h-.845l-2,2V0H256V12.733h2.226v-2l1.99,2h.859a3.515,3.515,0,0,0,2.436-.978l-.119-.119-3.033-3.043H264.6Zm0,0" transform="translate(-247.398)" fill="#c7d3ed"/>
  <path id="Tracé_679" data-name="Tracé 679" d="M9.82,5.15V0H7.384V5.15H0V7.585H7.384L7.3,12.733H9.82V7.585H17.2V5.15Zm0,0" fill="#ff337a"/>
  <path id="Tracé_680" data-name="Tracé 680" d="M257.218,5.15V0H256V12.733h1.218V7.585H264.6V5.15Zm0,0" transform="translate(-247.398)" fill="#d1005b"/>
  <path id="Tracé_681" data-name="Tracé 681" d="M61.748,5.663V4.95L58.024,1.227a3.5,3.5,0,0,0-1.075.35l4.086,4.086Zm0,0" transform="translate(-55.036 -1.185)" fill="#ff337a"/>
  <path id="Tracé_682" data-name="Tracé 682" d="M317.041,1.577a3.5,3.5,0,0,0-1.075-.35L312.242,4.95v.713h.713Zm0,0" transform="translate(-301.75 -1.185)" fill="#d1005b"/>
  <path id="Tracé_683" data-name="Tracé 683" d="M56.977,249.819a3.5,3.5,0,0,0,1.075.35l3.722-3.723v-.713h-.713Zm0,0" transform="translate(-55.062 -237.477)" fill="#ff337a"/>
  <path id="Tracé_684" data-name="Tracé 684" d="M312.242,245.734v.715l3.71,3.722a3.5,3.5,0,0,0,1.078-.347l-4.077-4.09Zm0,0" transform="translate(-301.75 -237.477)" fill="#d1005b"/>
</svg>
