<svg xmlns="http://www.w3.org/2000/svg" width="42.004" height="32.279" viewBox="0 0 42.004 32.279">
  <g id="fishstores_icon4" transform="translate(-10.105 -22.82)">
    <g id="Groupe_277" data-name="Groupe 277" transform="translate(21.542 31.061)">
      <path id="Tracé_557" data-name="Tracé 557" d="M53.945,46.219A5.152,5.152,0,0,0,49.472,44.4a40.97,40.97,0,0,0-9.443,3.187,3.58,3.58,0,0,0,1.553,3.206" transform="translate(-39.998 -44.359)" fill="#6f87b8"/>
    </g>
    <g id="Groupe_278" data-name="Groupe 278" transform="translate(26.681 51.29)">
      <path id="Tracé_558" data-name="Tracé 558" d="M55.354,97.23a7.064,7.064,0,0,0-1.924,3.807,8.769,8.769,0,0,0,6.332-2.376" transform="translate(-53.43 -97.23)" fill="#7d98ce"/>
    </g>
    <g id="Groupe_279" data-name="Groupe 279" transform="translate(10.105 32.92)">
      <path id="Tracé_559" data-name="Tracé 559" d="M37.662,49.257c-8.479-.708-20.714,8.5-20.714,8.5a12.4,12.4,0,0,0-6.841-2.835A5.247,5.247,0,0,0,13.1,59.35a5.262,5.262,0,0,0-2.988,4.427,12.369,12.369,0,0,0,6.841-2.835s12.236,9.209,20.714,8.5S52.113,61.3,51.922,59.35C52.113,57.4,46.141,49.965,37.662,49.257Z" transform="translate(-10.105 -49.219)" fill="#7d98ce"/>
    </g>
    <g id="Groupe_280" data-name="Groupe 280" transform="translate(48.497 28.506)">
      <circle id="Ellipse_53" data-name="Ellipse 53" cx="1.806" cy="1.806" r="1.806" fill="#e8ecf6"/>
    </g>
    <g id="Groupe_281" data-name="Groupe 281" transform="translate(45.027 22.82)">
      <circle id="Ellipse_54" data-name="Ellipse 54" cx="1.251" cy="1.251" r="1.251" fill="#e8ecf6"/>
    </g>
    <g id="Groupe_282" data-name="Groupe 282" transform="translate(10.105 38.618)">
      <path id="Tracé_560" data-name="Tracé 560" d="M51.922,68.629a23.521,23.521,0,0,1-3.65,3.183,21.2,21.2,0,0,1-17.3,3.359,17.966,17.966,0,0,1-11.7-9.837c-1.442.953-2.326,1.611-2.326,1.611a12.4,12.4,0,0,0-6.841-2.835A5.247,5.247,0,0,0,13.1,68.537a5.262,5.262,0,0,0-2.988,4.427,12.369,12.369,0,0,0,6.841-2.835s12.236,9.209,20.714,8.5C46.03,77.941,51.952,70.691,51.922,68.629Z" transform="translate(-10.105 -64.11)" fill="#6f87b8"/>
    </g>
    <g id="Groupe_283" data-name="Groupe 283" transform="translate(36.17 33.43)">
      <path id="Tracé_561" data-name="Tracé 561" d="M82.439,50.55S78.23,52.75,78.23,60.9s4.209,8.9,4.209,8.9c7.005-1.821,11.715-7.893,11.543-9.623C94.154,58.443,89.448,52.371,82.439,50.55Z" transform="translate(-78.23 -50.55)" fill="#e8ecf6"/>
    </g>
    <g id="Groupe_284" data-name="Groupe 284" transform="translate(41.622 39.788)">
      <path id="Tracé_562" data-name="Tracé 562" d="M93.241,68.692h.1a.6.6,0,0,0,.295-.065.574.574,0,0,0,.245-.157.845.845,0,0,0,.222-.539c-.008-.069-.019-.134-.027-.2a.805.805,0,0,0-.2-.337l-.153-.119a.76.76,0,0,0-.386-.1h-.1a.6.6,0,0,0-.295.065.574.574,0,0,0-.245.157.845.845,0,0,0-.222.539c.008.069.019.134.027.2a.805.805,0,0,0,.2.337l.153.119a.76.76,0,0,0,.386.1Z" transform="translate(-92.479 -67.169)" fill="#7d98ce"/>
    </g>
    <g id="Groupe_285" data-name="Groupe 285" transform="translate(37.536 43.148)">
      <path id="Tracé_563" data-name="Tracé 563" d="M92.536,79.122A22.051,22.051,0,0,1,81.8,83.032a4.656,4.656,0,0,0,2.843,2.449,19.7,19.7,0,0,0,9.447-5.869l.088-.1.2-.237.126-.149c.054-.065.107-.13.157-.2s.1-.126.149-.187.08-.107.119-.157c.057-.077.111-.153.165-.226l.08-.115q.1-.138.184-.275c.011-.019.027-.038.038-.057a4.145,4.145,0,0,0,.788-1.959A24.073,24.073,0,0,1,92.536,79.122Z" transform="translate(-81.8 -75.95)" fill="#d8e0f3"/>
    </g>
  </g>
</svg>
