<?xml version="1.0" encoding="utf-8"?>
<!-- Generator: Adobe Illustrator 25.1.0, SVG Export Plug-In . SVG Version: 6.00 Build 0)  -->
<!DOCTYPE svg PUBLIC "-//W3C//DTD SVG 1.1//EN" "http://www.w3.org/Graphics/SVG/1.1/DTD/svg11.dtd" [
	<!ENTITY ns_extend "http://ns.adobe.com/Extensibility/1.0/">
	<!ENTITY ns_ai "http://ns.adobe.com/AdobeIllustrator/10.0/">
	<!ENTITY ns_graphs "http://ns.adobe.com/Graphs/1.0/">
	<!ENTITY ns_vars "http://ns.adobe.com/Variables/1.0/">
	<!ENTITY ns_imrep "http://ns.adobe.com/ImageReplacement/1.0/">
	<!ENTITY ns_sfw "http://ns.adobe.com/SaveForWeb/1.0/">
	<!ENTITY ns_custom "http://ns.adobe.com/GenericCustomNamespace/1.0/">
	<!ENTITY ns_adobe_xpath "http://ns.adobe.com/XPath/1.0/">
]>
<svg version="1.1" id="Laag_1" xmlns:x="&ns_extend;" xmlns:i="&ns_ai;" xmlns:graph="&ns_graphs;"
	 xmlns="http://www.w3.org/2000/svg" xmlns:xlink="http://www.w3.org/1999/xlink" x="0px" y="0px" width="77.1px" height="46.2px"
	 viewBox="0 0 77.1 46.2" enable-background="new 0 0 77.1 46.2" xml:space="preserve">
<metadata>
	<sfw  xmlns="&ns_sfw;">
		<slices></slices>
		<sliceSourceBounds  bottomLeftOrigin="true" height="16385.5" width="16383" x="-8141" y="-8203.8"></sliceSourceBounds>
	</sfw>
</metadata>
<path opacity="0.5" fill="#FFFFFF" d="M72.5,46.2H4.6c-2.5,0-4.6-2.1-4.6-4.6V4.6C0,2.1,2.1,0,4.6,0h67.9c2.5,0,4.6,2.1,4.6,4.6
	v37.1C77.1,44.2,75,46.2,72.5,46.2z"/>
<g>
	<path fill-rule="evenodd" clip-rule="evenodd" fill="#3E9AD5" d="M38.5,33.7c3-2.7,4.7-6.5,4.7-10.6c0-4-1.7-7.9-4.7-10.6
		C36,10.3,32.7,8.9,29,8.9c-7.8,0-14.2,6.4-14.2,14.3c0,7.9,6.3,14.3,14.2,14.3C32.7,37.4,36,36,38.5,33.7z"/>
	<path fill-rule="evenodd" clip-rule="evenodd" fill="#CD2432" d="M48,8.9c-3.7,0-7,1.4-9.5,3.7c-0.5,0.5-1,1-1.4,1.5H40
		c0.4,0.5,0.8,1,1.1,1.5h-5c-0.3,0.5-0.6,1-0.8,1.5h6.6c0.2,0.5,0.4,1,0.6,1.5h-7.8c-0.2,0.5-0.3,1-0.4,1.5h8.7c0.2,1,0.3,2,0.3,3
		c0,1.6-0.3,3.1-0.7,4.5h-7.8c0.2,0.5,0.4,1,0.6,1.5h6.6c-0.2,0.5-0.5,1-0.8,1.5h-5c0.3,0.5,0.7,1,1.1,1.5H40
		c-0.4,0.5-0.9,1-1.4,1.5c2.5,2.3,5.8,3.7,9.5,3.7c7.8,0,14.2-6.4,14.2-14.3C62.2,15.2,55.9,8.9,48,8.9L48,8.9z"/>
	<path fill-rule="evenodd" clip-rule="evenodd" fill="#FFFFFF" d="M57.3,26.2c0-0.3,0.2-0.5,0.5-0.5c0.3,0,0.5,0.2,0.5,0.5
		c0,0.3-0.2,0.5-0.5,0.5C57.5,26.7,57.3,26.5,57.3,26.2z M57.8,26.6c0.2,0,0.3-0.2,0.3-0.3c0-0.2-0.2-0.4-0.3-0.4
		c-0.2,0-0.3,0.2-0.3,0.4C57.4,26.4,57.6,26.6,57.8,26.6z M57.7,26.4L57.7,26.4L57.6,26h0.2c0,0,0.1,0,0.1,0c0,0,0.1,0.1,0.1,0.1
		c0,0,0,0.1-0.1,0.1l0.1,0.2h-0.1l-0.1-0.2h-0.1L57.7,26.4l0-0.2h0.1c0,0,0,0,0.1,0c0,0,0,0,0,0c0,0,0,0,0,0c0,0,0,0-0.1,0h0
		L57.7,26.4L57.7,26.4L57.7,26.4z M27.3,26.7h-1.8l1-5.6l-2.4,5.6h-1.6l-0.3-5.5l-1.1,5.5h-1.6l1.4-7.2h2.7l0.1,4.5l1.9-4.5h2.9
		L27.3,26.7L27.3,26.7z M47,26.6c-0.5,0.1-0.9,0.2-1.3,0.2c-0.9,0-1.4-0.5-1.4-1.3c0-0.2,0-0.3,0.1-0.5l0.1-0.6l0.1-0.5l0.8-4.5h1.8
		l-0.3,1.4h0.9l-0.2,1.4h-0.9l-0.5,2.5c0,0.1,0,0.2,0,0.2c0,0.3,0.2,0.4,0.6,0.4c0.2,0,0.4,0,0.5-0.1L47,26.6L47,26.6z M52.1,20.8
		c-0.1-0.1-0.2-0.1-0.2-0.1c-0.1,0-0.1,0-0.2,0c-0.1,0-0.1,0-0.2,0c-0.6,0-1,0.3-1.5,1l0.2-0.9h-1.6l-1.1,5.9h1.8
		c0.6-3.6,0.9-4.2,1.7-4.2c0.1,0,0.1,0,0.2,0l0.2,0L52.1,20.8L52.1,20.8z M40,22.7c0,0.7,0.4,1.3,1.4,1.6c0.7,0.3,0.8,0.4,0.8,0.6
		c0,0.4-0.3,0.5-1,0.5c-0.5,0-1-0.1-1.6-0.2l-0.2,1.4l0.1,0l0.3,0.1c0.1,0,0.3,0,0.5,0.1c0.4,0,0.8,0,1,0c1.9,0,2.7-0.6,2.7-2
		c0-0.8-0.4-1.3-1.3-1.6c-0.7-0.3-0.8-0.4-0.8-0.6c0-0.3,0.3-0.5,0.9-0.5c0.4,0,0.8,0,1.3,0.1l0.3-1.4c-0.5-0.1-1.2-0.1-1.6-0.1
		C40.7,20.7,40,21.6,40,22.7z M33,26.7h-1.5l0-0.6c-0.4,0.5-1,0.7-1.8,0.7c-1,0-1.6-0.7-1.6-1.6c0-1.4,1.1-2.3,3.1-2.3
		c0.2,0,0.5,0,0.7,0c0.1-0.2,0.1-0.3,0.1-0.4c0-0.4-0.3-0.5-1.1-0.5c-0.5,0-1.1,0.1-1.5,0.2l-0.2,0.1l-0.2,0l0.2-1.3
		c0.9-0.2,1.5-0.3,2.1-0.3c1.5,0,2.3,0.6,2.3,1.7c0,0.3,0,0.5-0.1,1.2l-0.4,2.1L33.1,26l0,0.3l0,0.2L33,26.7L33,26.7z M31.7,24.1
		c-0.1,0-0.3,0-0.4,0c-1,0-1.5,0.3-1.5,0.9c0,0.4,0.2,0.6,0.6,0.6C31.2,25.5,31.7,24.9,31.7,24.1L31.7,24.1z M38.8,26.5
		c-0.6,0.2-1.2,0.2-1.8,0.2c-2,0-3-0.9-3-2.6c0-2,1.3-3.5,3.1-3.5c1.5,0,2.4,0.8,2.4,2.1c0,0.4-0.1,0.9-0.2,1.5h-3.5
		c0,0.1,0,0.1,0,0.2c0,0.7,0.5,1,1.5,1c0.6,0,1.2-0.1,1.8-0.4L38.8,26.5L38.8,26.5z M37.8,23c0-0.1,0-0.2,0-0.3
		c0-0.5-0.3-0.8-0.8-0.8c-0.6,0-1,0.4-1.1,1.1L37.8,23z M57.6,24c-0.3,2-1.6,2.8-3.4,2.8c-2,0-2.8-1.2-2.8-2.7
		c0-2.1,1.4-3.5,3.5-3.5c1.8,0,2.8,1.2,2.8,2.7C57.6,23.6,57.6,23.7,57.6,24L57.6,24z M55.8,23.3c0-0.6-0.2-1.2-1-1.2
		c-0.9,0-1.5,1.1-1.5,2c0,0.8,0.4,1.3,1,1.3c0.4,0,1.2-0.5,1.4-1.4C55.7,23.7,55.8,23.5,55.8,23.3L55.8,23.3z"/>
</g>
</svg>
