<?xml version="1.0" encoding="utf-8"?>
<!-- Generator: Adobe Illustrator 25.1.0, SVG Export Plug-In . SVG Version: 6.00 Build 0)  -->
<!DOCTYPE svg PUBLIC "-//W3C//DTD SVG 1.1//EN" "http://www.w3.org/Graphics/SVG/1.1/DTD/svg11.dtd" [
	<!ENTITY ns_extend "http://ns.adobe.com/Extensibility/1.0/">
	<!ENTITY ns_ai "http://ns.adobe.com/AdobeIllustrator/10.0/">
	<!ENTITY ns_graphs "http://ns.adobe.com/Graphs/1.0/">
	<!ENTITY ns_vars "http://ns.adobe.com/Variables/1.0/">
	<!ENTITY ns_imrep "http://ns.adobe.com/ImageReplacement/1.0/">
	<!ENTITY ns_sfw "http://ns.adobe.com/SaveForWeb/1.0/">
	<!ENTITY ns_custom "http://ns.adobe.com/GenericCustomNamespace/1.0/">
	<!ENTITY ns_adobe_xpath "http://ns.adobe.com/XPath/1.0/">
]>
<svg version="1.1" id="Laag_1" xmlns:x="&ns_extend;" xmlns:i="&ns_ai;" xmlns:graph="&ns_graphs;"
	 xmlns="http://www.w3.org/2000/svg" xmlns:xlink="http://www.w3.org/1999/xlink" x="0px" y="0px" width="77.1px" height="46.2px"
	 viewBox="0 0 77.1 46.2" enable-background="new 0 0 77.1 46.2" xml:space="preserve">
<metadata>
	<sfw  xmlns="&ns_sfw;">
		<slices></slices>
		<sliceSourceBounds  bottomLeftOrigin="true" height="16385.5" width="16383" x="-8141" y="-8203.8"></sliceSourceBounds>
	</sfw>
</metadata>
<path opacity="0.5" fill="#FFFFFF" d="M72.5,46.2H4.6c-2.5,0-4.6-2.1-4.6-4.6V4.6C0,2.1,2.1,0,4.6,0h67.9c2.5,0,4.6,2.1,4.6,4.6
	v37.1C77.1,44.2,75,46.2,72.5,46.2z"/>
<g id="layer1">
	<g id="g10305">
		<path id="path2268" fill="#F4991A" d="M62.3,23.1c0,7.9-6.4,14.2-14.2,14.2c-7.9,0-14.2-6.4-14.2-14.2c0,0,0,0,0,0
			c0-7.9,6.4-14.2,14.2-14.2C55.9,8.9,62.3,15.3,62.3,23.1C62.3,23.1,62.3,23.1,62.3,23.1z"/>
		<path id="path1350" fill="#CC1517" d="M28.9,8.9c-7.8,0-14.1,6.4-14.1,14.2c0,7.9,6.4,14.2,14.2,14.2c3.7,0,7-1.4,9.6-3.7
			c0,0,0,0,0,0h0c0.5-0.5,1-1,1.4-1.5h-2.9c-0.4-0.5-0.7-1-1.1-1.5h5c0.3-0.5,0.6-1,0.8-1.5h-6.7c-0.2-0.5-0.4-1-0.6-1.5h7.9
			c0.5-1.4,0.7-2.9,0.7-4.5c0-1-0.1-2.1-0.3-3h-8.7c0.1-0.5,0.2-1,0.4-1.5h7.9c-0.2-0.5-0.4-1-0.6-1.5h-6.7c0.2-0.5,0.5-1,0.8-1.5h5
			c-0.3-0.5-0.7-1-1.1-1.5h-2.8c0.4-0.5,0.9-1,1.4-1.4C36,10.3,32.7,8.9,28.9,8.9C29,8.9,28.9,8.9,28.9,8.9z"/>
	</g>
	<g id="g16480">
		<g id="g13802" transform="translate(-13.74405,15.9939)">
			<path id="path13804" fill="#232856" d="M47.5,11.2l0.2-1.3c-0.1,0-0.3,0-0.4,0c-0.5,0-0.6-0.3-0.6-0.5l0.5-2.6H48l0.2-1.5h-0.8
				l0.2-0.9H46c0,0-0.9,5-0.9,5.6c0,0.9,0.5,1.3,1.2,1.3C46.9,11.4,47.3,11.3,47.5,11.2z"/>
			<path id="path13806" fill="#232856" d="M47.9,8.8c0,2.1,1.4,2.6,2.6,2.6c1.1,0,1.7-0.3,1.7-0.3l0.3-1.5c0,0-0.9,0.4-1.7,0.4
				c-1.6,0-1.3-1.2-1.3-1.2l3.1,0c0,0,0.2-1,0.2-1.4c0-1-0.5-2.2-2.2-2.2C49.1,5.3,47.9,6.9,47.9,8.8z M50.6,6.6c0.9,0,0.7,1,0.7,1
				h-1.7C49.6,7.6,49.8,6.6,50.6,6.6z"/>
			<path id="path13808" fill="#232856" d="M60.2,11.2l0.3-1.7c0,0-0.7,0.4-1.3,0.4c-1.1,0-1.5-0.8-1.5-1.7c0-1.8,0.9-2.8,2-2.8
				c0.8,0,1.4,0.4,1.4,0.4l0.2-1.6c0,0-0.7-0.5-1.5-0.5c-2.4,0-3.7,1.6-3.7,4.5c0,1.9,1,3.2,2.8,3.2C59.4,11.4,60.2,11.2,60.2,11.2z
				"/>
			<path id="path13810" fill="#232856" d="M39.1,5.3c-1,0-1.8,0.3-1.8,0.3l-0.2,1.3c0,0,0.7-0.3,1.7-0.3c0.6,0,1,0.1,1,0.5
				c0,0.3-0.1,0.4-0.1,0.4s-0.4,0-0.7,0c-1.5,0-2.7,0.6-2.7,2.2c0,1.3,0.9,1.6,1.5,1.6c1.1,0,1.5-0.7,1.5-0.7l0,0.6c0,0,1.3,0,1.3,0
				l0.6-4.2C41.2,5.3,39.7,5.3,39.1,5.3z M39.4,8.7c0,0.3-0.1,1.5-1,1.5c-0.5,0-0.6-0.4-0.6-0.6c0-0.4,0.2-0.9,1.3-0.9
				C39.4,8.6,39.3,8.7,39.4,8.7z"/>
			<path id="path13812" fill="#232856" d="M42.6,11.4c0.3,0,2.3,0.1,2.3-1.9c0-1.9-1.8-1.5-1.8-2.3c0-0.4,0.3-0.5,0.8-0.5
				c0.2,0,1,0.1,1,0.1l0.2-1.3c0,0-0.5-0.1-1.4-0.1c-1.1,0-2.3,0.4-2.3,2c0,1.7,1.9,1.6,1.9,2.3c0,0.5-0.5,0.5-0.9,0.5
				c-0.7,0-1.3-0.2-1.3-0.2l-0.2,1.3C41,11.2,41.4,11.4,42.6,11.4z"/>
			<path id="path13814" fill="#232856" d="M72.7,4.1l-0.3,2c0,0-0.6-0.8-1.5-0.8c-1.7,0-2.5,1.7-2.5,3.6c0,1.2,0.6,2.5,1.9,2.5
				c0.9,0,1.4-0.6,1.4-0.6l-0.1,0.5h1.5l1.2-7.2L72.7,4.1z M72,8c0,0.8-0.4,1.9-1.2,1.9c-0.5,0-0.8-0.5-0.8-1.2
				c0-1.2,0.5-1.9,1.2-1.9C71.8,6.8,72,7.2,72,8z"/>
			<path id="path13816" fill="#232856" d="M30.9,11.3l0.9-5.4l0.1,5.4h1L35,5.9l-0.9,5.4h1.6l1.2-7.2l-2.5,0l-1.5,4.4l0-4.4h-2.3
				l-1.2,7.2L30.9,11.3L30.9,11.3z"/>
			<path id="path13818" fill="#232856" d="M54.3,11.3c0.4-2.5,0.6-4.5,1.9-4.1c0.2-1,0.6-1.8,0.8-2.2c0,0-0.1-0.1-0.5-0.1
				c-0.7,0-1.6,1.4-1.6,1.4l0.1-0.9h-1.4l-0.9,5.9L54.3,11.3L54.3,11.3z"/>
			<g id="use14699" transform="translate(845.3001,0)">
				<path id="path13810_1_" fill="#232856" d="M-781.9,5.3c-1,0-1.8,0.3-1.8,0.3l-0.2,1.3c0,0,0.7-0.3,1.7-0.3c0.6,0,1,0.1,1,0.5
					c0,0.3-0.1,0.4-0.1,0.4s-0.4,0-0.7,0c-1.5,0-2.7,0.6-2.7,2.2c0,1.3,0.9,1.6,1.5,1.6c1.1,0,1.5-0.7,1.5-0.7l0,0.6h1.3l0.6-4.2
					C-779.9,5.3-781.4,5.3-781.9,5.3z M-781.7,8.7c0,0.3-0.1,1.5-1,1.5c-0.5,0-0.6-0.4-0.6-0.6c0-0.4,0.2-0.9,1.3-0.9
					C-781.7,8.6-781.8,8.7-781.7,8.7z"/>
			</g>
			<path id="use14701" fill="#232856" d="M67,11.3c0.2-1.8,0.7-4.4,1.9-4.1c0.2-1,0-1-0.4-1c-0.7,0-0.8,0-0.8,0l0.1-0.9h-1.4
				l-0.9,5.9L67,11.3L67,11.3z"/>
		</g>
		<g id="g10289">
			<path id="path4157" fill="#FFFFFF" d="M34.1,26.7l0.2-1.3c-0.1,0-0.3,0-0.4,0c-0.5,0-0.6-0.3-0.6-0.5l0.4-2.6h0.8l0.2-1.4H34
				l0.2-0.9h-1.5c0,0-0.9,5-0.9,5.6c0,0.9,0.5,1.3,1.2,1.3C33.5,26.9,34,26.8,34.1,26.7z"/>
			<path id="path4155" fill="#FFFFFF" d="M34.6,24.3c0,2.1,1.4,2.6,2.6,2.6c1.1,0,1.6-0.2,1.6-0.2l0.3-1.5c0,0-0.8,0.4-1.6,0.4
				c-1.6,0-1.3-1.2-1.3-1.2h3.1c0,0,0.2-1,0.2-1.4c0-1-0.5-2.2-2.2-2.2C35.7,20.8,34.6,22.4,34.6,24.3z M37.2,22.2
				c0.9,0,0.7,1,0.7,1h-1.7C36.3,23.1,36.4,22.2,37.2,22.2z"/>
			<path id="path4151" fill="#FFFFFF" d="M46.8,26.7l0.3-1.7c0,0-0.7,0.4-1.3,0.4c-1.1,0-1.5-0.8-1.5-1.7c0-1.8,0.9-2.8,2-2.8
				c0.8,0,1.4,0.4,1.4,0.4l0.2-1.6c0,0-0.9-0.4-1.7-0.4c-1.7,0-3.5,1.5-3.5,4.4c0,1.9,0.9,3.1,2.7,3.1C46,27,46.8,26.7,46.8,26.7z"
				/>
			<path id="path4149" fill="#FFFFFF" d="M25.8,20.8c-1,0-1.8,0.3-1.8,0.3l-0.2,1.3c0,0,0.7-0.3,1.7-0.3c0.6,0,1,0.1,1,0.5
				c0,0.3-0.1,0.4-0.1,0.4s-0.4,0-0.7,0c-1.3,0-2.7,0.6-2.7,2.2c0,1.3,0.9,1.6,1.5,1.6c1.1,0,1.5-0.7,1.6-0.7l0,0.6h1.3l0.6-4.2
				C27.9,20.9,26.3,20.8,25.8,20.8z M26.1,24.2c0,0.3-0.2,1.4-1.1,1.4c-0.5,0-0.6-0.4-0.6-0.6c0-0.4,0.2-0.9,1.3-0.9
				C26,24.2,26.1,24.2,26.1,24.2z"/>
			<path id="path4145" fill="#FFFFFF" d="M29.3,26.9c0.3,0,2.3,0.1,2.3-1.9c0-1.9-1.8-1.5-1.8-2.3c0-0.4,0.3-0.5,0.8-0.5
				c0.2,0,1,0.1,1,0.1l0.2-1.3c0,0-0.5-0.1-1.4-0.1c-1.1,0-2.3,0.4-2.3,2c0,1.7,1.9,1.6,1.9,2.3c0,0.5-0.5,0.5-0.9,0.5
				c-0.7,0-1.3-0.2-1.3-0.2l-0.2,1.3C27.6,26.7,28,26.9,29.3,26.9z"/>
			<path id="path4139" fill="#FFFFFF" d="M59.4,19.6l-0.3,2c0,0-0.6-0.8-1.5-0.8c-1.4,0-2.5,1.7-2.5,3.6c0,1.2,0.6,2.5,1.9,2.5
				c0.9,0,1.4-0.6,1.4-0.6l-0.1,0.5h1.5l1.2-7.2L59.4,19.6z M58.7,23.6c0,0.8-0.4,1.9-1.2,1.9c-0.5,0-0.8-0.5-0.8-1.2
				c0-1.2,0.5-1.9,1.2-1.9C58.4,22.3,58.7,22.7,58.7,23.6z"/>
			<path id="path4133" fill="#FFFFFF" d="M17.6,26.8l0.9-5.4l0.1,5.4h1l1.9-5.4l-0.9,5.4h1.6l1.2-7.2h-2.4L19.6,24l-0.1-4.4h-2.2
				l-1.2,7.2C16.1,26.8,17.6,26.8,17.6,26.8z"/>
			<path id="path4131" fill="#FFFFFF" d="M40.9,26.8c0.4-2.5,0.5-4.5,1.6-4.2c0.2-1,0.4-1.3,0.6-1.8c0,0-0.1,0-0.3,0
				c-0.7,0-1.2,0.9-1.2,0.9l0.1-0.9h-1.4l-0.9,5.9H40.9z"/>
			<g id="use8523" transform="translate(847.0062,0)">
				<path id="path4149_1_" fill="#FFFFFF" d="M-796.7,20.8c-1,0-1.8,0.3-1.8,0.3l-0.2,1.3c0,0,0.7-0.3,1.7-0.3c0.6,0,1,0.1,1,0.5
					c0,0.3-0.1,0.4-0.1,0.4s-0.4,0-0.7,0c-1.3,0-2.7,0.6-2.7,2.2c0,1.3,0.9,1.6,1.5,1.6c1.1,0,1.5-0.7,1.6-0.7l0,0.6
					c0,0,1.3,0,1.3,0l0.6-4.2C-794.6,20.9-796.1,20.8-796.7,20.8z M-796.3,24.2c0,0.3-0.2,1.4-1.1,1.4c-0.5,0-0.6-0.4-0.6-0.6
					c0-0.4,0.2-0.9,1.3-0.9C-796.4,24.2-796.4,24.2-796.3,24.2z"/>
			</g>
			<g id="use8525" transform="translate(442.2857,0)">
				<path id="path4131_1_" fill="#FFFFFF" d="M-388.7,26.8c0.4-2.5,0.5-4.5,1.6-4.2c0.2-1,0.4-1.3,0.6-1.8c0,0-0.1,0-0.3,0
					c-0.7,0-1.2,0.9-1.2,0.9l0.1-0.9h-1.4l-0.9,5.9H-388.7z"/>
			</g>
			<path id="text9407" fill="#FFFFFF" d="M60.9,25.9c0.1,0,0.2,0,0.2,0.1c0.1,0,0.1,0.1,0.2,0.2c0,0.1,0.1,0.2,0.1,0.2
				c0,0.1,0,0.2-0.1,0.2c0,0.1-0.1,0.1-0.2,0.2c-0.1,0-0.1,0.1-0.2,0.1c-0.1,0-0.2,0-0.2-0.1c-0.1,0-0.1-0.1-0.2-0.2
				c0-0.1-0.1-0.1-0.1-0.2c0-0.1,0-0.2,0.1-0.2c0-0.1,0.1-0.1,0.2-0.2C60.7,26,60.8,25.9,60.9,25.9 M60.9,26c-0.1,0-0.1,0-0.2,0.1
				c-0.1,0-0.1,0.1-0.1,0.1c0,0.1-0.1,0.1-0.1,0.2c0,0.1,0,0.1,0.1,0.2c0,0.1,0.1,0.1,0.1,0.1c0.1,0,0.1,0.1,0.2,0.1
				c0.1,0,0.1,0,0.2-0.1c0.1,0,0.1-0.1,0.1-0.1c0-0.1,0.1-0.1,0.1-0.2c0-0.1,0-0.1-0.1-0.2c0-0.1-0.1-0.1-0.1-0.1
				C61,26,60.9,26,60.9,26 M60.7,26.6v-0.5h0.2c0.1,0,0.1,0,0.1,0c0,0,0,0,0.1,0c0,0,0,0,0,0.1c0,0,0,0.1,0,0.1c0,0-0.1,0-0.1,0
				c0,0,0,0,0,0c0,0,0,0.1,0.1,0.1l0.1,0.1H61l0-0.1c0-0.1-0.1-0.1-0.1-0.1c0,0,0,0-0.1,0h0L60.7,26.6L60.7,26.6 M60.8,26.4
				L60.8,26.4c0.1,0,0.2,0,0.2,0c0,0,0,0,0-0.1c0,0,0,0,0,0c0,0,0,0,0,0c0,0,0,0-0.1,0h-0.1L60.8,26.4"/>
		</g>
	</g>
</g>
</svg>
