<?xml version="1.0" encoding="utf-8"?>
<!-- Generator: Adobe Illustrator 25.1.0, SVG Export Plug-In . SVG Version: 6.00 Build 0)  -->
<!DOCTYPE svg PUBLIC "-//W3C//DTD SVG 1.1//EN" "http://www.w3.org/Graphics/SVG/1.1/DTD/svg11.dtd" [
	<!ENTITY ns_extend "http://ns.adobe.com/Extensibility/1.0/">
	<!ENTITY ns_ai "http://ns.adobe.com/AdobeIllustrator/10.0/">
	<!ENTITY ns_graphs "http://ns.adobe.com/Graphs/1.0/">
	<!ENTITY ns_vars "http://ns.adobe.com/Variables/1.0/">
	<!ENTITY ns_imrep "http://ns.adobe.com/ImageReplacement/1.0/">
	<!ENTITY ns_sfw "http://ns.adobe.com/SaveForWeb/1.0/">
	<!ENTITY ns_custom "http://ns.adobe.com/GenericCustomNamespace/1.0/">
	<!ENTITY ns_adobe_xpath "http://ns.adobe.com/XPath/1.0/">
]>
<svg version="1.1" id="Laag_1" xmlns:x="&ns_extend;" xmlns:i="&ns_ai;" xmlns:graph="&ns_graphs;"
	 xmlns="http://www.w3.org/2000/svg" xmlns:xlink="http://www.w3.org/1999/xlink" x="0px" y="0px" width="77.1px" height="46.2px"
	 viewBox="0 0 77.1 46.2" enable-background="new 0 0 77.1 46.2" xml:space="preserve">
<metadata>
	<sfw  xmlns="&ns_sfw;">
		<slices></slices>
		<sliceSourceBounds  bottomLeftOrigin="true" height="16385.5" width="16383" x="-8141" y="-8203.8"></sliceSourceBounds>
	</sfw>
</metadata>
<path opacity="0.5" fill="#FFFFFF" d="M72.5,46.2H4.6c-2.5,0-4.6-2.1-4.6-4.6V4.6C0,2.1,2.1,0,4.6,0h67.9c2.5,0,4.6,2.1,4.6,4.6
	v37.1C77.1,44.2,75,46.2,72.5,46.2z"/>
<g>
	<path fill="#263C7F" d="M32.1,19.7h-2.8c-0.2,0-0.4,0.1-0.4,0.3l-1.1,7.2c0,0.1,0.1,0.3,0.2,0.3h1.3c0.2,0,0.4-0.1,0.4-0.3l0.3-2
		c0-0.2,0.2-0.3,0.4-0.3h0.9c1.9,0,2.9-0.9,3.2-2.7c0.1-0.8,0-1.4-0.4-1.8C33.8,19.9,33,19.7,32.1,19.7z M32.4,22.3
		c-0.2,1-0.9,1-1.7,1h-0.4l0.3-1.9c0-0.1,0.1-0.2,0.2-0.2h0.2c0.5,0,1,0,1.2,0.3C32.4,21.7,32.5,22,32.4,22.3z"/>
	<path fill="#263C7F" d="M40.5,22.3h-1.4c-0.1,0-0.2,0.1-0.2,0.2l-0.1,0.4l-0.1-0.1c-0.3-0.4-0.9-0.6-1.6-0.6c-1.5,0-2.8,1.1-3,2.7
		c-0.1,0.8,0.1,1.5,0.5,2.1c0.4,0.5,1,0.7,1.7,0.7c1.2,0,1.9-0.8,1.9-0.8l-0.1,0.4c0,0.1,0.1,0.3,0.2,0.3h1.2c0.2,0,0.4-0.1,0.4-0.3
		l0.7-4.6C40.8,22.4,40.7,22.3,40.5,22.3z M38.7,24.9c-0.1,0.8-0.7,1.3-1.5,1.3c-0.4,0-0.7-0.1-0.9-0.4c-0.2-0.2-0.3-0.6-0.2-0.9
		c0.1-0.8,0.7-1.3,1.5-1.3c0.4,0,0.7,0.1,0.9,0.4C38.6,24.2,38.7,24.6,38.7,24.9z"/>
	<path fill="#263C7F" d="M47.7,22.3h-1.4c-0.1,0-0.3,0.1-0.3,0.2l-1.9,2.8l-0.8-2.7c0-0.2-0.2-0.3-0.4-0.3h-1.3
		c-0.2,0-0.3,0.2-0.2,0.3L43,27l-1.4,2c-0.1,0.2,0,0.4,0.2,0.4h1.4c0.1,0,0.2-0.1,0.3-0.2l4.5-6.5C48,22.5,47.9,22.3,47.7,22.3z"/>
	<path fill="#179BD7" d="M52.2,19.7h-2.8c-0.2,0-0.4,0.1-0.4,0.3l-1.1,7.2c0,0.1,0.1,0.3,0.2,0.3h1.4c0.1,0,0.2-0.1,0.3-0.2l0.3-2.1
		c0-0.2,0.2-0.3,0.4-0.3h0.9c1.9,0,2.9-0.9,3.2-2.7c0.1-0.8,0-1.4-0.4-1.8C53.9,19.9,53.2,19.7,52.2,19.7z M52.6,22.3
		c-0.2,1-0.9,1-1.7,1h-0.4l0.3-1.9c0-0.1,0.1-0.2,0.2-0.2h0.2c0.5,0,1,0,1.2,0.3C52.6,21.7,52.6,22,52.6,22.3z"/>
	<path fill="#179BD7" d="M60.7,22.3h-1.4c-0.1,0-0.2,0.1-0.2,0.2L59,22.9l-0.1-0.1c-0.3-0.4-0.9-0.6-1.6-0.6c-1.5,0-2.8,1.1-3,2.7
		c-0.1,0.8,0.1,1.5,0.5,2.1c0.4,0.5,1,0.7,1.7,0.7c1.2,0,1.9-0.8,1.9-0.8l-0.1,0.4c0,0.1,0.1,0.3,0.2,0.3h1.2c0.2,0,0.4-0.1,0.4-0.3
		l0.7-4.6C60.9,22.4,60.8,22.3,60.7,22.3z M58.8,24.9c-0.1,0.8-0.7,1.3-1.5,1.3c-0.4,0-0.7-0.1-0.9-0.4c-0.2-0.2-0.3-0.6-0.2-0.9
		c0.1-0.8,0.7-1.3,1.5-1.3c0.4,0,0.7,0.1,0.9,0.4C58.8,24.2,58.9,24.6,58.8,24.9z"/>
	<path fill="#179BD7" d="M62.3,19.9l-1.2,7.4c0,0.1,0.1,0.3,0.2,0.3h1.2c0.2,0,0.4-0.1,0.4-0.3L64,20c0-0.1-0.1-0.3-0.2-0.3h-1.3
		C62.4,19.7,62.3,19.8,62.3,19.9z"/>
	<path fill="#263C7F" d="M16,28.9l0.2-1.4l-0.5,0h-2.3l1.6-10.1c0,0,0-0.1,0-0.1c0,0,0.1,0,0.1,0h3.9c1.3,0,2.2,0.3,2.6,0.8
		c0.2,0.2,0.4,0.5,0.4,0.8c0.1,0.3,0.1,0.7,0,1.1l0,0v0.3l0.2,0.1c0.2,0.1,0.3,0.2,0.4,0.3c0.2,0.2,0.3,0.5,0.4,0.8
		c0.1,0.3,0,0.7-0.1,1.2c-0.1,0.5-0.3,1-0.5,1.3c-0.2,0.3-0.5,0.6-0.8,0.8c-0.3,0.2-0.6,0.4-1,0.5c-0.4,0.1-0.8,0.1-1.3,0.1h-0.3
		c-0.2,0-0.4,0.1-0.6,0.2c-0.2,0.1-0.3,0.3-0.3,0.5l0,0.1L18,28.8l0,0.1c0,0,0,0,0,0.1c0,0,0,0,0,0C17.9,28.9,16,28.9,16,28.9z"/>
	<path fill="#179BD7" d="M22.5,20.1L22.5,20.1L22.5,20.1c0,0.1,0,0.1,0,0.2c-0.5,2.6-2.3,3.5-4.5,3.5h-1.1c-0.3,0-0.5,0.2-0.5,0.5
		l0,0l0,0L15.7,28l-0.2,1c0,0.2,0.1,0.3,0.3,0.3h2c0.2,0,0.4-0.2,0.5-0.4l0-0.1l0.4-2.4l0-0.1c0-0.2,0.2-0.4,0.5-0.4h0.3
		c2,0,3.5-0.8,3.9-3.1c0.2-1,0.1-1.8-0.4-2.3C22.9,20.3,22.8,20.2,22.5,20.1z"/>
	<path fill="#253064" d="M22,19.8c-0.1,0-0.2,0-0.2-0.1c-0.1,0-0.2,0-0.3,0c-0.3,0-0.6-0.1-1-0.1h-3c-0.1,0-0.1,0-0.2,0
		c-0.1,0.1-0.2,0.2-0.3,0.4l-0.6,4.1l0,0.1c0-0.3,0.3-0.5,0.5-0.5H18c2.2,0,4-0.9,4.5-3.5c0-0.1,0-0.2,0-0.2
		c-0.1-0.1-0.3-0.1-0.4-0.2C22.1,19.9,22,19.9,22,19.8z"/>
	<path fill="#263C7F" d="M17,20.1c0-0.2,0.1-0.3,0.3-0.4c0.1,0,0.1,0,0.2,0h3c0.4,0,0.7,0,1,0.1c0.1,0,0.2,0,0.3,0
		c0.1,0,0.2,0,0.2,0.1c0,0,0.1,0,0.1,0c0.2,0,0.3,0.1,0.4,0.2c0.2-1,0-1.6-0.5-2.2c-0.6-0.7-1.6-0.9-3-0.9h-3.9
		c-0.3,0-0.5,0.2-0.5,0.5L13,27.6c0,0.2,0.1,0.4,0.3,0.4h2.4l0.6-3.8L17,20.1z"/>
</g>
</svg>
