<svg xmlns="http://www.w3.org/2000/svg" width="35.245" height="34.086" viewBox="0 0 35.245 34.086">
  <g id="supermarkets_icon1" transform="translate(-12.86 -14.57)">
    <g id="Groupe_262" data-name="Groupe 262" transform="translate(12.86 14.57)">
      <g id="Groupe_244" data-name="Groupe 244" transform="translate(2.886 12.636)">
        <path id="Tracé_530" data-name="Tracé 530" d="M21.4,55.157v-.939a2.257,2.257,0,0,1,2.258-2.258h.811l2.791,4.387Z" transform="translate(-21.4 -51.96)" fill="#e8ecf6"/>
      </g>
      <g id="Groupe_245" data-name="Groupe 245" transform="translate(26.495 12.636)">
        <path id="Tracé_531" data-name="Tracé 531" d="M97.12,55.157v-.939a2.257,2.257,0,0,0-2.257-2.258h-.811L91.26,56.347Z" transform="translate(-91.26 -51.96)" fill="#fff1dd"/>
      </g>
      <g id="Groupe_247" data-name="Groupe 247" transform="translate(11.815 6.232)">
        <g id="Groupe_246" data-name="Groupe 246">
          <path id="Tracé_532" data-name="Tracé 532" d="M59.432,42.713V35.068a2.237,2.237,0,0,0-2.379-2.058H50.2a2.237,2.237,0,0,0-2.379,2.058v8.3Z" transform="translate(-47.82 -33.01)" fill="#fff1dd"/>
        </g>
      </g>
      <g id="Groupe_248" data-name="Groupe 248" transform="translate(2.535 19.128)">
        <path id="Tracé_533" data-name="Tracé 533" d="M35.446,71.17H20.36l2.508,10.956a5.152,5.152,0,0,0,5.022,4H43a5.149,5.149,0,0,0,5.022-4L50.532,71.17Z" transform="translate(-20.36 -71.17)" fill="#fdc952"/>
      </g>
      <g id="Groupe_249" data-name="Groupe 249" transform="translate(3.606 19.125)">
        <path id="Tracé_534" data-name="Tracé 534" d="M23.53,71.163l2.308,10.084a5.152,5.152,0,0,0,5.022,4H45.973a5.134,5.134,0,0,0,3.177-1.1,5.1,5.1,0,0,0,.973-2.034L52.631,71.16H23.53Z" transform="translate(-23.53 -71.16)" fill="#ffde79"/>
      </g>
      <g id="Groupe_250" data-name="Groupe 250" transform="translate(0 15.83)">
        <path id="Tracé_535" data-name="Tracé 535" d="M46.452,64.708H14.509a1.649,1.649,0,0,1-1.649-1.649h0a1.649,1.649,0,0,1,1.649-1.649H46.456A1.649,1.649,0,0,1,48.1,63.059h0A1.652,1.652,0,0,1,46.452,64.708Z" transform="translate(-12.86 -61.41)" fill="#fdc952"/>
      </g>
      <g id="Groupe_254" data-name="Groupe 254" transform="translate(8.746 20.226)">
        <g id="Groupe_251" data-name="Groupe 251" transform="translate(7.861)">
          <path id="Tracé_536" data-name="Tracé 536" d="M63.014,74.42h0A1.012,1.012,0,0,0,62,75.434V84.3a1.012,1.012,0,0,0,1.014,1.014h0A1.012,1.012,0,0,0,64.028,84.3V75.434A1.015,1.015,0,0,0,63.014,74.42Z" transform="translate(-62 -74.42)" fill="#fff"/>
        </g>
        <g id="Groupe_252" data-name="Groupe 252">
          <path id="Tracé_537" data-name="Tracé 537" d="M39.754,74.42h0a1.012,1.012,0,0,0-1.014,1.014V84.3a1.012,1.012,0,0,0,1.014,1.014h0A1.012,1.012,0,0,0,40.768,84.3V75.434A1.015,1.015,0,0,0,39.754,74.42Z" transform="translate(-38.74 -74.42)" fill="#fff"/>
        </g>
        <g id="Groupe_253" data-name="Groupe 253" transform="translate(15.721)">
          <path id="Tracé_538" data-name="Tracé 538" d="M86.274,74.42h0a1.012,1.012,0,0,1,1.014,1.014V84.3a1.013,1.013,0,0,1-1.014,1.014h0A1.012,1.012,0,0,1,85.26,84.3V75.434A1.015,1.015,0,0,1,86.274,74.42Z" transform="translate(-85.26 -74.42)" fill="#fff"/>
        </g>
      </g>
      <g id="Groupe_255" data-name="Groupe 255" transform="translate(16.607)">
        <path id="Tracé_539" data-name="Tracé 539" d="M63.014,14.57h0A1.012,1.012,0,0,0,62,15.584V30.4h2.028V15.584A1.012,1.012,0,0,0,63.014,14.57Z" transform="translate(-62 -14.57)" fill="#fdc952"/>
      </g>
      <g id="Groupe_256" data-name="Groupe 256" transform="translate(5.715 9.598)">
        <path id="Tracé_540" data-name="Tracé 540" d="M29.959,49.205a4.884,4.884,0,1,1,9.578-1.352,4.948,4.948,0,0,1-.189,1.352" transform="translate(-29.77 -42.97)" fill="#cb2334"/>
      </g>
      <g id="Groupe_257" data-name="Groupe 257" transform="translate(5.519 6.692)">
        <path id="Tracé_541" data-name="Tracé 541" d="M33.661,37.214s-.416-3.18-4.471-2.812C30.2,37.582,33.661,37.214,33.661,37.214Z" transform="translate(-29.19 -34.372)" fill="#7d98ce"/>
      </g>
      <g id="Groupe_261" data-name="Groupe 261" transform="translate(22.437 5.509)">
        <g id="Groupe_258" data-name="Groupe 258" transform="translate(0 1.43)">
          <path id="Tracé_542" data-name="Tracé 542" d="M86.137,38.439l-.946-1.007V35.1H81.237v2.335l-.946,1.007a4.048,4.048,0,0,0-1.041,2.764v2.788h7.928V41.207A4.057,4.057,0,0,0,86.137,38.439Z" transform="translate(-79.25 -35.1)" fill="#e8ecf6"/>
        </g>
        <g id="Groupe_259" data-name="Groupe 259" transform="translate(1.541 0)">
          <path id="Tracé_543" data-name="Tracé 543" d="M87.94,30.87H84.53a.72.72,0,0,0-.72.72h0a.72.72,0,0,0,.72.72h3.41a.72.72,0,0,0,.72-.72h0A.72.72,0,0,0,87.94,30.87Z" transform="translate(-83.81 -30.87)" fill="#7d98ce"/>
        </g>
        <g id="Groupe_260" data-name="Groupe 260" transform="translate(0 7.127)">
          <path id="Tracé_544" data-name="Tracé 544" d="M79.27,51.96q-.02.2-.02.406v2.788h7.928V52.366c0-.125-.007-.247-.017-.368l-.223-.037Z" transform="translate(-79.25 -51.96)" fill="#7d98ce"/>
        </g>
      </g>
    </g>
  </g>
</svg>
