<?xml version="1.0" encoding="utf-8"?>
<!-- Generator: Adobe Illustrator 25.1.0, SVG Export Plug-In . SVG Version: 6.00 Build 0)  -->
<!DOCTYPE svg PUBLIC "-//W3C//DTD SVG 1.1//EN" "http://www.w3.org/Graphics/SVG/1.1/DTD/svg11.dtd" [
	<!ENTITY ns_extend "http://ns.adobe.com/Extensibility/1.0/">
	<!ENTITY ns_ai "http://ns.adobe.com/AdobeIllustrator/10.0/">
	<!ENTITY ns_graphs "http://ns.adobe.com/Graphs/1.0/">
	<!ENTITY ns_vars "http://ns.adobe.com/Variables/1.0/">
	<!ENTITY ns_imrep "http://ns.adobe.com/ImageReplacement/1.0/">
	<!ENTITY ns_sfw "http://ns.adobe.com/SaveForWeb/1.0/">
	<!ENTITY ns_custom "http://ns.adobe.com/GenericCustomNamespace/1.0/">
	<!ENTITY ns_adobe_xpath "http://ns.adobe.com/XPath/1.0/">
]>
<svg version="1.1" id="Laag_1" xmlns:x="&ns_extend;" xmlns:i="&ns_ai;" xmlns:graph="&ns_graphs;"
	 xmlns="http://www.w3.org/2000/svg" xmlns:xlink="http://www.w3.org/1999/xlink" x="0px" y="0px" width="77.1px" height="46.2px"
	 viewBox="0 0 77.1 46.2" enable-background="new 0 0 77.1 46.2" xml:space="preserve">
<metadata>
	<sfw  xmlns="&ns_sfw;">
		<slices></slices>
		<sliceSourceBounds  bottomLeftOrigin="true" height="16385.5" width="16383" x="-8141" y="-8203.8"></sliceSourceBounds>
	</sfw>
</metadata>
<path opacity="0.5" fill="#FFFFFF" d="M72.5,46.2H4.6c-2.5,0-4.6-2.1-4.6-4.6V4.6C0,2.1,2.1,0,4.6,0h67.9c2.5,0,4.6,2.1,4.6,4.6
	v37.1C77.1,44.2,75,46.2,72.5,46.2z"/>
<g id="g4158" transform="matrix(4.4299631,0,0,4.4299631,-81.165783,-105.04783)">
	<polygon id="polygon9" fill="#0958A0" points="26.3,30.7 25.3,30.7 25.9,27.1 26.8,27.1 	"/>
	<path id="path11" fill="#0958A0" d="M29.6,27.2c-0.2-0.1-0.5-0.2-0.8-0.2c-0.9,0-1.6,0.5-1.6,1.2c0,0.5,0.5,0.8,0.8,1
		c0.4,0.2,0.5,0.3,0.5,0.4c0,0.2-0.3,0.4-0.6,0.4c-0.4,0-0.6-0.1-0.9-0.2L27,29.8l-0.1,0.8c0.2,0.1,0.6,0.2,1,0.2
		c1,0,1.6-0.5,1.6-1.2c0-0.4-0.2-0.7-0.8-1c-0.3-0.2-0.5-0.3-0.5-0.4c0-0.2,0.2-0.3,0.5-0.3c0.3,0,0.5,0.1,0.7,0.1l0.1,0L29.6,27.2
		C29.6,27.2,29.6,27.2,29.6,27.2z"/>
	<path id="path13" fill="#0958A0" d="M30.9,29.5c0.1-0.2,0.4-1,0.4-1c0,0,0.1-0.2,0.1-0.3l0.1,0.3c0,0,0.2,0.9,0.2,1
		C31.5,29.5,31.1,29.5,30.9,29.5L30.9,29.5z M32,27.1h-0.7c-0.2,0-0.4,0.1-0.5,0.3l-1.4,3.3h1c0,0,0.2-0.4,0.2-0.5
		c0.1,0,1.1,0,1.2,0c0,0.1,0.1,0.5,0.1,0.5h0.9L32,27.1L32,27.1L32,27.1z"/>
	<path id="path15" fill="#0958A0" d="M24.5,27.1l-0.9,2.5l-0.1-0.5c-0.2-0.6-0.7-1.2-1.3-1.5l0.8,3.2h1l1.5-3.6H24.5L24.5,27.1
		L24.5,27.1z"/>
	<path id="path17" fill="#F7A521" d="M22.8,27.1h-1.5l0,0.1c1.2,0.3,1.9,1,2.3,1.9l-0.3-1.7C23.1,27.2,23,27.1,22.8,27.1L22.8,27.1z
		"/>
</g>
</svg>
