<?xml version="1.0" encoding="utf-8"?>
<!-- Generator: Adobe Illustrator 25.1.0, SVG Export Plug-In . SVG Version: 6.00 Build 0)  -->
<svg version="1.1" id="Laag_1" xmlns="http://www.w3.org/2000/svg" xmlns:xlink="http://www.w3.org/1999/xlink" x="0px" y="0px"
	 viewBox="0 0 900 700" style="enable-background:new 0 0 900 700;" xml:space="preserve">
<style type="text/css">
	.st0{fill-rule:evenodd;clip-rule:evenodd;fill:#FFF1DC;}
	.st1{fill-rule:evenodd;clip-rule:evenodd;fill:url(#Path-144_1_);}
	.st2{fill:none;stroke:#18233C;stroke-linecap:round;}
	.st3{fill-rule:evenodd;clip-rule:evenodd;fill:url(#XMLID_2_);}
	.st4{fill-rule:evenodd;clip-rule:evenodd;fill:url(#XMLID_3_);}
	.st5{fill-rule:evenodd;clip-rule:evenodd;fill:url(#XMLID_4_);}
	.st6{fill-rule:evenodd;clip-rule:evenodd;fill:url(#XMLID_5_);}
	.st7{fill-rule:evenodd;clip-rule:evenodd;fill:url(#XMLID_6_);}
	.st8{fill-rule:evenodd;clip-rule:evenodd;fill:url(#Path-156_1_);}
	.st9{fill-rule:evenodd;clip-rule:evenodd;fill:#5B5054;}
	.st10{fill-rule:evenodd;clip-rule:evenodd;fill:#3A3136;}
	.st11{fill-rule:evenodd;clip-rule:evenodd;fill:url(#Rectangle_1_);}
	.st12{fill-rule:evenodd;clip-rule:evenodd;fill:#E5E9F4;}
	.st13{opacity:0.3075;fill-rule:evenodd;clip-rule:evenodd;fill:#281C20;enable-background:new    ;}
	.st14{fill-rule:evenodd;clip-rule:evenodd;fill:url(#Path-155_2_);}
	.st15{fill-rule:evenodd;clip-rule:evenodd;fill:url(#Path-128_1_);}
	.st16{fill-rule:evenodd;clip-rule:evenodd;fill:url(#XMLID_7_);}
	.st17{fill-rule:evenodd;clip-rule:evenodd;fill:url(#Path-136_1_);}
	.st18{fill-rule:evenodd;clip-rule:evenodd;fill:#902233;}
	.st19{fill-rule:evenodd;clip-rule:evenodd;fill:#FDC952;}
	.st20{fill-rule:evenodd;clip-rule:evenodd;fill:#C82426;}
	.st21{fill-rule:evenodd;clip-rule:evenodd;fill:url(#Path-127_1_);}
	.st22{fill-rule:evenodd;clip-rule:evenodd;fill:url(#XMLID_8_);}
	.st23{fill-rule:evenodd;clip-rule:evenodd;fill:#E78763;}
	.st24{fill-rule:evenodd;clip-rule:evenodd;fill:#020303;}
	.st25{fill-rule:evenodd;clip-rule:evenodd;fill:url(#Path-130_1_);}
	.st26{fill-rule:evenodd;clip-rule:evenodd;fill:url(#XMLID_9_);}
	.st27{fill-rule:evenodd;clip-rule:evenodd;fill:url(#Path-133_2_);}
	.st28{fill-rule:evenodd;clip-rule:evenodd;fill:#D81F28;}
	.st29{fill:none;stroke:#18233C;stroke-width:3;stroke-linecap:round;}
	.st30{fill-rule:evenodd;clip-rule:evenodd;fill:url(#Path-148_2_);}
	.st31{opacity:0.8009;fill-rule:evenodd;clip-rule:evenodd;fill:url(#Path-151_2_);enable-background:new    ;}
	.st32{fill-rule:evenodd;clip-rule:evenodd;fill:#585B5E;}
	.st33{fill:none;stroke:#FFFFFF;}
	.st34{fill-rule:evenodd;clip-rule:evenodd;fill:url(#Path-140_2_);}
	.st35{fill-rule:evenodd;clip-rule:evenodd;fill:url(#XMLID_10_);}
	.st36{fill-rule:evenodd;clip-rule:evenodd;fill:url(#Path-146_2_);}
	.st37{fill-rule:evenodd;clip-rule:evenodd;fill:url(#XMLID_11_);}
	.st38{fill-rule:evenodd;clip-rule:evenodd;fill:url(#Path-147_2_);}
	.st39{fill-rule:evenodd;clip-rule:evenodd;fill:#E49368;}
	.st40{fill:none;stroke:#000000;stroke-width:3;stroke-linecap:round;}
	.st41{fill-rule:evenodd;clip-rule:evenodd;fill:#0A0F14;}
	.st42{fill:#FFFFFF;}
</style>
<g id="Page-1_8_">
	<g id="Food-delivery-to-customer-home" transform="translate(-99.000000, -73.000000)">
		<g id="XMLID_15_" transform="translate(96.000000, 55.000000)">
			<path id="Path-47_7_" class="st0" d="M212.6,271.3c-62,126.6,27.3,270.4,225.7,271.5c198.4,1.1,425.4-36.5,379.2-168
				c-46.1-131.5-219.5-0.7-312.7-105.6S274.5,144.7,212.6,271.3z"/>
			
				<g id="Group-7_3_" transform="translate(67.000000, 344.500000) scale(-1, 1) translate(-67.000000, -344.500000) translate(0.000000, 222.000000)">
				<g id="Group-6_3_">
					
						<linearGradient id="Path-144_1_" gradientUnits="userSpaceOnUse" x1="-875.6185" y1="-518.7102" x2="-875.6185" y2="-517.4443" gradientTransform="matrix(-12.1892 45.4908 46.0763 12.3461 13156.6338 46319.5742)">
						<stop  offset="5.376345e-03" style="stop-color:#D31F33"/>
						<stop  offset="1" style="stop-color:#912334"/>
					</linearGradient>
					<path id="Path-144_5_" class="st1" d="M-28.2,125.1l-19-5c-4.5-1.2-7.4-5.6-6.6-10.2l0,0c0.8-4.9-1.3-9.9-5.5-12.7l-2.1-1.4
						c-4.9-3.3-6.3-10-3.1-15c0.7-1.2,1.5-2.4,2.2-3.5c-0.8-1.3-1.6-2.6-2.4-3.9l0,0c-3-4.8-1.5-11.1,3.3-14.1
						c0.3-0.2,0.5-0.3,0.8-0.4l2.2-1.1c4.4-2.2,9.7-0.6,12.2,3.6l0.8,1.4c2.2,3.7,6.4,5.6,10.6,4.8l0,0c3.4-0.6,6.6,1.6,7.2,4.9
						c0,0.3,0.1,0.6,0.1,0.8l0.4,8.7c0.2,5.1,4.6,9.1,9.7,8.9c0.1,0,0.2,0,0.4,0l0,0c2.7-0.2,5.1,1.8,5.4,4.5c0.1,1-0.1,2.1-0.7,3
						L-28.2,125.1z"/>
					<polyline id="Path-141_2_" class="st2" points="-44.8,363.2 -23,126 -49.2,82.2 					"/>
					<g id="Group-5_3_" transform="translate(15.802578, 57.928737)">
						
							<linearGradient id="XMLID_2_" gradientUnits="userSpaceOnUse" x1="-880.9427" y1="-514.7748" x2="-880.9427" y2="-513.5082" gradientTransform="matrix(45.1819 0 0 42.1946 39724.0156 21794.1133)">
							<stop  offset="5.376345e-03" style="stop-color:#D31F33"/>
							<stop  offset="1" style="stop-color:#912334"/>
						</linearGradient>
						<path id="XMLID_48_" class="st3" d="M-50.1,119.2v-16.7c0-4.5-3.4-8.2-7.8-8.6l0,0c-4.8-0.5-8.9-3.6-10.6-8.1l-0.6-1.5
							c-1.9-5-7.3-7.8-12.5-6.3c-1.5,0.4-3,0.8-4.4,1.3c-1-1-2-2-3.1-3l0,0c-4-3.9-10.5-3.9-14.4,0.1l0,0L-105,78
							c-3,3.1-3,8.1,0.1,11.1c0,0,0.1,0.1,0.1,0.1l1.3,1.2c2.7,2.5,3.4,6.6,1.7,9.9l0,0c-1.3,2.6-0.3,5.7,2.2,7
							c0.3,0.2,0.6,0.3,0.9,0.4l9,2.7c4.2,1.2,6.5,5.6,5.3,9.8c-0.1,0.2-0.1,0.4-0.2,0.6l0,0c-0.9,2.3,0.2,4.8,2.5,5.7
							c0.9,0.3,1.8,0.4,2.7,0.2L-50.1,119.2z"/>
						<path id="Path-143_2_" class="st2" d="M-43.6,123.2l-42.9-32.6"/>
					</g>
					
						<g id="XMLID_45_" transform="translate(97.928571, 50.266453) scale(-1, 1) translate(-97.928571, -50.266453) translate(71.428571, 26.266453)">
						
							<linearGradient id="XMLID_3_" gradientUnits="userSpaceOnUse" x1="-149.5415" y1="-514.9742" x2="-149.5415" y2="-513.7077" gradientTransform="matrix(45.1819 0 0 42.1946 6870.3203 21794.1133)">
							<stop  offset="5.376345e-03" style="stop-color:#D31F33"/>
							<stop  offset="1" style="stop-color:#912334"/>
						</linearGradient>
						<path id="XMLID_47_" class="st4" d="M142.3,110.8V94.2c0-4.5-3.4-8.2-7.8-8.6l0,0c-4.8-0.5-8.9-3.6-10.6-8.1l-0.6-1.5
							c-1.9-5-7.3-7.8-12.5-6.3c-1.5,0.4-3,0.8-4.4,1.3c-1-1-2-2-3.1-3l0,0C99.3,64,92.8,64,88.9,68l0,0l-1.5,1.5
							c-3,3.1-3,8.1,0.1,11.1c0,0,0.1,0.1,0.1,0.1l1.3,1.2c2.7,2.5,3.4,6.6,1.7,9.9l0,0c-1.3,2.6-0.3,5.7,2.2,7
							c0.3,0.2,0.6,0.3,0.9,0.4l9,2.7c4.2,1.2,6.5,5.6,5.3,9.8c-0.1,0.2-0.1,0.4-0.2,0.6l0,0c-0.9,2.3,0.2,4.8,2.5,5.7
							c0.9,0.3,1.8,0.4,2.7,0.2L142.3,110.8z"/>
						<path id="XMLID_46_" class="st2" d="M148.8,114.8l-42.9-32.6"/>
					</g>
					
						<linearGradient id="XMLID_4_" gradientUnits="userSpaceOnUse" x1="-879.8988" y1="-514.21" x2="-879.8988" y2="-512.9442" gradientTransform="matrix(56.4774 0 0 52.7432 49619.5273 27320.6738)">
						<stop  offset="5.376345e-03" style="stop-color:#D31F33"/>
						<stop  offset="1" style="stop-color:#912334"/>
					</linearGradient>
					<path id="XMLID_44_" class="st5" d="M-39.1,256.9v-20.8c0-5.6-4.2-10.2-9.8-10.8l0,0c-6-0.6-11.2-4.5-13.3-10.1l-0.7-1.9
						c-2.4-6.3-9.2-9.7-15.6-7.9c-1.8,0.5-3.7,1.1-5.5,1.6c-1.3-1.2-2.5-2.5-3.8-3.7l0,0c-5-4.9-13.1-4.8-18,0.2c0,0,0,0,0,0
						l-1.9,1.9c-3.8,3.9-3.7,10.1,0.2,13.9c0.1,0.1,0.1,0.1,0.2,0.2l1.6,1.5c3.4,3.2,4.3,8.3,2.2,12.4l0,0c-1.7,3.2-0.4,7.1,2.8,8.8
						c0.4,0.2,0.8,0.4,1.1,0.5l11.2,3.3c5.2,1.5,8.2,7,6.7,12.2c-0.1,0.3-0.2,0.5-0.3,0.8l0,0c-1.1,2.8,0.3,6,3.1,7.1
						c1.1,0.4,2.2,0.5,3.4,0.2L-39.1,256.9z"/>
					
						<linearGradient id="XMLID_5_" gradientUnits="userSpaceOnUse" x1="-871.4344" y1="-514.3287" x2="-871.4344" y2="-513.0629" gradientTransform="matrix(-56.4774 0 0 52.7432 -49201.5312 27297.1309)">
						<stop  offset="5.376345e-03" style="stop-color:#D31F33"/>
						<stop  offset="1" style="stop-color:#912334"/>
					</linearGradient>
					<path id="XMLID_43_" class="st6" d="M-20.9,227.1v-20.8c0-5.6,4.2-10.2,9.8-10.8l0,0c6-0.6,11.2-4.5,13.3-10.1l0.7-1.9
						c2.4-6.3,9.2-9.7,15.6-7.9c1.8,0.5,3.7,1.1,5.5,1.6c1.3-1.2,2.5-2.5,3.8-3.7l0,0c5-4.9,13.1-4.8,18,0.2c0,0,0,0,0,0l1.9,1.9
						c3.8,3.9,3.7,10.1-0.2,13.9c-0.1,0.1-0.1,0.1-0.2,0.2l-1.6,1.5c-3.4,3.2-4.3,8.3-2.2,12.4l0,0c1.7,3.2,0.4,7.1-2.8,8.8
						c-0.4,0.2-0.8,0.4-1.1,0.5L28.6,216c-5.2,1.5-8.2,7-6.7,12.2c0.1,0.3,0.2,0.5,0.3,0.8l0,0c1.1,2.8-0.3,6-3.1,7.1
						c-1.1,0.4-2.2,0.5-3.4,0.2L-20.9,227.1z"/>
					<path id="Path-142_2_" class="st2" d="M-32.6,236L34,186.1"/>
					
						<linearGradient id="XMLID_6_" gradientUnits="userSpaceOnUse" x1="-871.4084" y1="-514.0017" x2="-871.4084" y2="-512.736" gradientTransform="matrix(-56.4774 0 0 52.7432 -49207.043 27361.9707)">
						<stop  offset="5.376345e-03" style="stop-color:#D31F33"/>
						<stop  offset="1" style="stop-color:#912334"/>
					</linearGradient>
					<path id="XMLID_42_" class="st7" d="M-27.9,309.2v-20.8c0-5.6,4.2-10.2,9.8-10.8l0,0c6-0.6,11.2-4.5,13.3-10.1l0.7-1.9
						c2.4-6.3,9.2-9.7,15.6-7.9c1.8,0.5,3.7,1.1,5.5,1.6c1.3-1.2,2.5-2.5,3.8-3.7l0,0c5-4.9,13.1-4.8,18,0.2c0,0,0,0,0,0l1.9,1.9
						c3.8,3.9,3.7,10.1-0.2,13.9c-0.1,0.1-0.1,0.1-0.2,0.2l-1.6,1.5c-3.4,3.2-4.3,8.3-2.2,12.4l0,0c1.7,3.2,0.4,7.1-2.8,8.8
						c-0.4,0.2-0.8,0.4-1.1,0.5l-11.2,3.3c-5.2,1.5-8.2,7-6.7,12.2c0.1,0.3,0.2,0.5,0.3,0.8l0,0c1.1,2.8-0.3,6-3.1,7.1
						c-1.1,0.4-2.2,0.5-3.4,0.2L-27.9,309.2z"/>
					<path id="XMLID_41_" class="st2" d="M-39.6,318L27,268.2"/>
					<path id="Path-145_2_" class="st2" d="M-34.3,258.9L-94.8,215"/>
				</g>
			</g>
			<path id="Path-48_8_" class="st0" d="M429.8,110.8c28,70,188.9,98.2,213.5,51.7s-50.1-53.8-92.3-117.4S401.8,40.7,429.8,110.8z"
				/>
			
				<linearGradient id="Path-156_1_" gradientUnits="userSpaceOnUse" x1="-136.0211" y1="-513.7025" x2="-136.0211" y2="-512.4347" gradientTransform="matrix(-566 0 0 54 -76510 28286.582)">
				<stop  offset="0" style="stop-color:#E8EDF9"/>
				<stop  offset="1" style="stop-color:#CDD7EF"/>
			</linearGradient>
			<path id="Path-156" class="st8" d="M823.6,615c0,0-618.7-4-655.1-4c-36.4,0-50.9-36.7-16.7-58c34.3-21.3,46.7,16.3,60.8,24.3
				c14.1,8,26-24.2,79.5,0c10.8,4.9,47.6,20,87,24C535.6,617.1,823.6,615,823.6,615z"/>
			<g id="Group-26_2_" transform="translate(148.000000, 105.000000)">
				<ellipse id="Oval_8_" class="st9" cx="591.5" cy="444.1" rx="58.7" ry="58.7"/>
				<ellipse id="XMLID_40_" class="st10" cx="591.5" cy="441.7" rx="33.8" ry="33.8"/>
				
					<linearGradient id="Rectangle_1_" gradientUnits="userSpaceOnUse" x1="-400.9954" y1="-508.5056" x2="-400.9954" y2="-507.2395" gradientTransform="matrix(9.4364 -5.0174 14.1911 26.6895 11573.0684 11984.3828)">
					<stop  offset="0" style="stop-color:#FFFFFF"/>
					<stop  offset="1" style="stop-color:#E5E9F4"/>
				</linearGradient>
				<path id="Rectangle_8_" class="st11" d="M570.2,426l5.2-2.8c1.8-1,4.1-0.3,5.1,1.6l14.4,27.1c1,1.8,0.3,4.2-1.6,5.1l0,0
					l-5.2,2.8c-1.8,1-4.1,0.3-5.1-1.6l-14.4-27.1C567.7,429.3,568.4,427,570.2,426C570.2,426,570.2,426,570.2,426z"/>
				<path id="XMLID_39_" class="st12" d="M552.2,403.3l15.7-8.3c0.6-0.3,1.4-0.1,1.7,0.5l24.2,45.5c0.3,0.6,0.1,1.4-0.5,1.7l0,0
					l-15.7,8.3c-0.6,0.3-1.4,0.1-1.7-0.5L551.7,405C551.4,404.4,551.6,403.7,552.2,403.3L552.2,403.3z"/>
				<path id="XMLID_38_" class="st12" d="M574.8,396.7l11.7-6.2c0.6-0.3,1.4-0.1,1.7,0.5l17.8,33.5c0.3,0.6,0.1,1.4-0.5,1.7l0,0
					l-11.7,6.2c-0.6,0.3-1.4,0.1-1.7-0.5l-17.8-33.5C573.9,397.8,574.1,397,574.8,396.7L574.8,396.7z"/>
				<ellipse id="XMLID_37_" class="st9" cx="233.1" cy="448.8" rx="58.7" ry="58.7"/>
				<ellipse id="XMLID_36_" class="st10" cx="235.5" cy="448.8" rx="33.8" ry="33.8"/>
				<path id="Path_8_" class="st13" d="M179.5,472.8c-3.3-7.3-5.1-15.5-5.1-24.1c0-1.2,0-2.4,0.1-3.6l117.2-1.1
					c0.1,1.5,0.2,3.1,0.2,4.7c0,8.6-1.8,16.7-5.1,24.1L179.5,472.8L179.5,472.8z"/>
				
					<linearGradient id="Path-155_2_" gradientUnits="userSpaceOnUse" x1="-427.9122" y1="-515.4558" x2="-427.9122" y2="-514.1897" gradientTransform="matrix(90.9375 0 0 36.5208 39344.543 18994.4883)">
					<stop  offset="0" style="stop-color:#F6A667"/>
					<stop  offset="1" style="stop-color:#DB6F39"/>
				</linearGradient>
				<path id="Path-155_1_" class="st14" d="M387.1,185.9c0,0,71.8-16.2,83.1-16.2s17.3,1.4,18.5,6.1c0.8,3.1-5.3,8.6-18.5,16.6
					l-96.5,23.6C382.7,195.9,387.1,185.9,387.1,185.9z"/>
				<path id="Path-157_2_" class="st13" d="M532.8,444.1c22.8,3.5,39.1-1,49.1-13.6s26.2-22.4,48.6-29.2
					c-15.9-14.1-31-17.9-45.3-11.3c-10.2,4.7-35.9,5.4-45.3,22.7C535.1,421.4,532.8,431.9,532.8,444.1z"/>
				
					<linearGradient id="Path-128_1_" gradientUnits="userSpaceOnUse" x1="-428.0282" y1="-513.9459" x2="-428.0282" y2="-512.6799" gradientTransform="matrix(103.125 0 0 63.6772 44723 33076.4492)">
					<stop  offset="5.376345e-03" style="stop-color:#D31F33"/>
					<stop  offset="1" style="stop-color:#912334"/>
				</linearGradient>
				<path id="Path-128_2_" class="st15" d="M517.3,428.1c6.1-45.6,25.5-71.2,58.2-76.9c32.7-5.7,56.8,6.5,72.3,36.5
					c-20.5-7.2-42.2-0.7-65.3,19.6C559.5,427.6,537.8,434.5,517.3,428.1z"/>
				
					<linearGradient id="XMLID_7_" gradientUnits="userSpaceOnUse" x1="-427.1465" y1="-513.835" x2="-427.1465" y2="-512.5845" gradientTransform="matrix(81.578 0 0 61.2768 35414.7188 31846.668)">
					<stop  offset="5.376345e-03" style="stop-color:#D31F33"/>
					<stop  offset="1" style="stop-color:#912334"/>
				</linearGradient>
				<path id="XMLID_35_" class="st16" d="M568.2,352.9l3.4,1.2c-16.5,26.4-22,42.8-16.5,49.1c8.2,9.5,45.2-21.3,65.2-17.2
					c0,0,0.1,0,0.2,0c-12.3,2.7-24.9,9.7-38,21.3c-23.1,20.3-44.8,27.3-65.3,20.8C523,386,539.9,361,568.2,352.9z"/>
				
					<linearGradient id="Path-136_1_" gradientUnits="userSpaceOnUse" x1="-426.9721" y1="-514.7751" x2="-426.9721" y2="-513.5094" gradientTransform="matrix(75 0 0 56.1858 32517.6875 29073.7207)">
					<stop  offset="5.376345e-03" style="stop-color:#D31F33"/>
					<stop  offset="1" style="stop-color:#912334"/>
				</linearGradient>
				<path id="Path-136_2_" class="st17" d="M449.2,187.8c-2.5,4.8-2.5,9.3,0,13.7c3.8,6.5,8.8,1.4,16.6,0c5.2-1,10.9-1.9,17.3-2.8
					l9.5,23l15.7-8l-3.5-15.1c13.8,0,22.5,0,26.3,0c5.6,0,11.2-12.1,11.2-28.8c0-16.7-7.9-19.3-11.2-19.3c-3.3,0-21.5-0.4-34.7,14.6
					C487.5,175.3,471.8,182.8,449.2,187.8z"/>
				<polygon id="Path-138_2_" class="st18" points="482.9,199.3 504.5,199.3 506.6,207.9 490.2,218.2 				"/>
				<path id="XMLID_34_" class="st19" d="M532.6,150.7c3.6,0.6,9.6,4.3,9.6,19.3c0,14.2-3.9,25.1-8.3,28.1c-3.2-6-4.7-13.2-4.7-21.6
					C529.2,167,530.3,158.4,532.6,150.7L532.6,150.7z"/>
				<path id="Path-131_1_" class="st20" d="M177.9,371.2v-32.5c0-6.3,5.1-11.4,11.4-11.4h32.5L177.9,371.2z"/>
				
					<linearGradient id="Path-127_1_" gradientUnits="userSpaceOnUse" x1="-430.593" y1="-513.6776" x2="-430.593" y2="-512.4117" gradientTransform="matrix(342.1875 0 0 191.0318 147698.875 98335.125)">
					<stop  offset="5.376345e-03" style="stop-color:#D31F33"/>
					<stop  offset="1" style="stop-color:#912334"/>
				</linearGradient>
				<path id="Path-127_2_" class="st21" d="M138.7,439.8c15.4-52.7,46.5-95.3,93.1-127.7h174.3v18.2c0,4.2-2.6,8-6.6,9.5
					c-27.3,10.2-42.8,24.6-46.5,43.2c-4,20,1.4,33.9,16,41.7h128.4c5.6,0,10.7-3.4,12.9-8.6l12.6-30.5c10.3-24.9,9.6-53-1.9-77.4
					L484.7,231c-2.2-4.6-0.6-10.1,3.7-12.8l18.4-11.8c13.8,24.8,24.6,47.9,32.2,69.5c11.4,32.4,11.6,49.9,32.9,55.7V353
					c-10.1,6.3-19.8,18.2-29,35.7c-13.8,26.3-18.3,59.4-62,59.4c-51.4,0-102.9,0-154.3,0l0,0c-7.8,0-15.3-3-21-8.4l0,0L138.7,439.8
					L138.7,439.8z"/>
				<path id="XMLID_33_" class="st19" d="M514.3,242.8L514.3,242.8c3.2-1.4,6.9,0.1,8.3,3.4l8.9,21c1.4,3.2-0.1,6.9-3.4,8.3l0,0
					c-3.2,1.4-6.9-0.1-8.3-3.4l-8.9-21C509.6,247.9,511.1,244.2,514.3,242.8z"/>
				<ellipse id="XMLID_32_" class="st19" cx="571.7" cy="342.8" rx="4.3" ry="11.3"/>
				<path id="Path-129_2_" class="st10" d="M231.3,311.9l-6.1-32c-1.4-7.6,3.5-14.8,11.1-16.3c1.2-0.2,2.4-0.3,3.6-0.2
					c82.8,5.9,128.3,9.9,136.5,11.8c13.1,3.1,40,13.9,40,23.6s1.2,13.2-9.8,13.2C399.3,311.9,340.9,311.9,231.3,311.9z"/>
				
					<linearGradient id="XMLID_8_" gradientUnits="userSpaceOnUse" x1="-429.267" y1="-514.8706" x2="-429.267" y2="-513.6051" gradientTransform="matrix(135 0 0 37.4572 58264.25 19550.0898)">
					<stop  offset="0" style="stop-color:#453A3F"/>
					<stop  offset="1" style="stop-color:#5B5054"/>
				</linearGradient>
				<path id="XMLID_31_" class="st22" d="M290.8,267.3c8.3,14.1,20.6,23.7,36.8,28.8c27,8.5,58-4.3,71,15.8h-167l-3.4-17.9
					c-2.6-13.5,6.2-26.5,19.6-29.1c2.1-0.4,4.3-0.5,6.4-0.4C267.5,265.5,279.7,266.4,290.8,267.3z"/>
				<path id="XMLID_30_" class="st23" d="M194,387.7h93.5c11.5,0,20.9,9.4,20.9,20.9v32.9c0,11.5-9.4,20.9-20.9,20.9H194
					c-11.5,0-20.9-9.4-20.9-20.9v-32.9C173.2,397.1,182.5,387.7,194,387.7z"/>
				<path id="Path-139_1_" class="st24" d="M322,223c-13,21.7-9.4,39.3,10.9,52.8c20.3,13.5,60.2,15.9,119.7,7.1l-42.4,119.5
					l40.2,10.3l51-122.9c4.8-11.5,3.4-24.7-3.7-35l0,0c-7.2-10.5-18.7-17.2-31.3-18.3L322,223z"/>
				
					<linearGradient id="Path-130_1_" gradientUnits="userSpaceOnUse" x1="-429.7055" y1="-512.5391" x2="-429.7055" y2="-513.8051" gradientTransform="matrix(159.375 0 0 93.643 68723.9297 48435.6289)">
					<stop  offset="0" style="stop-color:#D31F33"/>
					<stop  offset="1" style="stop-color:#912334"/>
				</linearGradient>
				<path id="Path-130_2_" class="st25" d="M305.8,439.9c35.8-40.5,43.8-73.7,24.3-99.5c-29.3-38.7-107-12.1-149.2,22.3
					c-28.1,22.9-42.2,48.6-42.2,77.2L305.8,439.9L305.8,439.9z"/>
				
					<linearGradient id="XMLID_9_" gradientUnits="userSpaceOnUse" x1="-429.0132" y1="-513.4893" x2="-429.0132" y2="-512.4948" gradientTransform="matrix(112.5 0 0 85.2152 48473.9375 44117.9414)">
					<stop  offset="5.376345e-03" style="stop-color:#D31F33"/>
					<stop  offset="1" style="stop-color:#912334"/>
				</linearGradient>
				<path id="XMLID_29_" class="st26" d="M281.2,439.9H138.7c0-28.7,14-54.5,42.1-77.4c14.5-11.9,33.2-22.8,52.7-30.5
					c-33.8,30.5-40.7,56.7-20.7,78.5C228.4,427.6,251.2,437.4,281.2,439.9L281.2,439.9z"/>
				<path id="Path-132_2_" class="st18" d="M490.3,217.1L490.3,217.1l41.6,89.6c10.8,23.3,10.6,50.2-0.5,73.4l-27.7,57.5
					c-3.2,6.6-9.8,10.8-17.1,10.8h-1.1l35.6-73.1c9.7-20.2,9.8-43.5,0.4-63.8l-36.3-78.4C482.6,227.1,484.8,220.2,490.3,217.1z"/>
				<path id="XMLID_28_" class="st19" d="M126.2,162.5h116.6c3.5,0,6.3,2.8,6.3,6.3v88.1c0,3.5-2.8,6.3-6.3,6.3H126.2
					c-4.2,0-7.6-3.4-7.6-7.6v-85.6C118.6,165.9,122,162.5,126.2,162.5z"/>
				
					<linearGradient id="Path-133_2_" gradientUnits="userSpaceOnUse" x1="-428.4103" y1="-514.3117" x2="-428.4103" y2="-513.0458" gradientTransform="matrix(88.125 0 0 79.5966 37928 41099.9805)">
					<stop  offset="0" style="stop-color:#FFE78A"/>
					<stop  offset="1" style="stop-color:#FDC952"/>
				</linearGradient>
				<path id="Path-133_1_" class="st27" d="M136.8,162.5c21.7,9.2,33.9,24.4,36.8,45.9s21.7,39.7,56.5,54.9h-104
					c-4.2,0-7.6-3.4-7.6-7.6v-85.6c0-4.2,3.4-7.6,7.6-7.6H136.8z"/>
				<circle id="XMLID_27_" class="st28" cx="183.1" cy="213.8" r="34.2"/>
				<path id="Path-134_2_" class="st29" d="M149.4,271.6v27.6c0,7,5.7,12.7,12.7,12.7h82.3"/>
				<path id="XMLID_26_" class="st29" d="M217.1,271.6v27.6c0,7,5.7,12.7,12.7,12.7h183.2"/>
				<path id="Path-135_1_" class="st29" d="M138.7,271.6h91.4"/>
				<path id="Path-137_2_" class="st10" d="M471.3,203.8c2.8-4.2,2.8-8.9,0-14.1c-2.8-5.2-6.3-6.9-10.5-5.2
					c-18.1,4.2-27.8,7.3-29.1,9.3c-1.9,3.1-1.9,16.1,7.7,16.1c5.1,0,10.8-1.8,21.3-4.5C462.5,205,466,204.5,471.3,203.8z"/>
				
					<linearGradient id="Path-148_2_" gradientUnits="userSpaceOnUse" x1="-422.5276" y1="-515.8684" x2="-422.5276" y2="-514.6028" gradientTransform="matrix(35.625 0 0 40.2665 15452.375 20824.4922)">
					<stop  offset="0" style="stop-color:#FAC599"/>
					<stop  offset="1" style="stop-color:#F29262"/>
				</linearGradient>
				<path id="Path-148_1_" class="st30" d="M422.4,54c-4.5,28-8.1,43-10.9,45.1c-2.8,2.1-6.9,1.3-12.3-2.4l-5.6,6.5l-16.3-4.1
					l11.6-23.2c-3.1-3-4.7-5.7-4.7-8.3c0-3.8,1.9-6.5,7.7-3.8c1.8,0.9,2.2,4.3,3,5.3c1.8,2.1,2.6,1.1,2.6-3.3c0-6.5,2-11.3,7.9-13
					C409.5,51.8,415.1,52.1,422.4,54z"/>
				
					<linearGradient id="Path-151_2_" gradientUnits="userSpaceOnUse" x1="-417.183" y1="-518.0028" x2="-417.183" y2="-516.7373" gradientTransform="matrix(22.5 0 0 21.5379 9798.3125 11218.4561)">
					<stop  offset="0" style="stop-color:#FFFFFF"/>
					<stop  offset="1" style="stop-color:#E5E9F4"/>
				</linearGradient>
				<path id="Path-151_1_" class="st31" d="M425.9,64.5C423,80.9,420.2,89,417.3,89c-2.9,0-9.5-4.1-19.9-12.3l7.2-15L425.9,64.5z"/>
				<path id="Path-154_1_" class="st24" d="M415.5,404.3c-4.4,13.2-7.2,22.8-8.5,28.8c-1.9,9,58.1,6.4,65,6.4c7,0,7.9-15.5-6.5-17.4
					c-9.6-1.3-15.5-5.2-17.9-11.7L415.5,404.3z"/>
				<path id="XMLID_25_" class="st10" d="M398.9,401.2c-4.4,14.4-7.2,24.8-8.5,31.4c-1.9,9.8,58.1,7,65,7s7.9-16.9-6.5-19
					c-9.6-1.4-15.5-5.6-17.9-12.7L398.9,401.2z"/>
				<path id="XMLID_24_" class="st32" d="M309,223c-13,21.7-9.4,39.3,10.9,52.8c20.3,13.5,60.2,15.9,119.7,7.1l-42.4,119.5
					l40.2,10.3l51-122.9c4.8-11.5,3.4-24.7-3.7-35l0,0c-7.2-10.5-18.7-17.2-31.3-18.3L309,223z"/>
				<path id="Path-153_1_" class="st33" d="M351.8,219.4c-8.4,31.7-4.1,47.5,13.1,47.5s48.2,1.2,93.2,3.6l-53.4,132.6"/>
				<path id="Path-149_1_" class="st32" d="M402.2,112.7c0-4.1-2.6-7.9-7.9-11.5c-7.9-5.4-16.9-9.9-19.3-8.3
					c-1.6,1.1-3.2,3.3-4.9,6.5L402.2,112.7z"/>
				
					<linearGradient id="Path-140_2_" gradientUnits="userSpaceOnUse" x1="-427.5612" y1="-514.2002" x2="-427.5612" y2="-512.9343" gradientTransform="matrix(78.75 0 0 104.8802 34025.1758 54026.7383)">
					<stop  offset="0" style="stop-color:#FFFFFF"/>
					<stop  offset="1" style="stop-color:#E5E9F4"/>
				</linearGradient>
				<path id="Path-140_1_" class="st34" d="M308.3,223.2c-4.5-4.3-4.5-8.8,0-13.8c6.7-7.4,21.9-84.2,36-97.3
					c9.4-8.7,18.4-13.7,27.1-14.8c12.3,4.1,21.4,7.6,27.5,10.5c6,2.9,7.3,4.3,3.7,4.4c1.2,19.6,0.7,34.3-1.4,44.1
					c-3.2,14.7-19.3,50.8-19.3,73.8L308.3,223.2z"/>
				
					<linearGradient id="XMLID_10_" gradientUnits="userSpaceOnUse" x1="-425.7815" y1="-514.2469" x2="-425.7815" y2="-512.981" gradientTransform="matrix(53.6498 0 0 99.7306 23181.9277 51383.4531)">
					<stop  offset="0" style="stop-color:#E8EDF9"/>
					<stop  offset="1" style="stop-color:#CDD7EF"/>
				</linearGradient>
				<path id="XMLID_23_" class="st35" d="M372.8,97.8c-17.7,9.1-29.2,22.9-34.4,41.4c-7.9,28.2-23.4,76.7-26.4,83.8
					c-0.1,0.2-0.2,0.4-0.3,0.6l-3.5-0.3c-4.5-4.3-4.5-8.8,0-13.8c6.7-7.4,21.9-84.2,36-97.3c9.4-8.7,18.4-13.7,27.1-14.8
					C371.9,97.5,372.4,97.6,372.8,97.8z"/>
				
					<linearGradient id="Path-146_2_" gradientUnits="userSpaceOnUse" x1="-423.0826" y1="-514.9072" x2="-423.0826" y2="-513.6412" gradientTransform="matrix(37.5 0 0 57.1223 16246.4277 29520.668)">
					<stop  offset="0" style="stop-color:#FFFFFF"/>
					<stop  offset="1" style="stop-color:#E5E9F4"/>
				</linearGradient>
				<path id="Path-146_1_" class="st36" d="M385,109c15.2-4,23.2,4,17.9,31.6c-3.5,18.4-6.3,31.6-8.5,39.8l-37.4-5.2
					C365.6,133.7,374.9,111.6,385,109z"/>
				
					<linearGradient id="XMLID_11_" gradientUnits="userSpaceOnUse" x1="-421.3303" y1="-515.0189" x2="-421.3303" y2="-513.753" gradientTransform="matrix(30.9537 0 0 53.3993 13418.4189 27609.6348)">
					<stop  offset="0" style="stop-color:#FFFFFF"/>
					<stop  offset="1" style="stop-color:#CDD7EF"/>
				</linearGradient>
				<path id="XMLID_22_" class="st37" d="M396.3,108.7c-13.3,6.6-22,16.8-26.1,30.5c-3.9,13-7,25.1-9.4,36.4l-3.7-0.5
					c8.5-41.4,17.8-63.5,27.9-66.1C389.4,107.8,393.2,107.6,396.3,108.7L396.3,108.7z"/>
				
					<linearGradient id="Path-147_2_" gradientUnits="userSpaceOnUse" x1="-428.2559" y1="-514.6641" x2="-428.2559" y2="-513.3981" gradientTransform="matrix(99.375 0 0 57.1222 42970.8242 29573.1211)">
					<stop  offset="0" style="stop-color:#FAC599"/>
					<stop  offset="1" style="stop-color:#F29262"/>
				</linearGradient>
				<path id="Path-147_1_" class="st38" d="M391.2,179.6l-9.5,33.2c24.1-14.9,43.3-24.6,57.7-29c2.2-0.7,3.3-3.7,5.3-4.2
					c1.8-0.4,4.5,0.3,6.1,0c2.1-0.3,5.4-1.8,7.2-1.9c2.4-0.1,4.5,1.5,6.2,1.9c5.1,1.3,7.5,3.1,9.7,6.6c4.4,6.8,1.1,20.4-4.8,21.7
					c-5.9,1.2-12.4,4.9-16.7,4.9c-3.4,0-14-3.6-4.4-4.9c-4.3-5.6-4.7-17.4-10.6-17.4c-8.3,0-7.1,12-4.4,14.7
					c-24.6,26.6-46.8,40.4-66.6,41.5c-19.8,1.1-21.6-23-5.3-72.3L391.2,179.6z"/>
				<path id="XMLID_21_" class="st39" d="M429.3,208.9c-23.2,24.1-44.2,36.7-63,37.7c-19.7,1.1-21.6-22.8-5.5-71.8l5.1,0.4
					c-12.8,40.4-14.7,61.7-5.7,64C372.5,242.3,414.7,222,429.3,208.9L429.3,208.9z"/>
				<path id="Path-152_1_" class="st19" d="M390.3,89.1c0,0,9.1,10.9,13,12.4c2.6,1,4.2,0.7,4.8-0.8l-12.7-16.4
					C392,87.5,390.3,89.1,390.3,89.1z"/>
				<path id="Path-2_5_" class="st40" d="M459.1,161.9c8.7,4,13.8,10.7,15.4,20.2"/>
				
					<ellipse id="XMLID_20_" transform="matrix(0.9936 -0.1126 0.1126 0.9936 -15.2794 52.005)" class="st41" cx="452.7" cy="161.3" rx="12.7" ry="12"/>
				<path id="Path-150_1_" class="st32" d="M387.5,89.7c-8.6-3.3-22.6-10.8-20.4-30.6c2.2-19.8,17-37.9,42.3-28.7
					c16.9,6.1,22.9,17.9,18.1,35.4l-20.6,1C399.6,84.3,393.2,91.9,387.5,89.7z"/>
				<path id="XMLID_19_" class="st41" d="M401.2,28.3c-5.9,1.4-11.5,6.6-16.7,15.7c-7.7,13.2-1.5,23.7,18.5,31.4
					c-4,8.1-7.8,12.9-11.4,14.3c-0.2,0.1-0.3,0.1-0.5,0.2c-1.2,0.4-2.4,0.3-3.6-0.1c-8.6-3.3-22.6-10.8-20.4-30.6
					C369,41.6,380.8,25.4,401.2,28.3L401.2,28.3z"/>
				<path id="XMLID_18_" class="st19" d="M205.3,378.3h67.4c0.7,0,1.3,0.6,1.3,1.3v2.1c0,0.7-0.6,1.3-1.3,1.3h-67.4
					c-0.7,0-1.3-0.6-1.3-1.3v-2.1C204,378.9,204.6,378.3,205.3,378.3z"/>
				<path id="XMLID_17_" class="st19" d="M205.3,390.1h67.4c0.7,0,1.3,0.6,1.3,1.3v2.1c0,0.7-0.6,1.3-1.3,1.3h-67.4
					c-0.7,0-1.3-0.6-1.3-1.3v-2.1C204,390.7,204.6,390.1,205.3,390.1z"/>
				<path id="XMLID_16_" class="st19" d="M205.3,400.8h67.4c0.7,0,1.3,0.6,1.3,1.3v2.1c0,0.7-0.6,1.3-1.3,1.3h-67.4
					c-0.7,0-1.3-0.6-1.3-1.3v-2.1C204,401.4,204.6,400.8,205.3,400.8z"/>
				<path id="XMLID_129_" class="st42" d="M160.5,220.2l5.1-9.1c1.4-1.8,0-3.2,0-3.2l-3.5-5.9c-0.9-2.7,2.3-3.3,2.3-3.3h6.1
					c2.4-0.1,2.8,1.4,2.8,1.4l4.9,8c0.9,1.7,0,2.6,0,2.6l-6.3,11.2c-1.1,2.5-2.5,2.4-2.5,2.4h-6.8
					C159,223.9,160.5,220.2,160.5,220.2z M189.3,220.7c-0.5-0.9-0.5-1.9,0-2.8l13.3-23.1c1.1-1.9-0.3-4.3-2.5-4.3l-5.7,0
					c-1,0-2,0.5-2.5,1.4l-14.9,25.9c-0.5,0.9-0.5,1.9,0,2.8l9.1,16.2c0.4,0.7,1.2,1.2,2,1.2h6c2.2,0,3.6-2.4,2.5-4.3L189.3,220.7z"
					/>
			</g>
		</g>
	</g>
</g>
</svg>
