<?xml version="1.0" encoding="utf-8"?>
<!-- Generator: Adobe Illustrator 25.1.0, SVG Export Plug-In . SVG Version: 6.00 Build 0)  -->
<svg version="1.1" id="Laag_1" xmlns="http://www.w3.org/2000/svg" xmlns:xlink="http://www.w3.org/1999/xlink" x="0px" y="0px"
	 viewBox="0 0 900 700" style="enable-background:new 0 0 900 700;" xml:space="preserve">
<style type="text/css">
	.st0{fill-rule:evenodd;clip-rule:evenodd;fill:#FFF1DC;}
	.st1{fill-rule:evenodd;clip-rule:evenodd;fill:#D9E2F4;}
	.st2{fill-rule:evenodd;clip-rule:evenodd;fill:#5674B8;}
	.st3{fill-rule:evenodd;clip-rule:evenodd;fill:url(#Path-83_1_);}
	.st4{fill-rule:evenodd;clip-rule:evenodd;fill:#F39972;}
	.st5{fill-rule:evenodd;clip-rule:evenodd;fill:#E49368;}
	.st6{fill-rule:evenodd;clip-rule:evenodd;fill:#585B5E;}
	.st7{fill-rule:evenodd;clip-rule:evenodd;fill:#C9D9F1;}
	.st8{fill-rule:evenodd;clip-rule:evenodd;fill:#FFFFFF;}
	.st9{fill-rule:evenodd;clip-rule:evenodd;fill:#DDE7F7;}
	.st10{fill-rule:evenodd;clip-rule:evenodd;fill:#3660AA;}
	.st11{fill:none;stroke:#8BACDB;stroke-width:1.8;}
	.st12{fill-rule:evenodd;clip-rule:evenodd;fill:url(#Path-85_1_);}
	.st13{fill-rule:evenodd;clip-rule:evenodd;fill:url(#Path-84_1_);}
	.st14{fill-rule:evenodd;clip-rule:evenodd;fill:url(#SVGID_1_);}
	.st15{fill-rule:evenodd;clip-rule:evenodd;fill:#7C97CE;}
	.st16{fill-rule:evenodd;clip-rule:evenodd;fill:#4F71B6;}
	.st17{fill-rule:evenodd;clip-rule:evenodd;fill:#D8E1F4;}
	.st18{fill-rule:evenodd;clip-rule:evenodd;fill:url(#SVGID_2_);}
	.st19{fill-rule:evenodd;clip-rule:evenodd;fill:#D81F28;}
	.st20{fill-rule:evenodd;clip-rule:evenodd;fill:#902233;}
	.st21{fill:#E94C5C;}
	.st22{fill:#E73845;}
	.st23{fill:url(#SVGID_3_);}
	.st24{fill:url(#SVGID_4_);}
	.st25{fill:#F49649;}
	.st26{fill:#F1852E;}
	.st27{fill:#F8B983;}
	.st28{fill:#F6A765;}
	.st29{fill:#FBCAA0;}
	.st30{fill:#FDDBBF;}
	.st31{fill-rule:evenodd;clip-rule:evenodd;fill:url(#SVGID_5_);}
	.st32{fill-rule:evenodd;clip-rule:evenodd;fill:url(#SVGID_6_);}
	.st33{fill-rule:evenodd;clip-rule:evenodd;fill:url(#SVGID_7_);}
	.st34{fill:url(#SVGID_8_);}
	.st35{fill:url(#SVGID_9_);}
	.st36{fill:none;stroke:#FFFFFF;stroke-width:3;}
	.st37{fill:#FFFFFF;}
	.st38{fill-rule:evenodd;clip-rule:evenodd;fill:url(#SVGID_10_);}
	.st39{fill:#446C2B;}
	.st40{fill:url(#SVGID_11_);}
	.st41{fill:url(#SVGID_12_);}
	.st42{fill-rule:evenodd;clip-rule:evenodd;fill:url(#SVGID_13_);}
	.st43{fill-rule:evenodd;clip-rule:evenodd;fill:url(#SVGID_14_);}
	.st44{fill:#E84134;}
	.st45{fill-rule:evenodd;clip-rule:evenodd;fill:#EC6148;}
	.st46{fill-rule:evenodd;clip-rule:evenodd;fill:#C82426;}
	.st47{fill:url(#SVGID_15_);}
	.st48{fill:#A5703F;}
	.st49{fill-rule:evenodd;clip-rule:evenodd;fill:#FDC952;}
	.st50{fill-rule:evenodd;clip-rule:evenodd;fill:url(#Path-88_1_);}
</style>
<g id="Page-1_1_">
	<g id="Food-subscription" transform="translate(-111.000000, -94.000000)">
		<g transform="translate(111.000000, 94.000000)">
			<path id="Path-47_1_" class="st0" d="M67.6,250.9c-79.6,152.6,35.1,325.8,290,327.2c254.9,1.4,546.5-44,487.3-202.4
				c-59.3-158.5-282-0.9-401.8-127.3S147.2,98.3,67.6,250.9z"/>
			<path id="Path-48_1_" class="st0" d="M545.1,191.9c26.8,67,180.7,94,204.1,49.5c23.5-44.5-47.9-51.5-88.3-112.4
				S518.4,124.9,545.1,191.9z"/>
			<path id="Path-65" class="st1" d="M176.7,437.5l-36,83.7c37.2,20.4,63.3,33,78.3,37.8c65.8,21,99.8,19.1,99.8,19.1
				s15-45.5,45.1-136.6L176.7,437.5z"/>
			<ellipse id="Oval_1_" class="st2" cx="269.7" cy="439.6" rx="94.3" ry="21.8"/>
			
				<linearGradient id="Path-83_1_" gradientUnits="userSpaceOnUse" x1="-140.1245" y1="-513.7077" x2="-140.1245" y2="-512.3009" gradientTransform="matrix(203.9998 0 0 291 28961.9707 149542.3906)">
				<stop  offset="0" style="stop-color:#FAC599"/>
				<stop  offset="1" style="stop-color:#F29262"/>
			</linearGradient>
			<path id="Path-83" class="st3" d="M251.8,461.9c-59.4-3.9,41.7-304.1,43.9-261.1c68.5-55,107.8-86.4,117.8-94.4
				c8.7-6.8,22.1-22.3,40.3-46.3l0,0c5.2-6.9,14.9-8.7,22.2-4.1l0,0c7.2,4.5,9.4,14,4.9,21.3l-30.5,49.1l-36.9,40.9l80.6-77.4
				c6-5.8,15.5-5.6,21.3,0.3l0,0c6,6,6.3,15.6,0.9,22l-81.8,96.8l15.9,39.1c1.5,23.1-2.7,38.7-12.5,46.6c-9.8,8-34,31.9-72.5,71.9
				l-21.6,87.3C322,461.8,291.4,464.5,251.8,461.9z"/>
			<path id="Path-97" class="st4" d="M445.5,194.1l0.7-64.8l43.3-37.6c6.9-6,16.9-6.7,24.6-1.7l0,0c6.3,4.1,8.1,12.5,4,18.7
				c-0.3,0.5-0.7,1-1.1,1.4L445.5,194.1z"/>
			<polygon id="Path-94" class="st5" points="292.5,317.9 268.3,343.3 389.3,326.8 			"/>
			
				<g id="Mobile" transform="translate(238.000000, 127.500000) scale(-1, 1) translate(-238.000000, -127.500000) translate(179.000000, 24.000000)">
				<path id="Rectangle_1_" class="st6" d="M-138,9.8H-9.3c7,0,12.7,5.7,12.7,12.7c0,0,0,0,0,0L2.8,288.3c0,7-5.7,12.6-12.7,12.6
					h-128.7c-7,0-12.7-5.7-12.7-12.7c0,0,0,0,0,0l0.6-265.9C-150.6,15.4-145,9.8-138,9.8z"/>
				<path class="st7" d="M-3.4,39.2L-3.4,39.2c1.3,0,2.3,1,2.3,2.3v56.6c0,1.3-1,2.3-2.3,2.3l0,0c-1.3,0-2.3-1-2.3-2.3V41.5
					C-5.7,40.2-4.7,39.2-3.4,39.2z"/>
				<path class="st8" d="M-2.3,39.2L-2.3,39.2c1.3,0,2.3,1,2.3,2.3v56.6c0,1.3-1,2.3-2.3,2.3l0,0c-1.3,0-2.3-1-2.3-2.3V41.5
					C-4.5,40.2-3.5,39.2-2.3,39.2z"/>
				<path class="st9" d="M-149.3,9.8h128.7c7,0,12.7,5.7,12.7,12.7c0,0,0,0,0,0l-0.6,265.9c0,7-5.7,12.6-12.7,12.6h-128.7
					c-7,0-12.7-5.7-12.7-12.7c0,0,0,0,0,0l0.6-265.9C-162,15.4-156.3,9.8-149.3,9.8z"/>
				<g transform="translate(47.684932, 192.501946)">
					<g id="Mask_1_">
						<path class="st10" d="M-135.2,96c4.4,0,8,0,8,0S-130.8,96-135.2,96c-4.4,0-8,0-8,0S-139.6,96-135.2,96z"/>
					</g>
					<path class="st8" d="M-133,96c4.4,0,8,0,8,0S-128.6,96-133,96c-4.4,0-8,0-8,0S-137.4,96-133,96z"/>
				</g>
				<g transform="translate(3.232877, 3.221790)">
					<g>
						<path class="st8" d="M-148.6,11.1h31.8c1.9,0,3.7,1.3,4.2,3.1l0,0c0.6,1.8,2.3,3.1,4.2,3.1H-73c2.5,0,4.9-1.1,6.5-3.1l0,0
							c1.6-2,3.9-3.1,6.5-3.1h31.1c7,0,12.6,5.6,12.7,12.6l0.5,236.4c0,7-5.6,12.7-12.6,12.7c0,0,0,0,0,0h-119.7
							c-7,0-12.6-5.6-12.7-12.6l-0.5-236.4C-161.3,16.8-155.6,11.1-148.6,11.1C-148.6,11.1-148.6,11.1-148.6,11.1z"/>
					</g>
					<path class="st7" d="M-22.2,54.1H97.9c3.9,0,7,3.2,7,7v171.8c0,3.9-3.2,7-7,7H-22.2c-3.9,0-7-3.2-7-7V61.2
						C-29.3,57.3-26.1,54.1-22.2,54.1z"/>
					<path class="st7" d="M-166.6,51.9h120.1c3.9,0,7,3.2,7,7v171.8c0,3.9-3.2,7-7,7h-120.1c-3.9,0-7-3.2-7-7V58.9
						C-173.7,55-170.5,51.9-166.6,51.9z"/>
				</g>
				<path class="st6" d="M-95.9,15.4h23.6c0.4,0,0.7,0.3,0.7,0.7l0,0c0,0.4-0.3,0.7-0.7,0.7h-23.6c-0.4,0-0.7-0.3-0.7-0.7l0,0
					C-96.6,15.7-96.3,15.4-95.9,15.4z"/>
				<path class="st6" d="M-102.9,16c0.9,0,1.7,0,1.7,0S-102,16-102.9,16c-0.9,0-1.7,0-1.7,0S-103.8,16-102.9,16z"/>
				<path id="Path-106" class="st11" d="M-4.5,69.8H0"/>
			</g>
			
				<linearGradient id="Path-85_1_" gradientUnits="userSpaceOnUse" x1="-135.1887" y1="-514.6306" x2="-135.1887" y2="-513.2239" gradientTransform="matrix(47.9676 0 0 50.5469 6937.8569 26238.0703)">
				<stop  offset="0" style="stop-color:#FAC599"/>
				<stop  offset="1" style="stop-color:#F29262"/>
			</linearGradient>
			<path id="Path-85" class="st12" d="M462.6,225.1l20,17.6c4.6,4,5.7,10.8,2.5,16.1l-0.2,0.3c-3.4,5.8-8.3,10.6-14,14l-36.1,21.7
				c-4.6,2.7-10.5,1.5-13.5-3l0,0c-3.1-4.5-2.4-10.6,1.6-14.3l39.6-36.4L462.6,225.1L462.6,225.1z"/>
			
				<linearGradient id="Path-84_1_" gradientUnits="userSpaceOnUse" x1="-138.6535" y1="-513.7088" x2="-138.6535" y2="-512.302" gradientTransform="matrix(86 0 0 277 12177 142369.0625)">
				<stop  offset="0" style="stop-color:#FAC599"/>
				<stop  offset="1" style="stop-color:#F29262"/>
			</linearGradient>
			<path id="Path-84" class="st13" d="M293.5,320.6c13.2-17,19.8-39.9,19.8-68.8s-6.6-53.1-19.8-72.6v-35.1c0-16.7-3-33.2-9-48.8
				l-5.8-15.1c-1.9-5.1-6.8-8.4-12.3-8.4l0,0c-5,0-9,4-9,9v103c-2,70.8-10.4,125.8-25.2,165.2s-28.1,73.4-40,102
				c44.2,13.2,70.7,13.9,79.6,2.2c8.8-11.8,10.1-49.5,3.7-113.1L293.5,320.6z"/>
			
				<linearGradient id="SVGID_1_" gradientUnits="userSpaceOnUse" x1="-136.13" y1="-514.6526" x2="-136.13" y2="-513.2458" gradientTransform="matrix(56.1131 0 0 59.1303 8086.9092 30613.0371)">
				<stop  offset="0" style="stop-color:#FAC599"/>
				<stop  offset="1" style="stop-color:#F29262"/>
			</linearGradient>
			<path class="st14" d="M459.2,181.5l23.4,20.6c5.4,4.7,6.6,12.6,3,18.8l-1.1,1.9c-3.4,5.8-8.3,10.6-14,14L426.8,263
				c-5.3,3.2-12.3,1.7-15.8-3.4l0,0c-3.6-5.3-2.8-12.4,1.9-16.7l46.3-42.6L459.2,181.5L459.2,181.5z"/>
			<path id="Path-98" class="st15" d="M287.5,406.8c28.4,3.5,51.4-0.8,68.9-13l2.8-9.9c4.2,3.8,4.5,13.1,1,28.1
				c-5.3,22.4-47.3,29.9-76.4,25.9c-29.1-4-64.7-24.4-69.1-44c-1.5-6.8-2.4-7.6,3.5-22.4c3.9-9.8,7.6-15,11.2-15.5l-3.5,10.5
				C238.4,389.8,259,403.3,287.5,406.8z"/>
			<path id="Combined-Shape_1_" class="st16" d="M310.5,407.9v30.6c-9.1,0.7-18.2,0.5-26.3-0.6c-29.3-4-65.1-24.4-69.6-44
				c-1.5-6.8-2.4-7.6,3.5-22.4c3.9-9.8,7.7-15,11.2-15.5l-3.5,10.5c12.8,23.4,33.5,36.9,62.2,40.4
				C295.9,407.8,303.4,408.2,310.5,407.9z"/>
			<path id="Path-102" class="st6" d="M219,390.7L219,390.7c5.6-6.1,14.7-7.3,21.6-2.7c12.6,8.2,23.2,13.5,31.9,15.8L219,390.7z"/>
			<circle class="st6" cx="335.1" cy="418.5" r="3.5"/>
			<path id="Path-101" class="st15" d="M286.4,407.3c0,0-18.7-2.5-33.6-9.2c-7.2-3.2-14.6-7.3-22.1-12.3l0,0c-5-3.3-11.7-1.9-15,3
				l0,0c-3.6,5.5-2.9,12.7,1.8,17.3c14.1,13.7,26.5,22.5,37.4,26.2c19.2,6.7,33.7,7.9,50.6,7.9l7.8-7.9v-21
				C295.4,408.7,286.4,407.3,286.4,407.3z"/>
			<path id="Path-99" class="st8" d="M286.6,406.6c11.9,0,19,0,21.5,0c3.7,0,9.4,3,7.7,16.9c-1.6,13.9-4.6,16.8-8.7,16.8
				c-2.7,0-10.5-1-23.4-3.1l19.7-1.9c2.7-0.3,4.8-2.4,5.1-5.1l1.2-13.8c0.3-2.8-1.7-5.4-4.5-6L286.6,406.6z"/>
			<circle class="st6" cx="299.9" cy="424.2" r="4.9"/>
			<circle class="st6" cx="269" cy="418.5" r="3.5"/>
			<path id="Path-100" class="st17" d="M298.1,424.5L298.1,424.5c-0.2,1.2,0.7,2.4,1.9,2.5c0.1,0,0.1,0,0.2,0l11,0.6
				c0.9,0.1,1.7-0.6,1.8-1.6l0,0c0.1-0.9-0.5-1.8-1.5-1.9l-10.8-1.7C299.6,422.2,298.4,423.1,298.1,424.5
				C298.1,424.4,298.1,424.4,298.1,424.5z"/>
			<circle class="st6" cx="238" cy="404.5" r="3.5"/>
			<g id="Group-11" transform="translate(226.000000, 0.000000)">
				
					<linearGradient id="SVGID_2_" gradientUnits="userSpaceOnUse" x1="-590.6955" y1="-514.2174" x2="-590.6955" y2="-512.8106" gradientTransform="matrix(106 0 0 145 62822 74561.5312)">
					<stop  offset="5.376345e-03" style="stop-color:#D31F33"/>
					<stop  offset="1" style="stop-color:#912334"/>
				</linearGradient>
				<path class="st18" d="M140.8,0h135c3.9,0,7,3.2,7,7V197c0,3.9-3.2,7-7,7h-135c-3.9,0-7-3.2-7-7V7C133.7,3.2,136.9,0,140.8,0z"/>
				<rect x="141.6" y="6.8" class="st19" width="134.4" height="134.9"/>
				<ellipse class="st20" cx="211.7" cy="71.4" rx="46.3" ry="46.5"/>
				<g transform="translate(18.469697, 35.444444)">
					<g id="Group_1_" transform="translate(18.937086, 1.545351)">
						<g>
							<ellipse class="st21" cx="154.2" cy="20.4" rx="5.2" ry="5.2"/>
							<path id="Path_1_" class="st22" d="M159.4,20.4c0,2.8-2.3,5.2-5.1,5.2c0.9-0.9,1.4-2.2,1.4-3.6c0-2.9-2.3-5.2-5.2-5.2
								c0,0-0.1,0-0.1,0c1-1,2.3-1.7,3.8-1.7C157.1,15.1,159.4,17.5,159.4,20.4L159.4,20.4z"/>
						</g>
						<g transform="translate(21.992365, 0.000000)">
							<ellipse class="st21" cx="163.3" cy="20.4" rx="5.2" ry="5.2"/>
							<path class="st22" d="M168.5,20.4c0,2.8-2.3,5.2-5.1,5.2c0.9-0.9,1.4-2.2,1.4-3.6c0-2.9-2.3-5.2-5.2-5.2c0,0-0.1,0-0.1,0
								c1-1,2.3-1.7,3.8-1.7C166.2,15.1,168.5,17.5,168.5,20.4L168.5,20.4z"/>
						</g>
					</g>
					
						<linearGradient id="SVGID_3_" gradientUnits="userSpaceOnUse" x1="-81.9861" y1="632.9946" x2="-29.6202" y2="632.9946" gradientTransform="matrix(1 0 0 -1 244.4697 663.2485)">
						<stop  offset="5.376345e-03" style="stop-color:#D31F33"/>
						<stop  offset="1" style="stop-color:#912334"/>
					</linearGradient>
					<path class="st23" d="M212.7,40.1c1.4-2.1,2.2-4.4,2.2-6.8c0-9.5-11.7-12.9-26.2-12.9c-14.5,0-26.2,3.4-26.2,12.9
						c0,2.4,0.8,4.7,2.2,6.8H212.7z"/>
					
						<linearGradient id="SVGID_4_" gradientUnits="userSpaceOnUse" x1="-59.3273" y1="632.9946" x2="-29.6202" y2="632.9946" gradientTransform="matrix(1 0 0 -1 244.4697 663.2485)">
						<stop  offset="5.376345e-03" style="stop-color:#D31F33"/>
						<stop  offset="1" style="stop-color:#912334"/>
					</linearGradient>
					<path class="st24" d="M214.8,33.3c0,2.4-0.8,4.7-2.2,6.8h-7c1.4-2.1,2.2-4.4,2.2-6.8c0-8.7-9.9-12.3-22.7-12.8
						c1.2-0.1,2.3-0.1,3.5-0.1C203.1,20.4,214.8,23.8,214.8,33.3L214.8,33.3z"/>
					<g transform="translate(4.532730, 8.499433)">
						<g transform="translate(35.110618, 0.000000)">
							<path class="st25" d="M189.7,40l-14.2-21.1c-0.8-1.2-2.6-1.2-3.5,0L157.7,40c-0.9,1.4,0.1,3.3,1.7,3.3H188
								C189.7,43.3,190.7,41.4,189.7,40z"/>
							<path class="st26" d="M188,43.3h-6.9c1.7,0,2.7-1.9,1.7-3.3l-12.6-18.6l1.7-2.5c0.8-1.2,2.6-1.2,3.5,0L189.7,40
								C190.7,41.4,189.7,43.3,188,43.3z"/>
						</g>
						<g transform="translate(27.522609, 1.030234)">
							<path class="st27" d="M184.8,39.1l-13.4-19.9c-0.8-1.2-2.5-1.2-3.3,0l-13.4,19.9c-0.9,1.3,0.1,3.1,1.6,3.1h26.9
								C184.8,42.2,185.7,40.5,184.8,39.1z"/>
							<path class="st28" d="M183.2,42.2h-6.5c1.6,0,2.5-1.8,1.6-3.1l-11.8-17.5l1.6-2.4c0.8-1.2,2.5-1.2,3.3,0l13.4,19.9
								C185.7,40.5,184.8,42.2,183.2,42.2z"/>
						</g>
						<g>
							<path class="st28" d="M143.5,40l14.2-21.1c0.8-1.2,2.6-1.2,3.5,0L175.4,40c0.9,1.4-0.1,3.3-1.7,3.3h-28.5
								C143.5,43.3,142.5,41.4,143.5,40z"/>
							<path class="st25" d="M173.7,43.3h-6.9c1.7,0,2.7-1.9,1.7-3.3L156,21.4l1.7-2.5c0.8-1.2,2.6-1.2,3.5,0L175.4,40
								C176.4,41.4,175.4,43.3,173.7,43.3L173.7,43.3z"/>
						</g>
						<g transform="translate(8.874112, 1.030234)">
							<path class="st29" d="M147,39.1l13.4-19.9c0.8-1.2,2.5-1.2,3.3,0l13.4,19.9c0.9,1.3-0.1,3.1-1.6,3.1h-26.9
								C147.1,42.2,146.2,40.5,147,39.1z"/>
							<path class="st27" d="M175.6,42.2h-6.5c1.6,0,2.5-1.8,1.6-3.1l-11.8-17.5l1.6-2.4c0.8-1.2,2.5-1.2,3.3,0l13.4,19.9
								C178.1,40.5,177.2,42.2,175.6,42.2L175.6,42.2z"/>
						</g>
						<path class="st30" d="M198.3,40.3l-12.6-18.7c-0.7-1.1-2.4-1.1-3.1,0L170,40.3c-0.8,1.2,0.1,2.9,1.5,2.9h25.2
							C198.3,43.3,199.1,41.6,198.3,40.3z"/>
						<path class="st29" d="M196.8,43.3h-6.1c1.5,0,2.4-1.7,1.5-2.9l-11.1-16.5l1.5-2.2c0.7-1.1,2.3-1.1,3.1,0l12.6,18.7
							C199.1,41.6,198.3,43.3,196.8,43.3L196.8,43.3z"/>
					</g>
					<g transform="translate(0.000000, 26.270975)">
						
							<linearGradient id="SVGID_5_" gradientUnits="userSpaceOnUse" x1="-625.2186" y1="-526.9253" x2="-625.2186" y2="-525.5193" gradientTransform="matrix(56.8717 0 0 7.7369 35745.918 4107.1748)">
							<stop  offset="0" style="stop-color:#FFFFFF"/>
							<stop  offset="1" style="stop-color:#E5E9F4"/>
						</linearGradient>
						<path class="st31" d="M224.8,39.1l3.9-8.7h-80l3.9,8.7c0.6,1.3,1.9,2.2,3.4,2.2h65.4C222.9,41.3,224.2,40.4,224.8,39.1z"/>
						<polygon class="st9" points="151.6,36.9 148.7,30.4 228.7,30.4 225.8,36.9 						"/>
						
							<linearGradient id="SVGID_6_" gradientUnits="userSpaceOnUse" x1="-625.9296" y1="-532.2693" x2="-625.9296" y2="-530.8624" gradientTransform="matrix(65.8485 0 0 5.6359 41405.1992 3025.0154)">
							<stop  offset="0" style="stop-color:#FFFFFF"/>
							<stop  offset="1" style="stop-color:#E5E9F4"/>
						</linearGradient>
						<path class="st32" d="M231,33.1h-84.7c-2.2,0-4-1.8-4-4s1.8-4,4-4H231c2.2,0,4,1.8,4,4S233.2,33.1,231,33.1z"/>
						
							<linearGradient id="SVGID_7_" gradientUnits="userSpaceOnUse" x1="-671.8431" y1="-532.2679" x2="-671.8431" y2="-530.8615" gradientTransform="matrix(-6.8777 0 0 5.6356 -4474.1802 3024.8958)">
							<stop  offset="0" style="stop-color:#FFFFFF"/>
							<stop  offset="1" style="stop-color:#CDD7EF"/>
						</linearGradient>
						<path class="st33" d="M141.7,29.2c0,1.1,0.4,2.1,1.2,2.8c0.7,0.7,1.7,1.2,2.8,1.2h5.7c-1.1,0-2.1-0.4-2.8-1.2
							c-0.7-0.7-1.2-1.7-1.2-2.8c0-2.2,1.8-4,4-4h-5.7C143.5,25.2,141.7,27,141.7,29.2L141.7,29.2z"/>
					</g>
					<g id="XMLID_773_" transform="translate(37.585582, 6.954082)">
						
							<linearGradient id="SVGID_8_" gradientUnits="userSpaceOnUse" x1="-125.3838" y1="637.5758" x2="-122.5688" y2="637.5758" gradientTransform="matrix(1 0 0 -1 282.0553 656.2944)">
							<stop  offset="5.376345e-03" style="stop-color:#D31F33"/>
							<stop  offset="1" style="stop-color:#912334"/>
						</linearGradient>
						<path class="st34" d="M158.1,20.1L158.1,20.1c-0.8,0-1.4-0.6-1.4-1.4c0-0.8,0.6-1.4,1.4-1.4h0c0.8,0,1.4,0.6,1.4,1.4
							C159.5,19.5,158.9,20.1,158.1,20.1z"/>
					</g>
					<g id="XMLID_774_" transform="translate(28.325639, 8.499433)">
						
							<linearGradient id="SVGID_9_" gradientUnits="userSpaceOnUse" x1="-120.0148" y1="635.3362" x2="-117.1997" y2="635.3362" gradientTransform="matrix(1 0 0 -1 272.7953 654.749)">
							<stop  offset="5.376345e-03" style="stop-color:#D31F33"/>
							<stop  offset="1" style="stop-color:#912334"/>
						</linearGradient>
						<path class="st35" d="M154.2,20.8C154.2,20.8,154.2,20.8,154.2,20.8L154.2,20.8c-0.8,0-1.4-0.6-1.4-1.4c0-0.8,0.6-1.4,1.4-1.4
							h0h0c0.8,0,1.4,0.6,1.4,1.4C155.6,20.2,155,20.8,154.2,20.8z"/>
					</g>
					<g transform="translate(30.383404, 0.000000)">
						<ellipse class="st21" cx="158.3" cy="19.1" rx="4.6" ry="4.6"/>
						<path class="st22" d="M162.8,19.1c0,2.5-2,4.5-4.5,4.6c0.8-0.8,1.2-1.9,1.2-3.1c0-2.5-2-4.6-4.6-4.6c0,0-0.1,0-0.1,0
							c0.8-0.9,2-1.5,3.3-1.5C160.8,14.6,162.8,16.6,162.8,19.1L162.8,19.1z"/>
					</g>
				</g>
				<g id="Group-12" transform="translate(12.848485, 106.333333)">
					<path id="Path-96" class="st36" d="M190.9,49.5h31.6"/>
					<path class="st36" d="M189.8,63.1l40.2,0.6"/>
					<path class="st36" d="M190.9,77.8h11.3"/>
					<ellipse class="st19" cx="159.3" cy="63.7" rx="20.3" ry="20.4"/>
					<path id="XMLID_125_" class="st37" d="M146.3,67.2l3-5.3c0.8-1.1,0-1.9,0-1.9l-2.1-3.4c-0.5-1.6,1.3-1.9,1.3-1.9h3.5
						c1.4-0.1,1.7,0.8,1.7,0.8l2.8,4.7c0.5,1,0,1.5,0,1.5l-3.7,6.5c-0.6,1.5-1.4,1.4-1.4,1.4h-4C145.5,69.3,146.3,67.2,146.3,67.2z
						 M163.2,67.5c-0.3-0.5-0.3-1.1,0-1.6l7.7-13.5c0.6-1.1-0.2-2.5-1.4-2.5l-3.3,0c-0.6,0-1.2,0.3-1.5,0.8l-8.7,15.1
						c-0.3,0.5-0.3,1.1,0,1.6l5.3,9.4c0.2,0.4,0.7,0.7,1.2,0.7h3.5c1.3,0,2.1-1.4,1.5-2.5L163.2,67.5z"/>
				</g>
			</g>
			<g transform="translate(347.000000, 0.000000)">
				
					<linearGradient id="SVGID_10_" gradientUnits="userSpaceOnUse" x1="-832.2312" y1="-514.2174" x2="-832.2312" y2="-512.8106" gradientTransform="matrix(106 0 0 145 88474 74561.5312)">
					<stop  offset="5.376345e-03" style="stop-color:#D31F33"/>
					<stop  offset="1" style="stop-color:#912334"/>
				</linearGradient>
				<path class="st38" d="M190,0h135c3.9,0,7,3.2,7,7V197c0,3.9-3.2,7-7,7H190c-3.9,0-7-3.2-7-7V7C182.9,3.2,186.1,0,190,0z"/>
				<rect x="190.8" y="6.8" class="st19" width="134.4" height="134.9"/>
				<ellipse class="st20" cx="264.3" cy="75.9" rx="46.3" ry="46.5"/>
				<g transform="translate(22.484848, 22.555556)">
					<path class="st39" d="M267.2,27c-0.4,7.1-6.2,12.7-13.3,12.7c-0.4,0-0.8,0-1.1-0.1c-0.2,1,0.2,2,1,2.6l0.5,0.4
						c1.5,1,1.5,3.2,0,4.2l-0.5,0.4c-0.5,0.3-0.8,0.8-1,1.3c0,0,0,0.1,0.1,0.1h19.9c2.1-2.4,3.4-5.5,3.4-9
						C276.1,33.8,272.4,28.8,267.2,27z"/>
					
						<linearGradient id="SVGID_11_" gradientUnits="userSpaceOnUse" x1="-106.007" y1="637.8722" x2="-96.9741" y2="637.8722" gradientTransform="matrix(1 0 0 -1 369.4848 676.1373)">
						<stop  offset="5.376345e-03" style="stop-color:#D31F33"/>
						<stop  offset="1" style="stop-color:#912334"/>
					</linearGradient>
					<path class="st40" d="M271,39.6h-6c-0.8,0-1.5-0.6-1.5-1.3c0-0.8,0.7-1.3,1.5-1.3h6c0.8,0,1.5,0.6,1.5,1.3
						C272.5,39,271.8,39.6,271,39.6z"/>
					
						<linearGradient id="SVGID_12_" gradientUnits="userSpaceOnUse" x1="-108.7177" y1="632.0198" x2="-106.0065" y2="632.0198" gradientTransform="matrix(1 0 0 -1 369.4848 676.1373)">
						<stop  offset="5.376345e-03" style="stop-color:#D31F33"/>
						<stop  offset="1" style="stop-color:#912334"/>
					</linearGradient>
					<path class="st41" d="M262.1,48.6c-0.8,0-1.4-0.7-1.4-1.5v-6c0-0.8,0.6-1.5,1.4-1.5s1.4,0.7,1.4,1.5v6
						C263.5,48,262.9,48.6,262.1,48.6z"/>
					
						<linearGradient id="SVGID_13_" gradientUnits="userSpaceOnUse" x1="-874.7924" y1="-517.3521" x2="-874.7924" y2="-515.9461" gradientTransform="matrix(61.0303 0 0 27.5442 53623.8477 14298.6523)">
						<stop  offset="0" style="stop-color:#FFFFFF"/>
						<stop  offset="1" style="stop-color:#E5E9F4"/>
					</linearGradient>
					<path class="st42" d="M235.7,87.4h16.4c1.5,0,2.4-1.6,1.6-2.9l0,0c-1.1-1.8-1.3-4-0.3-5.8c0.8-1.6,2.2-2.9,3.9-3.7
						c11.6-5.5,19.8-11.6,20.6-24.1c0.1-1.2-0.9-2.2-2.1-2.2h-40.2h-41.5c-1.2,0-2.1,1-2.1,2.2c0.9,12.5,9.1,18.7,20.6,24.1
						c1.7,0.8,3,2.1,3.9,3.7c1,1.8,0.7,4-0.3,5.8l0,0c-0.8,1.3,0.2,2.9,1.6,2.9H235.7z"/>
					
						<linearGradient id="SVGID_14_" gradientUnits="userSpaceOnUse" x1="-871.3936" y1="-517.3514" x2="-871.3936" y2="-515.9445" gradientTransform="matrix(37.6549 0 0 27.5442 33030.8008 14298.6523)">
						<stop  offset="0" style="stop-color:#FFFFFF"/>
						<stop  offset="1" style="stop-color:#CDD7EF"/>
					</linearGradient>
					<path class="st43" d="M209.4,48.6c7,12.6,14,19.8,21.1,21.9c7.2,2.1,12,7.7,14.6,16.9h-9.4h-17.8c-1.5,0-2.4-1.6-1.6-2.9l0,0
						c1.1-1.8,1.3-4,0.3-5.8c-0.8-1.6-2.2-2.9-3.9-3.7c-11.6-5.5-19.8-11.6-20.6-24.1c-0.1-1.2,0.9-2.2,2.1-2.2L209.4,48.6
						L209.4,48.6z"/>
					<ellipse class="st44" cx="253.7" cy="26.2" rx="16.9" ry="17"/>
					<path class="st45" d="M253.5,12.6c-7.5,0-13.5,6.1-13.5,13.5c0,1.1,0.1,2.1,0.4,3.1c0.8,0.8,1.9,1.1,3,0.6l0.6-0.3
						c1.6-0.8,3.5,0.3,3.7,2.1l0.1,0.6c0.1,1.3,1.1,2.3,2.4,2.4l0.6,0.1c1.8,0.2,2.9,2.1,2.1,3.7l-0.3,0.6c-0.1,0.2-0.1,0.4-0.2,0.6
						c0.4,0,0.8,0.1,1.2,0.1c7.5,0,13.5-6.1,13.5-13.5C267.1,18.6,261,12.6,253.5,12.6z"/>
					<path class="st46" d="M251.1,25.2c-0.4,0-0.8-0.2-1.1-0.4l-4.2-4.2c-0.6-0.6-0.6-1.5,0-2.1c0.6-0.6,1.5-0.6,2.1,0l4.2,4.2
						c0.6,0.6,0.6,1.5,0,2.1C251.9,25,251.5,25.2,251.1,25.2z"/>
					<path class="st46" d="M260.2,34.2c-0.4,0-0.8-0.2-1.1-0.4l-4.2-4.2c-0.6-0.6-0.6-1.5,0-2.1c0.6-0.6,1.5-0.6,2.1,0l4.2,4.2
						c0.6,0.6,0.6,1.5,0,2.1C260.9,34.1,260.6,34.2,260.2,34.2z"/>
					<path class="st46" d="M255.9,25.2c-0.4,0-0.8-0.2-1.1-0.4c-0.6-0.6-0.6-1.5,0-2.1l4.2-4.2c0.6-0.6,1.5-0.6,2.1,0
						c0.6,0.6,0.6,1.5,0,2.1l-4.2,4.2C256.7,25,256.3,25.2,255.9,25.2z"/>
					<path class="st46" d="M247.8,33.3c-0.4,0-0.8-0.1-1-0.4c-0.6-0.6-0.6-1.5,0-2.1l3.4-3.4c0.6-0.6,1.5-0.6,2.1,0s0.6,1.5,0,2.1
						l-3.4,3.4C248.5,33.2,248.1,33.3,247.8,33.3z"/>
					
						<linearGradient id="SVGID_15_" gradientUnits="userSpaceOnUse" x1="-143.0538" y1="638.3159" x2="-115.0242" y2="638.3159" gradientTransform="matrix(1 0 0 -1 369.4848 676.1373)">
						<stop  offset="5.376345e-03" style="stop-color:#D31F33"/>
						<stop  offset="1" style="stop-color:#912334"/>
					</linearGradient>
					<path class="st47" d="M226.7,34.6c1.5,0.5,2.3,2.2,1.6,3.6l-0.3,0.6c-0.5,1.2-0.2,2.5,0.9,3.3l0.5,0.4c1.5,1.1,1.5,3.3,0,4.3
						l-0.5,0.4c-0.5,0.4-0.8,0.9-1,1.5h7.2h16.7c0.2-0.6,0.5-1.1,1-1.5l0.5-0.4c1.5-1.1,1.5-3.3,0-4.3l-0.5-0.4
						c-1-0.7-1.4-2.1-0.9-3.3l0.3-0.6c0.8-1.7-0.3-3.6-2.1-3.7l-0.6-0.1c-1.2-0.1-2.2-1.1-2.4-2.4l-0.1-0.6c-0.2-1.8-2-2.9-3.7-2.2
						l-0.6,0.3c-1.1,0.5-2.5,0.2-3.2-0.9l-0.4-0.5c-1-1.5-3.2-1.5-4.2,0l-0.4,0.5c-0.7,1-2.1,1.4-3.2,0.9l-0.6-0.3
						c-1.6-0.8-3.5,0.3-3.7,2.2l-0.1,0.6c-0.1,0.7-0.4,1.4-0.6,1.9C226.4,34.2,226.5,34.5,226.7,34.6z"/>
					<path class="st48" d="M211,27.9l8.4-12.5c1.4-2.1,4.1-2.6,6.1-1.1l0,0c2,1.5,2.4,4.3,1.1,6.4l-8.4,12.5
						c-1.4,2.1-4.1,2.6-6.1,1.1l0,0C210,32.8,209.6,30,211,27.9z"/>
					<path class="st49" d="M229.9,42.4l-0.5-0.4c-1-0.7-1.4-2.1-0.9-3.3l0.3-0.6c0.8-1.7-0.3-3.6-2.1-3.8l-0.6-0.1
						c-1.2-0.1-2.2-1.1-2.3-2.4l-0.1-0.7c-0.1-1.4-1.3-2.4-2.6-2.4l-2.7,4c-1.4,2.1-4.2,2.6-6.2,1.1l0,0c-1.5-1.1-2.1-3-1.8-4.7
						c-0.7,0.4-1.5,0.4-2.2,0.1l-0.6-0.3c-1.6-0.8-3.5,0.3-3.6,2.2l-0.1,0.7c-0.1,1.3-1.1,2.3-2.3,2.4l-0.6,0.1
						c-1.8,0.2-2.8,2.1-2.1,3.8l0.3,0.6c0.5,1.2,0.2,2.6-0.9,3.3l-0.5,0.4c-1.5,1.1-1.5,3.3,0,4.4l0.5,0.4c0.5,0.4,0.8,0.9,1,1.5
						h29.1c0.2-0.6,0.5-1.1,1-1.5l0.5-0.4C231.3,45.7,231.3,43.5,229.9,42.4z"/>
					<path class="st39" d="M236.1,38.7c-0.4,0-0.8-0.2-1.1-0.5c-0.6-0.6-0.6-1.6,0-2.2l2.3-2.3c0.6-0.6,1.6-0.6,2.2,0
						c0.6,0.6,0.6,1.6,0,2.2l-2.3,2.3C236.9,38.6,236.5,38.7,236.1,38.7z"/>
					<path class="st39" d="M244.8,42.3c-0.4,0-0.8-0.2-1.1-0.4l-1.5-1.5c-0.6-0.6-0.6-1.5,0-2.1c0.6-0.6,1.5-0.6,2.1,0l1.5,1.5
						c0.6,0.6,0.6,1.5,0,2.1C245.6,42.2,245.2,42.3,244.8,42.3z"/>
					<path class="st39" d="M237,45.9c-0.4,0-0.8-0.2-1.1-0.4c-0.6-0.6-0.6-1.5,0-2.1l1.5-1.5c0.6-0.6,1.5-0.6,2.1,0
						c0.6,0.6,0.6,1.5,0,2.1l-1.5,1.5C237.7,45.8,237.4,45.9,237,45.9z"/>
				</g>
				<g transform="translate(12.848485, 106.333333)">
					<path class="st36" d="M240.1,49.5h31.6"/>
					<path class="st36" d="M239,63.1l40.2,0.6"/>
					<path class="st36" d="M240.1,77.8h11.3"/>
					<ellipse class="st19" cx="208.5" cy="63.7" rx="20.3" ry="20.4"/>
					<path id="XMLID_128_" class="st37" d="M194.2,65.8l3-5.3c0.8-1.1,0-1.9,0-1.9l-2.1-3.4c-0.5-1.6,1.3-1.9,1.3-1.9h3.5
						c1.4-0.1,1.7,0.8,1.7,0.8l2.8,4.7c0.5,1,0,1.5,0,1.5l-3.7,6.5c-0.6,1.5-1.4,1.4-1.4,1.4h-4C193.3,67.9,194.2,65.8,194.2,65.8z
						 M211,66.1c-0.3-0.5-0.3-1.1,0-1.6l7.7-13.5c0.6-1.1-0.2-2.5-1.4-2.5l-3.3,0c-0.6,0-1.2,0.3-1.5,0.8l-8.7,15.1
						c-0.3,0.5-0.3,1.1,0,1.6l5.3,9.4c0.2,0.4,0.7,0.7,1.2,0.7h3.5c1.3,0,2.1-1.4,1.5-2.5L211,66.1z"/>
				</g>
			</g>
			<g transform="translate(296.000000, 64.000000)">
				
					<linearGradient id="Path-88_1_" gradientUnits="userSpaceOnUse" x1="-731.6937" y1="-513.7206" x2="-731.6937" y2="-512.3137" gradientTransform="matrix(189.7775 0 0 256.2332 139154.6875 131658.2812)">
					<stop  offset="0" style="stop-color:#FAC599"/>
					<stop  offset="1" style="stop-color:#F29262"/>
				</linearGradient>
				<path id="Path-88" class="st50" d="M291.6,386.5l-17.3-66.1c-4.4-16.8-12.3-32.5-23.2-46.1l-31.9-39.7
					c-9.5-11.8-13-27.4-9.5-42.2l6.7-28.1L163.2,42.2c-2.3-5.3-0.4-11.5,4.5-14.6l0,0c4.7-3,11-1.8,14.3,2.8l61.6,85.9l0,0
					c4.6-10.4,16.7-15.1,27.1-10.5c2.9,1.3,5.5,3.3,7.5,5.7l8.9,10.9l0,0c4.9-8.4,15.6-11.4,24.1-6.5c1.9,1.1,3.6,2.6,5,4.3
					l12.5,15.7l0,0c10.4-2.4,21.1,2.5,26,11.9l1.2,2.3c6.3,12.1,9.9,25.4,10.5,39l3.5,79.5l59.3,117.7L291.6,386.5L291.6,386.5z"/>
				<path id="Path-95" class="st5" d="M232.9,203.6l10.6,17.6l-12.2-6.3c-5.8-3-9.7-8.6-10.5-15l-4.4-33.9L232.9,203.6z"/>
				<path id="Path-91" class="st5" d="M243.5,115.2c7.9,20.4,12.9,31.9,15,34.6c3.1,4,12.2,14.9,3.3-3.4
					C255.8,134.2,249.7,123.8,243.5,115.2z"/>
				<path id="Path-92" class="st5" d="M287,122.5c6.5,14.9,11.1,24.8,13.8,29.6c4.1,7.2,7.6,2.8,0-11.5
					C295.7,131.1,291.1,125.1,287,122.5z"/>
				<path class="st5" d="M327.6,135.1c3,10.4,6.1,17.2,9.1,20.4c1.6,1.7,5,4.1,3.1,0C338.8,153.1,334.7,146.3,327.6,135.1z"/>
			</g>
			<path id="Path-66" class="st1" d="M583.4,451.5c24.5-16.1,48.1-26.7,70.8-31.8c22.7-5.1,43.4-4.3,62.3,2.4l47.2,99.2
				c-19,8.7-39.4,15.8-61.3,21.3c-21.9,5.5-55.9,12.6-101.8,21.1L583.4,451.5z"/>
		</g>
	</g>
</g>
</svg>
