<?xml version="1.0" encoding="utf-8"?>
<!-- Generator: Adobe Illustrator 25.1.0, SVG Export Plug-In . SVG Version: 6.00 Build 0)  -->
<svg version="1.1" id="Laag_1" xmlns="http://www.w3.org/2000/svg" xmlns:xlink="http://www.w3.org/1999/xlink" x="0px" y="0px"
	 viewBox="0 0 900 700" style="enable-background:new 0 0 900 700;" xml:space="preserve">
<style type="text/css">
	.st0{fill-rule:evenodd;clip-rule:evenodd;fill:#FFF1DC;}
	.st1{fill-rule:evenodd;clip-rule:evenodd;fill:url(#Path-202_1_);}
	.st2{fill-rule:evenodd;clip-rule:evenodd;fill:#5B5054;}
	.st3{fill-rule:evenodd;clip-rule:evenodd;fill:#3A3136;}
	.st4{fill-rule:evenodd;clip-rule:evenodd;fill:url(#Rectangle_1_);}
	.st5{fill-rule:evenodd;clip-rule:evenodd;fill:#E5E9F4;}
	.st6{opacity:0.3075;fill-rule:evenodd;clip-rule:evenodd;fill:#281C20;enable-background:new    ;}
	.st7{fill-rule:evenodd;clip-rule:evenodd;fill:url(#Path-128_1_);}
	.st8{fill-rule:evenodd;clip-rule:evenodd;fill:#902233;}
	.st9{fill-rule:evenodd;clip-rule:evenodd;fill:url(#Path-136_1_);}
	.st10{fill-rule:evenodd;clip-rule:evenodd;fill:url(#Path-138_1_);}
	.st11{fill-rule:evenodd;clip-rule:evenodd;fill:#FDC952;}
	.st12{fill-rule:evenodd;clip-rule:evenodd;fill:url(#Path-127_1_);}
	.st13{fill-rule:evenodd;clip-rule:evenodd;fill:url(#XMLID_4_);}
	.st14{fill-rule:evenodd;clip-rule:evenodd;fill:url(#Path-130_2_);}
	.st15{fill-rule:evenodd;clip-rule:evenodd;fill:url(#Path-132_1_);}
	.st16{fill:none;stroke:#18233C;stroke-width:1.77;stroke-linecap:round;}
	.st17{fill:none;stroke:#000000;stroke-width:1.77;stroke-linecap:round;}
	.st18{fill-rule:evenodd;clip-rule:evenodd;}
	.st19{fill-rule:evenodd;clip-rule:evenodd;fill:url(#Path-144_1_);}
	.st20{fill:none;stroke:#18233C;stroke-linecap:round;}
	.st21{fill-rule:evenodd;clip-rule:evenodd;fill:url(#XMLID_5_);}
	.st22{fill-rule:evenodd;clip-rule:evenodd;fill:url(#XMLID_6_);}
	.st23{fill-rule:evenodd;clip-rule:evenodd;fill:url(#XMLID_7_);}
	.st24{fill-rule:evenodd;clip-rule:evenodd;fill:url(#XMLID_8_);}
	.st25{fill-rule:evenodd;clip-rule:evenodd;fill:url(#XMLID_9_);}
	.st26{fill-rule:evenodd;clip-rule:evenodd;fill:url(#Path-177_1_);}
	.st27{fill-rule:evenodd;clip-rule:evenodd;fill:url(#XMLID_10_);}
	.st28{fill-rule:evenodd;clip-rule:evenodd;fill:#585B5E;}
	.st29{fill-rule:evenodd;clip-rule:evenodd;fill:url(#Path-176_1_);}
	.st30{fill-rule:evenodd;clip-rule:evenodd;fill:url(#XMLID_11_);}
	.st31{fill-rule:evenodd;clip-rule:evenodd;fill:#DD9B03;}
	.st32{fill-rule:evenodd;clip-rule:evenodd;fill:#D81F28;}
	.st33{fill-rule:evenodd;clip-rule:evenodd;fill:url(#Path-171_1_);}
	.st34{fill-rule:evenodd;clip-rule:evenodd;fill:#E49368;}
	.st35{fill-rule:evenodd;clip-rule:evenodd;fill:#E78763;}
	.st36{fill-rule:evenodd;clip-rule:evenodd;fill:#FFFFFF;}
	.st37{fill-rule:evenodd;clip-rule:evenodd;fill:url(#Path-179_1_);}
	.st38{fill-rule:evenodd;clip-rule:evenodd;fill:url(#Path-180_1_);}
	.st39{fill-rule:evenodd;clip-rule:evenodd;fill:url(#XMLID_12_);}
	.st40{fill-rule:evenodd;clip-rule:evenodd;fill:url(#Path-189_1_);}
	.st41{fill:none;stroke:#FFFFFF;}
	.st42{fill-rule:evenodd;clip-rule:evenodd;fill:url(#Path-186_1_);}
	.st43{fill-rule:evenodd;clip-rule:evenodd;fill:url(#XMLID_13_);}
	.st44{fill-rule:evenodd;clip-rule:evenodd;fill:url(#XMLID_14_);}
	.st45{fill-rule:evenodd;clip-rule:evenodd;fill:url(#Path-188_1_);}
	.st46{fill-rule:evenodd;clip-rule:evenodd;fill:url(#XMLID_15_);}
	.st47{fill:#FFFFFF;}
</style>
<g>
	<g id="Page-1_6_">
		<g id="The-food-is-arrived-in-your-home" transform="translate(-131.000000, -72.000000)">
			<g id="XMLID_49_" transform="translate(131.000000, 54.360896)">
				<g id="XMLID_93_" transform="translate(0.000000, 165.639104)">
					<g id="Mask_5_">
						<path id="XMLID_117_" class="st0" d="M127.7,139C59.2,279.1,158,438.1,377.6,439.4S848.4,399,797.4,253.5
							s-242.9-0.8-346.1-116.9S196.3-1.2,127.7,139z"/>
					</g>
					
						<linearGradient id="Path-202_1_" gradientUnits="userSpaceOnUse" x1="-140.8131" y1="-513.5869" x2="-140.8131" y2="-512.2994" gradientTransform="matrix(478.2858 0 0 76.5979 67814.5625 39690.2773)">
						<stop  offset="0" style="stop-color:#E36D41"/>
						<stop  offset="1" style="stop-color:#E78763"/>
					</linearGradient>
					<path id="Path-202" class="st1" d="M157.8,366.8c144.2-17.6,252.8-20.9,325.8-9.8c109.4,16.6,225.1,50.8,290,20.7
						c-76,47.7-185.3,71.5-328.2,71.5S206.6,421.8,157.8,366.8z"/>
					<g id="Group-26">
						<g id="XMLID_96_" transform="translate(-79.000000, 93.000000)">
							
								<ellipse id="Oval_6_" transform="matrix(0.1602 -0.9871 0.9871 0.1602 91.6211 740.0474)" class="st2" cx="480.7" cy="316.2" rx="49.6" ry="49.6"/>
							
								<ellipse id="XMLID_114_" transform="matrix(0.1602 -0.9871 0.9871 0.1602 94.0628 739.0577)" class="st3" cx="481.4" cy="314.3" rx="28.3" ry="28.3"/>
							
								<linearGradient id="Rectangle_1_" gradientUnits="userSpaceOnUse" x1="48.2289" y1="-507.8917" x2="48.2289" y2="-506.6044" gradientTransform="matrix(7.7931 -4.1437 11.732 22.0646 6047.9946 11706.1797)">
								<stop  offset="0" style="stop-color:#FFFFFF"/>
								<stop  offset="1" style="stop-color:#E5E9F4"/>
							</linearGradient>
							<path id="Rectangle_6_" class="st4" d="M462.3,301.5l6-3.2c1.1-0.6,2.5-0.2,3.1,0.9l13,24.4c0.6,1.1,0.2,2.5-0.9,3.1l0,0
								l-6,3.2c-1.1,0.6-2.5,0.2-3.1-0.9l-13-24.4C460.7,303.5,461.2,302.1,462.3,301.5L462.3,301.5L462.3,301.5z"/>
							<path id="XMLID_113_" class="st5" d="M447.7,282.2l13.7-7.3c0.4-0.2,0.8-0.1,1,0.3L483,314c0.2,0.4,0.1,0.8-0.3,1l0,0
								l-13.7,7.3c-0.4,0.2-0.8,0.1-1-0.3l-20.6-38.8C447.2,282.8,447.3,282.4,447.7,282.2L447.7,282.2L447.7,282.2z"/>
							<path id="XMLID_112_" class="st5" d="M466.6,276.6l10.4-5.5c0.4-0.2,0.8-0.1,1,0.3l15.3,28.7c0.2,0.4,0.1,0.8-0.3,1l0,0
								l-10.4,5.5c-0.4,0.2-0.8,0.1-1-0.3l-15.3-28.7C466.1,277.3,466.2,276.8,466.6,276.6L466.6,276.6L466.6,276.6z"/>
							<path id="Path-157" class="st6" d="M431.2,315.8c19.2,3,33-0.9,41.4-11.4c8.4-10.6,22.1-18.7,41-24.5
								c-13.4-11.8-26.1-15-38.2-9.5c-8.6,3.9-30.2,4.5-38.2,19C433.2,296.9,431.2,305.6,431.2,315.8z"/>
							
								<linearGradient id="Path-128_1_" gradientUnits="userSpaceOnUse" x1="20.1764" y1="-513.7977" x2="20.1764" y2="-512.5102" gradientTransform="matrix(85 0 0 53 -1242 27468.2754)">
								<stop  offset="5.376345e-03" style="stop-color:#D31F33"/>
								<stop  offset="1" style="stop-color:#912334"/>
							</linearGradient>
							<path id="Path-128" class="st7" d="M418.3,303.3c5.1-38.6,21.4-60.3,48.8-65.1c27.4-4.8,47.6,5.5,60.6,30.9
								c-17.2-6.1-35.4-0.6-54.7,16.6C453.7,302.8,435.4,308.7,418.3,303.3z"/>
							<path id="XMLID_109_" class="st8" d="M460.8,239.6l2.9,1c-13.8,22.4-18.3,36.2-13.8,41.6c6.9,8,37.7-18.1,54.5-14.6
								c0,0,0.1,0,0.1,0c-10.2,2.2-20.8,8.3-31.7,18c-19.3,17.2-37.4,23.1-54.5,17.6C423,267.7,437.2,246.4,460.8,239.6z"/>
							
								<linearGradient id="Path-136_1_" gradientUnits="userSpaceOnUse" x1="21.2782" y1="-514.6847" x2="21.2782" y2="-513.3973" gradientTransform="matrix(62 0 0 46 -919 23745.125)">
								<stop  offset="5.376345e-03" style="stop-color:#D31F33"/>
								<stop  offset="1" style="stop-color:#912334"/>
							</linearGradient>
							<path id="Path-136" class="st9" d="M361.9,100.6c-2.1,4-2.1,7.8,0,11.4c3.2,5.5,7.4,1.2,13.9,0c4.3-0.8,9.2-1.6,14.5-2.3
								l8,19.2l13.2-6.6l-3-12.5c11.6,0,18.9,0,22.1,0c4.7,0,9.4-10.1,9.4-24s-6.6-16.1-9.4-16.1s-18.1-0.3-29.2,12.2
								C394.1,90.1,380.9,96.4,361.9,100.6z"/>
							
								<linearGradient id="Path-138_1_" gradientUnits="userSpaceOnUse" x1="468.9511" y1="339.1367" x2="488.2724" y2="339.1367" gradientTransform="matrix(1 0 0 -1 -79 457.6929)">
								<stop  offset="5.376345e-03" style="stop-color:#D31F33"/>
								<stop  offset="1" style="stop-color:#912334"/>
							</linearGradient>
							<polygon id="Path-138" class="st10" points="390,110.8 407.5,110.8 409.3,117.8 395.9,126.3 							"/>
							<path id="XMLID_108_" class="st11" d="M431.6,69.6c3.2,0.5,8.5,3.6,8.5,16.2c0,12-3.4,21.1-7.4,23.7
								c-2.8-5-4.2-11.1-4.2-18.2C428.6,83.4,429.6,76.1,431.6,69.6L431.6,69.6z"/>
							
								<linearGradient id="Path-127_1_" gradientUnits="userSpaceOnUse" x1="17.5922" y1="-513.6427" x2="17.5922" y2="-512.3553" gradientTransform="matrix(283 0 0 158 -4657 81271.5156)">
								<stop  offset="5.376345e-03" style="stop-color:#D31F33"/>
								<stop  offset="1" style="stop-color:#912334"/>
							</linearGradient>
							<path id="Path-127_2_" class="st12" d="M178.6,204.9h146.6v17c0,2.6-1.6,4.8-4,5.7c-23.9,8.6-37.4,20.9-40.6,36.9
								c-3.3,16.8,1.2,28.5,13.5,35.1h110.2c3.4,0,6.4-2,7.7-5.2l15-36.5c6.3-15.4,5.9-32.7-1.2-47.8l-35.5-75.4
								c-1.3-2.8-0.4-6.1,2.2-7.7l17.3-11.1c11.6,20.8,20.7,40.3,27.1,58.5c9.6,27.2,9.7,41.9,27.7,46.9v18
								c-8.5,5.3-16.7,15.3-24.4,30.1c-11.6,22.2-15.4,50-52.2,50c-43.3,0-86.5,0-129.8,0l0,0"/>
							<path id="XMLID_107_" class="st11" d="M414.6,147.7l2.8-1.2c1.9-0.8,4.2,0.1,5,2l0,0l8.7,20.4c0.8,1.9-0.1,4.2-2,5l-2.8,1.2
								c-1.9,0.8-4.2-0.1-5-2l0,0l-8.7-20.4C411.8,150.7,412.7,148.5,414.6,147.7L414.6,147.7z"/>
							<ellipse id="XMLID_106_" class="st11" cx="464.6" cy="231.2" rx="3.9" ry="9.7"/>
							<path id="Path-129_2_" class="st3" d="M180.6,163.1c72.3,5.2,112,8.7,119,10.4c11,2.6,33.6,11.9,33.6,20.1s1,11.2-8.2,11.2
								c-6.2,0-43.4,0-135.4,0"/>
							
								<linearGradient id="XMLID_4_" gradientUnits="userSpaceOnUse" x1="18.8397" y1="-514.6652" x2="18.8397" y2="-513.3779" gradientTransform="matrix(112 0 0 31 -1862.9961 16119.5254)">
								<stop  offset="0" style="stop-color:#453A3F"/>
								<stop  offset="1" style="stop-color:#5B5054"/>
							</linearGradient>
							<path id="XMLID_105_" class="st13" d="M228.2,167.2c7,11.9,17.4,19.9,31,24.3c22.7,7.2,49-3.7,59.9,13.3H178.2l-2.9-15.1
								c-2.2-11.3,5.2-22.3,16.6-24.5c1.8-0.3,3.6-0.4,5.4-0.3C208.5,165.8,218.8,166.5,228.2,167.2z"/>
							
								<linearGradient id="Path-130_2_" gradientUnits="userSpaceOnUse" x1="18.7844" y1="-513.6888" x2="18.7844" y2="-512.7321" gradientTransform="matrix(132 0 0 77 -2241.0078 39769.6484)">
								<stop  offset="5.376345e-03" style="stop-color:#D31F33"/>
								<stop  offset="1" style="stop-color:#912334"/>
							</linearGradient>
							<path id="Path-130_1_" class="st14" d="M261.1,289.3c15.2-35.1,8.3-49.7,0.3-59.5c-22.9-23.1-42.8-12.1-54.6-7.6"/>
							
								<linearGradient id="Path-132_1_" gradientUnits="userSpaceOnUse" x1="470.2262" y1="235.4975" x2="516.5915" y2="235.4975" gradientTransform="matrix(1 0 0 -1 -79 457.6929)">
								<stop  offset="5.376345e-03" style="stop-color:#D31F33"/>
								<stop  offset="1" style="stop-color:#912334"/>
							</linearGradient>
							<path id="Path-132" class="st15" d="M396.4,125L396.4,125l34.6,75.3c9,19.6,8.8,42.2-0.4,61.7l-24.2,50.9
								c-1.9,4-5.9,6.5-10.3,6.5h-3.6L422,258c8-17,8.1-36.6,0.3-53.7l-30.2-66C389.9,133.4,391.8,127.7,396.4,125z"/>
							<path id="XMLID_1_" class="st11" d="M180.6,163.1l8.6-83.2c2.1,0,3.8,1.7,3.8,3.8v77.4c0,2.1-1.7,3.8-3.8,3.8"/>
							<path id="XMLID_3_" class="st16" d="M197.1,204.8h133.6"/>
							<path id="Path-137" class="st3" d="M380.4,114.7c2.4-3.5,2.4-7.5,0-11.8c-2.4-4.3-5.4-5.8-8.9-4.4
								c-15.3,3.5-23.4,6.1-24.5,7.8c-1.6,2.6-1.6,13.5,6.5,13.5c4.3,0,9.2-1.6,18-3.8C373,115.7,376,115.2,380.4,114.7z"/>
							<path id="Path-2_3_" class="st17" d="M369.4,78.6c7.3,3.3,11.6,8.9,12.9,16.7"/>
							<ellipse id="XMLID_100_" class="st18" cx="364.9" cy="78.6" rx="10.9" ry="10.3"/>
						</g>
					</g>
				</g>
				<g id="Group-7_2_" transform="translate(464.000000, 284.639104)">
					<g id="Group-6_2_">
						
							<linearGradient id="Path-144_1_" gradientUnits="userSpaceOnUse" x1="-1075.068" y1="-500.154" x2="-1075.068" y2="-498.8665" gradientTransform="matrix(-7.0149 26.1801 26.4849 7.0966 5970.4888 31787.6621)">
							<stop  offset="5.376345e-03" style="stop-color:#D31F33"/>
							<stop  offset="1" style="stop-color:#912334"/>
						</linearGradient>
						<path id="Path-144_4_" class="st19" d="M290.3,117.6l-11.1-2.9c-2.6-0.7-4.3-3.3-3.9-6l0,0c0.5-2.9-0.8-5.8-3.2-7.4l-1.2-0.8
							c-2.9-1.9-3.7-5.8-1.8-8.8c0.4-0.7,0.9-1.4,1.3-2.1c-0.5-0.8-0.9-1.5-1.4-2.3l0,0c-1.7-2.8-0.9-6.5,1.9-8.2
							c0.1-0.1,0.3-0.2,0.4-0.3l1.3-0.7c2.6-1.3,5.7-0.4,7.1,2.1l0.5,0.8c1.3,2.1,3.7,3.3,6.2,2.8l0,0c2-0.4,3.8,0.9,4.2,2.9
							c0,0.2,0,0.3,0.1,0.5l0.2,5.1c0.1,3,2.7,5.3,5.7,5.2c0.1,0,0.1,0,0.2,0l0,0c1.6-0.1,3,1.1,3.1,2.7c0,0.6-0.1,1.2-0.4,1.7
							L290.3,117.6z"/>
						<polyline id="Path-141_1_" class="st20" points="280.6,256.9 293.3,118.1 278,92.5 						"/>
						<g id="Group-5_2_" transform="translate(9.080586, 33.338579)">
							
								<linearGradient id="XMLID_5_" gradientUnits="userSpaceOnUse" x1="-1072.7004" y1="-515.2023" x2="-1072.7004" y2="-513.916" gradientTransform="matrix(25.9633 0 0 24.2818 28111.7773 12597.916)">
								<stop  offset="5.376345e-03" style="stop-color:#D31F33"/>
								<stop  offset="1" style="stop-color:#912334"/>
							</linearGradient>
							<path id="XMLID_92_" class="st21" d="M277.6,114.7V105c0-2.6-2-4.8-4.6-5l0,0c-2.8-0.3-5.2-2.1-6.2-4.7l-0.3-0.9
								c-1.1-2.9-4.3-4.5-7.3-3.7c-0.9,0.2-1.7,0.5-2.6,0.7c-0.6-0.6-1.2-1.2-1.8-1.8l0,0c-2.3-2.3-6.1-2.3-8.4,0.1l0,0l-0.9,0.9
								c-1.8,1.8-1.7,4.7,0.1,6.5c0,0,0,0,0.1,0.1l0.7,0.7c1.6,1.5,2,3.9,1,5.8l0,0c-0.8,1.5-0.2,3.4,1.3,4.1
								c0.2,0.1,0.4,0.2,0.5,0.2l5.2,1.6c2.4,0.7,3.8,3.3,3.1,5.7c0,0.1-0.1,0.2-0.1,0.4l0,0c-0.5,1.3,0.1,2.8,1.5,3.3
								c0.5,0.2,1.1,0.2,1.6,0.1L277.6,114.7z"/>
							<path id="Path-143_1_" class="st20" d="M281.4,117.1L256.4,98"/>
						</g>
						
							<g id="XMLID_89_" transform="translate(56.000000, 29.116612) scale(-1, 1) translate(-56.000000, -29.116612) translate(40.500000, 15.116612)">
							
								<linearGradient id="XMLID_6_" gradientUnits="userSpaceOnUse" x1="-890.829" y1="-515.4193" x2="-890.829" y2="-514.133" gradientTransform="matrix(25.9633 0 0 24.2818 22887.3691 12597.915)">
								<stop  offset="5.376345e-03" style="stop-color:#D31F33"/>
								<stop  offset="1" style="stop-color:#912334"/>
							</linearGradient>
							<path id="XMLID_91_" class="st22" d="M-224.8,109.5v-9.8c0-2.6-2-4.8-4.6-5l0,0c-2.8-0.3-5.2-2.1-6.2-4.7l-0.3-0.9
								c-1.1-2.9-4.3-4.5-7.3-3.7c-0.9,0.2-1.7,0.5-2.6,0.7c-0.6-0.6-1.2-1.2-1.8-1.8l0,0c-2.3-2.3-6.1-2.3-8.4,0.1l0,0l-0.9,0.9
								c-1.8,1.8-1.7,4.7,0.1,6.5c0,0,0,0,0.1,0.1l0.7,0.7c1.6,1.5,2,3.9,1,5.8l0,0c-0.8,1.5-0.2,3.4,1.3,4.1
								c0.2,0.1,0.4,0.2,0.5,0.2l5.2,1.6c2.4,0.7,3.8,3.3,3.1,5.7c0,0.1-0.1,0.2-0.1,0.4l0,0c-0.5,1.3,0.1,2.8,1.5,3.3
								c0.5,0.2,1.1,0.2,1.6,0.1L-224.8,109.5z"/>
							<path id="XMLID_90_" class="st20" d="M-221,111.8l-25.1-19.1"/>
						</g>
						
							<linearGradient id="XMLID_7_" gradientUnits="userSpaceOnUse" x1="-1057.5807" y1="-514.5299" x2="-1057.5807" y2="-513.2422" gradientTransform="matrix(32.4541 0 0 30.3522 34585.8125 15778.2988)">
							<stop  offset="5.376345e-03" style="stop-color:#D31F33"/>
							<stop  offset="1" style="stop-color:#912334"/>
						</linearGradient>
						<path id="XMLID_88_" class="st23" d="M283.9,194.7v-12.2c0-3.3-2.5-6-5.7-6.3l0,0c-3.5-0.3-6.5-2.6-7.8-5.9l-0.4-1.1
							c-1.4-3.7-5.4-5.7-9.2-4.6c-1.1,0.3-2.2,0.6-3.2,0.9c-0.7-0.7-1.5-1.5-2.2-2.2l0,0c-2.9-2.9-7.6-2.8-10.5,0.1c0,0,0,0,0,0
							l-1.1,1.1c-2.2,2.3-2.2,5.9,0.1,8.1c0,0,0.1,0.1,0.1,0.1l0.9,0.9c2,1.9,2.5,4.8,1.3,7.3l0,0c-1,1.9-0.2,4.2,1.6,5.2
							c0.2,0.1,0.4,0.2,0.7,0.3l6.6,1.9c3.1,0.9,4.8,4.1,3.9,7.2c0,0.2-0.1,0.3-0.2,0.4l0,0c-0.6,1.7,0.2,3.5,1.8,4.2
							c0.6,0.2,1.3,0.3,2,0.1L283.9,194.7z"/>
						
							<linearGradient id="XMLID_8_" gradientUnits="userSpaceOnUse" x1="-1081.7805" y1="-514.6584" x2="-1081.7805" y2="-513.3707" gradientTransform="matrix(-32.4541 0 0 30.3522 -34792.8125 15764.748)">
							<stop  offset="5.376345e-03" style="stop-color:#D31F33"/>
							<stop  offset="1" style="stop-color:#912334"/>
						</linearGradient>
						<path id="XMLID_87_" class="st24" d="M294.5,177.3v-12.2c0-3.3,2.5-6,5.7-6.3l0,0c3.5-0.3,6.5-2.6,7.8-5.9l0.4-1.1
							c1.4-3.7,5.4-5.7,9.2-4.6c1.1,0.3,2.2,0.6,3.2,0.9c0.7-0.7,1.5-1.5,2.2-2.2l0,0c2.9-2.9,7.6-2.8,10.5,0.1c0,0,0,0,0,0l1.1,1.1
							c2.2,2.3,2.2,5.9-0.1,8.1c0,0-0.1,0.1-0.1,0.1l-0.9,0.9c-2,1.9-2.5,4.8-1.3,7.3l0,0c1,1.9,0.2,4.2-1.6,5.2
							c-0.2,0.1-0.4,0.2-0.7,0.3l-6.6,1.9c-3.1,0.9-4.8,4.1-3.9,7.2c0,0.2,0.1,0.3,0.2,0.4l0,0c0.6,1.7-0.2,3.5-1.8,4.2
							c-0.6,0.2-1.3,0.3-2,0.1L294.5,177.3z"/>
						<path id="Path-142_1_" class="st20" d="M287.7,182.5l38.9-29.2"/>
						
							<linearGradient id="XMLID_9_" gradientUnits="userSpaceOnUse" x1="-1081.7528" y1="-514.3049" x2="-1081.7528" y2="-513.0172" gradientTransform="matrix(-32.4541 0 0 30.3522 -34795.9844 15802.0625)">
							<stop  offset="5.376345e-03" style="stop-color:#D31F33"/>
							<stop  offset="1" style="stop-color:#912334"/>
						</linearGradient>
						<path id="XMLID_86_" class="st25" d="M290.4,225.3v-12.2c0-3.3,2.5-6,5.7-6.3l0,0c3.5-0.3,6.5-2.6,7.8-5.9l0.4-1.1
							c1.4-3.7,5.4-5.7,9.2-4.6c1.1,0.3,2.2,0.6,3.2,0.9c0.7-0.7,1.5-1.5,2.2-2.2l0,0c2.9-2.9,7.6-2.8,10.5,0.1c0,0,0,0,0,0l1.1,1.1
							c2.2,2.3,2.2,5.9-0.1,8.1c0,0-0.1,0.1-0.1,0.1l-0.9,0.9c-2,1.9-2.5,4.8-1.3,7.3l0,0c1,1.9,0.2,4.2-1.6,5.2
							c-0.2,0.1-0.4,0.2-0.7,0.3l-6.6,1.9c-3.1,0.9-4.8,4.1-3.9,7.2c0,0.2,0.1,0.3,0.2,0.4l0,0c0.6,1.7-0.2,3.5-1.8,4.2
							c-0.6,0.2-1.3,0.3-2,0.1L290.4,225.3z"/>
						<path id="XMLID_85_" class="st20" d="M283.6,230.5l38.9-29.2"/>
						<path id="Path-145_1_" class="st20" d="M286.7,195.9l-35.4-25.7"/>
					</g>
				</g>
				<path id="Path-48_6_" class="st0" d="M277.6,112c28.5,71.2,192.1,99.9,217.1,52.6c25-47.3-50.9-54.7-93.9-119.4
					S249.1,40.8,277.6,112z"/>
				<g id="Group-2_3_" transform="translate(42.663798, 41.621557)">
					
						<linearGradient id="Path-177_1_" gradientUnits="userSpaceOnUse" x1="-224.2402" y1="-513.8814" x2="-224.2402" y2="-512.5939" gradientTransform="matrix(138.033 0 0 150.5875 31503.8926 77567.1562)">
						<stop  offset="0" style="stop-color:#CCA40F"/>
						<stop  offset="1" style="stop-color:#FDC952"/>
					</linearGradient>
					<path id="Path-177" class="st26" d="M462.5,352.3v24.6l16.6-3c28.6,2,61.4-2.3,98.5-12.8c55.5-15.8,64.5-146.7,62.3-161.8
						c-2.2-15.2-25.3-27.2-41.6,0c-10.9,18.1-20.5,56.1-28.9,114c-53.2,8.9-83.3,19.8-90.3,32.7L462.5,352.3z"/>
					<rect id="XMLID_84_" x="372.6" y="284.1" class="st11" width="118.4" height="100.4"/>
					
						<linearGradient id="XMLID_10_" gradientUnits="userSpaceOnUse" x1="-223.2668" y1="-512.8395" x2="-223.2668" y2="-514.1269" gradientTransform="matrix(92 0 0 78 20959.4766 40385.9688)">
						<stop  offset="0" style="stop-color:#FFE78A"/>
						<stop  offset="1" style="stop-color:#FDC952"/>
					</linearGradient>
					<rect id="XMLID_83_" x="359.7" y="284.1" class="st27" width="118.4" height="100.4"/>
					<path id="Path-178" class="st28" d="M578.1,376c-3.9,17.2-6.2,38.6-6.8,64c-0.6,25.4-0.6,60.5,0,105.4c24.2-4.1,42.5-8,55-11.6
						c12.5-3.6,23.3-8,32.4-13.3l20.3-69.6c4.5-15.6,3.5-32.2-3-47.1l-17.3-39.9L578.1,376z"/>
					<path id="Path-175" class="st11" d="M581.7,217.6c-10,24.3-15.4,40.1-16,47.6c-1.4,16.3,3,26.3,13.1,30.2v81.3l81.1-3
						c7.1-0.3,12.7-6.2,12.4-13.3c0-1-0.2-2-0.5-3c-6.2-21.9-9.3-34-9.3-36.2c0-4.1,14.4-87.1,5.6-103.5
						c-5.9-11-17.6-18.7-35.3-23.2L581.7,217.6z"/>
					<path id="Path-183" class="st28" d="M173.3,108.7c-7.1-1.5-11.6-10-13.5-25.5c-1.9-15.5-1-23.8,2.7-25l68.9-12.5
						c11.9,1.6,14.8,9.7,8.9,24.2C234.3,84.5,212,97.4,173.3,108.7z"/>
					
						<linearGradient id="Path-176_1_" gradientUnits="userSpaceOnUse" x1="-224.862" y1="-513.881" x2="-224.862" y2="-512.5936" gradientTransform="matrix(179.5966 0 0 140.4299 40917.3984 72373.8125)">
						<stop  offset="0" style="stop-color:#FAC599"/>
						<stop  offset="1" style="stop-color:#F29262"/>
					</linearGradient>
					<path id="Path-176" class="st29" d="M623.7,211.1c19.4-7.4,31.5,11.9,21,51.2c-10.5,39.3-20.9,81.5-28.6,96.1
						c-5.1,9.7-50.6,20.4-136.4,32c-14.7,0-27.2,0-37.3,0c-15.2,0-29.3-7.5-23.9-7.5s29.4,1.9,37.1-3.4c7.6-5.3-11.6-14.9-4.9-19.3
						c3-2,11.1,6.4,16.1,8c2.3,0.7,6.2,1.8,11.5,3.1c63.8-25.6,100-39.2,108.6-40.9C591.8,309.6,604.3,218.4,623.7,211.1z"/>
					
						<linearGradient id="XMLID_11_" gradientUnits="userSpaceOnUse" x1="-224.2152" y1="-513.8585" x2="-224.2152" y2="-512.571" gradientTransform="matrix(138.033 0 0 150.5875 31515.8926 77579.1562)">
						<stop  offset="0" style="stop-color:#FFE78A"/>
						<stop  offset="1" style="stop-color:#FDC952"/>
					</linearGradient>
					<path id="XMLID_60_" class="st30" d="M477.9,367.7v24.6l16.6-3c28.6,2,61.4-2.3,98.5-12.8c55.5-15.8,64.5-146.7,62.3-161.8
						c-2.2-15.2-25.3-27.2-41.6,0c-10.9,18.1-20.5,56.1-28.9,114c-53.2,8.9-83.3,19.8-90.3,32.7L477.9,367.7z"/>
					<path id="Path-174" class="st31" d="M631.5,181.4c-27.6,6.8-42.6,12.8-45,18.1c-2.5,5.3-4,11.3-4.7,18.1l51.2-23.2L631.5,181.4
						z"/>
					<path id="Path-181" class="st32" d="M242.5,50.1c-15.9,10.9-42.6,13.6-80,8.2c51.7,7.8,83.8,11.7,96.2,11.7
						c18.7,0,31.5-0.3,31.5-7.8c0-5-2.2-7.6-6.5-7.9L242.5,50.1z"/>
					<g id="Group_6_" transform="translate(347.336202, 54.017548)">
						<path id="Path-173" class="st28" d="M226.7,77.6c-10.9-14.1-10.9-24.1,0-29.9c-7.8-14.9,34.6-41.5,61.3-12.5
							c26.7,29,15.5,27.4,32.1,61.8s49.2,46.4,31.5,69.7c-17.7,23.3-44.4,10.2-53.4,3.3c-9-6.9-25.1-37.7-20.8-78
							C259.7,94.6,242.8,89.8,226.7,77.6z"/>
						
							<linearGradient id="Path-171_1_" gradientUnits="userSpaceOnUse" x1="-913.6454" y1="-514.9545" x2="-913.6454" y2="-513.6669" gradientTransform="matrix(47 0 0 62 43199.1406 31986.1562)">
							<stop  offset="0" style="stop-color:#FAC599"/>
							<stop  offset="1" style="stop-color:#F29262"/>
						</linearGradient>
						<path id="Path-171" class="st33" d="M228.7,59c-2,37.5-1.4,57.7,1.8,60.8c3.2,3,8,3.8,14.3,2.3l5.6,16.8l28.9-10.4
							c-0.9-5.8-1.3-11.6-1.3-17.5c0-5.9,0-12.1,0-18.6c6.7-1,10-4.1,10-9.2c0-7.7-5.8-10.6-12.6-4C257.4,81,241.8,74.3,228.7,59z"
							/>
						<path id="Path-64_3_" class="st34" d="M278.3,88.6c3.8-2,6-3.9,6.6-5.8c0.9-2.8,1.2-5.6-3.6-4.5
							C278.1,79.1,277.1,82.5,278.3,88.6z"/>
						<path id="Path-44_3_" class="st35" d="M235.9,85.4c-0.2,2.1-6.2,11.2-5.6,14.2c0.6,3.1,3.7,2.1,4.3-2.6
							C235.1,92.2,236.1,83.3,235.9,85.4z"/>
						<path id="Path-45_3_" class="st36" d="M233.6,106c0,0,6.8,0.6,8.5-0.2c-1.9,3.3-4,5.2-6.2,4.3
							C233.8,109.1,233.6,106,233.6,106z"/>
						<polygon id="Path-172" class="st34" points="244.3,122.1 267.5,114.3 250.3,137.5 						"/>
					</g>
					
						<linearGradient id="Path-179_1_" gradientUnits="userSpaceOnUse" x1="-222.1759" y1="-514.8214" x2="-222.1759" y2="-513.5339" gradientTransform="matrix(60.0976 0 0 76.7138 13556.0381 39543.9961)">
						<stop  offset="0" style="stop-color:#FAC599"/>
						<stop  offset="1" style="stop-color:#F29262"/>
					</linearGradient>
					<path id="Path-179" class="st37" d="M239.2,59.5c4.4,39.1,4.4,59.6,0,61.7s-9.1,2.9-14.3,2.4l-12.2,25.2l-47.6-15.6l6.8-25.7
						c5.4-1.8,9.1-5.2,11.1-10.4c-9.1-4-13.7-9.8-13.7-17.4c0-11.3,14.2-11.5,20,0c-0.2,8.3,2.2,12.5,4.8,12.5s-0.7-15.2,7.3-18.7
						s13.8-5.9,13.8-18.3C215.3,47.2,223.2,48.5,239.2,59.5z"/>
					<path id="XMLID_59_" class="st34" d="M183.4,91.3c-4.7-3.2-7.4-6.3-8.1-9.2c-1-4.5-1.4-9.1,4.4-7.3
						C183.7,75.9,185,81.4,183.4,91.3z"/>
					<path id="XMLID_58_" class="st35" d="M233.6,81.5c0.2,2.1,6.2,11.2,5.6,14.2c-0.6,3.1-3.7,2.1-4.3-2.6
						C234.4,88.3,233.4,79.4,233.6,81.5z"/>
					<path id="XMLID_57_" class="st36" d="M238.4,104.8c0,0-8,0.7-10-0.4c2.3,3.9,4.8,6.3,7.3,5.2
						C238.2,108.5,238.4,104.8,238.4,104.8z"/>
					
						<linearGradient id="Path-180_1_" gradientUnits="userSpaceOnUse" x1="-223.9217" y1="-515.6792" x2="-223.9217" y2="-514.3919" gradientTransform="matrix(97.6604 0 0 53.1356 22090.9355 27406.8906)">
						<stop  offset="5.376345e-03" style="stop-color:#D31F33"/>
						<stop  offset="1" style="stop-color:#912334"/>
					</linearGradient>
					<path id="Path-180" class="st38" d="M162.4,58.3c-7.8-33.1,1.6-50.4,28.1-52.1c39.8-2.4,47,13.9,49.5,29.9l2.4,14l43,4.3
						c-13.2,1.2-19.8,6.3-19.8,15.2C265.7,78.6,231.3,74.8,162.4,58.3z"/>
					
						<linearGradient id="XMLID_12_" gradientUnits="userSpaceOnUse" x1="117.1236" y1="642.3466" x2="199.8188" y2="642.3466" gradientTransform="matrix(1 0 0 -1 42.6638 674.7104)">
						<stop  offset="5.376345e-03" style="stop-color:#D31F33"/>
						<stop  offset="1" style="stop-color:#912334"/>
					</linearGradient>
					<path id="XMLID_56_" class="st39" d="M242.5,50.1c-37.5,6.7-63.8,9.5-78.9,8.5c-0.4-0.1-0.8-0.2-1.2-0.3
						c-7.8-33.1,1.6-50.4,28.1-52.1c39.8-2.4,47,13.9,49.5,29.9L242.5,50.1z"/>
					
						<linearGradient id="Path-189_1_" gradientUnits="userSpaceOnUse" x1="-223.9925" y1="-514.203" x2="-223.9925" y2="-512.9154" gradientTransform="matrix(106.5058 0 0 67.4624 24160.5137 34989.3164)">
						<stop  offset="0" style="stop-color:#F6A667"/>
						<stop  offset="1" style="stop-color:#DB6F39"/>
					</linearGradient>
					<path id="Path-189" class="st40" d="M242.5,299.9c55.5,30.6,89.3,49.7,101.4,57.3c12.1-4.1,21.7-7.2,28.7-9.1l-3.7,36.4
						l-32.6,2.3c-67.2-24.1-100.9-37.3-100.9-39.8S237.8,328.9,242.5,299.9z"/>
					<path id="Path-187" class="st28" d="M133.3,386.8l-7.7,38.3c-4.6,22.8-2.9,46.4,4.9,68.3l2.8,7.9
						c16.8,14.1,35.3,25.2,55.5,33.5s42.7,15.2,67.6,20.9V386.8H133.3z"/>
					<path id="XMLID_55_" class="st41" d="M222.7,390.7l2.3,156.9"/>
					<path id="Path-3_2_" class="st41" d="M201,386.8c2.2,23.9,9.8,37.5,22.8,40.9"/>
					
						<linearGradient id="Path-186_1_" gradientUnits="userSpaceOnUse" x1="-224.2958" y1="-513.7968" x2="-224.2958" y2="-512.5093" gradientTransform="matrix(109.0785 0 0 197 24654.5742 101356.3672)">
						<stop  offset="0" style="stop-color:#FFFFFF"/>
						<stop  offset="1" style="stop-color:#E5E9F4"/>
					</linearGradient>
					<path id="Path-186" class="st42" d="M219,161.9c14.9,33.4,22.3,64,22.3,91.7c0,41.6,17.6,115.2,17.6,122.8
						c0,5.1-0.9,10.3-2.8,15.6c-67.5-2-108.5-3.8-122.8-5.2c-26-26.2-7.7-81.6-14-133.2c-4.2-34.4,9.5-72.8,41.2-115.2L219,161.9z"
						/>
					
						<linearGradient id="XMLID_13_" gradientUnits="userSpaceOnUse" x1="-218.6821" y1="-513.8072" x2="-218.6821" y2="-512.5197" gradientTransform="matrix(32.5551 0 0 192.9589 7258.6909 99282.0625)">
						<stop  offset="0" style="stop-color:#E8EDF9"/>
						<stop  offset="1" style="stop-color:#CDD7EF"/>
					</linearGradient>
					<path id="XMLID_54_" class="st43" d="M133.5,386.8c-0.1,0-0.2,0-0.2,0c-26-26.2-7.7-81.6-14-133.2
						c-4.2-34.4,9.5-72.8,41.2-115.2c-21.7,29.6-32.5,58.8-32.5,87.3c0,42.9,4.8,94,0,111.1C124.8,347.7,126.7,364.3,133.5,386.8z"
						/>
					<path id="XMLID_53_" class="st36" d="M233.9,19.1c3.7,5.1,5.3,11.1,6.2,17l1.3,7.4c-1.6,0.7-3.4,1.1-5.2,1.1
						c-7.1,0-12.9-5.8-12.9-12.9C223.2,25.4,227.8,20.1,233.9,19.1z"/>
					<path id="Path-182" class="st28" d="M159.8,139.3c0.6-7.9,4.4-11.2,11.5-10c10.6,1.8,43.7,14.7,45.2,19.6
						c1,3.2,1.8,8.2,2.5,15.1L159.8,139.3z"/>
					
						<linearGradient id="XMLID_14_" gradientUnits="userSpaceOnUse" x1="-228.3292" y1="-513.8214" x2="-228.3292" y2="-512.534" gradientTransform="matrix(-198.7268 0 0 175.374 -45086.7891 90277.4922)">
						<stop  offset="0" style="stop-color:#FAC599"/>
						<stop  offset="1" style="stop-color:#F29262"/>
					</linearGradient>
					<path id="XMLID_52_" class="st44" d="M191.7,168.5c-24.4-9.3-39.6,15-26.4,64.6s26.3,102.7,36,121.1c6.5,12.2,52,25,136.5,38.2
						c18.5,0,34.2,0,46.9,0c19.1,0,36.9-9.4,30.1-9.4s-37,2.4-46.7-4.3c-9.6-6.6,14.6-18.8,6.2-24.3c-3.7-2.5-13.9,8.1-20.3,10.1
						c-2.9,0.9-7.7,2.2-14.4,3.9c-56.9-30.9-90.7-47.4-101.6-49.5C231.9,292.6,216.2,177.8,191.7,168.5z"/>
					<path id="XMLID_51_" class="st34" d="M340.6,392.4c-0.9,0-1.9,0-2.8,0c-84.6-13.2-130.1-26-136.5-38.2
						c-6.3-11.9-13.9-38.3-22.2-69l6.2-1.1c8.3,39.7,16.2,61.9,23.8,66.6C219.5,357.2,311.9,385.8,340.6,392.4L340.6,392.4z"/>
					<path id="Path-184" class="st34" d="M224.9,123.6c-11.8-0.4-19.7-2.6-23.9-6.4c-0.2,7.4,5.3,14.4,16.7,21.2L224.9,123.6z"/>
					
						<linearGradient id="Path-188_1_" gradientUnits="userSpaceOnUse" x1="-221.978" y1="-514.2071" x2="-221.978" y2="-512.9197" gradientTransform="matrix(57.2625 0 0 101.0631 12906.4756 52130.5938)">
						<stop  offset="0" style="stop-color:#FFFFFF"/>
						<stop  offset="1" style="stop-color:#E5E9F4"/>
					</linearGradient>
					<path id="Path-188" class="st45" d="M172.1,293.3l60.2-14c-12.4-73.3-26.7-111.7-42.9-115.4c-24.3-5.5-32.2,22.9-30.6,45.6
						C159.9,224.6,164.3,252.6,172.1,293.3z"/>
					
						<linearGradient id="XMLID_15_" gradientUnits="userSpaceOnUse" x1="-211.4537" y1="-514.2228" x2="-211.4537" y2="-512.9354" gradientTransform="matrix(17.693 0 0 98.4572 3911.24 50795.5273)">
						<stop  offset="0" style="stop-color:#E8EDF9"/>
						<stop  offset="1" style="stop-color:#CDD7EF"/>
					</linearGradient>
					<path id="XMLID_50_" class="st46" d="M168.7,169.8l6.8-3.2c-8.2,8.4-10,27.5-5.2,57.3c4.6,28.7,8.2,51.1,11,67.3l-9.2,2.1
						c-7.8-40.8-12.3-68.7-13.3-83.8C157.8,195.2,160.5,178.7,168.7,169.8z"/>
				</g>
			</g>
		</g>
	</g>
	<circle id="XMLID_64_" class="st32" cx="458.9" cy="354.6" r="34.8"/>
	<path id="XMLID_61_" class="st47" d="M435.9,361.1l5.2-9.3c1.4-1.9,0-3.3,0-3.3l-3.6-6c-0.9-2.8,2.3-3.4,2.3-3.4h6.2
		c2.4-0.1,2.9,1.4,2.9,1.4l4.9,8.1c0.9,1.7,0,2.7,0,2.7l-6.4,11.4c-1.1,2.6-2.5,2.4-2.5,2.4H438
		C434.4,364.9,435.9,361.1,435.9,361.1z M465.2,361.7c-0.5-0.9-0.5-2,0-2.9l13.5-23.5c1.1-1.9-0.3-4.3-2.5-4.3l-5.8,0
		c-1,0-2,0.5-2.5,1.5l-15.2,26.4c-0.5,0.9-0.5,2,0,2.9l9.3,16.5c0.4,0.7,1.2,1.2,2,1.2h6.1c2.3,0,3.7-2.4,2.6-4.4L465.2,361.7z"/>
</g>
</svg>
